<?xml version="1.0" encoding="UTF-8"?><svg id="Calque_1" xmlns="http://www.w3.org/2000/svg" viewBox="0 0 819 1158.49"><defs><style>.cls-1,.cls-2{stroke-width:0px;}.cls-2{fill:#fff;}</style></defs><path class="cls-1" d="m819,169.55v818.62c-.77,0-1.54,0-2.31,0-270.69,0-541.38,0-812.07,0-.55,0-1.1.04-1.65-.01-.73-.07-1.45-.22-2.11-.32-.63-5.04-.4-815.53.29-818.27h4.45c269.81,0,539.62,0,809.43,0,1.32,0,2.64-.02,3.96-.03Zm-376.78,431.84c-1.2,1.57-2.41,3.14-3.93,5.12-.11-1.54-.15-2.58-.27-3.62-.65-5.38-4.24-7.68-9.36-5.9-1.21.42-2.43,1.1-3.39,1.95-3.17,2.81-4.97,6.52-6.46,10.41,3.05-3.17,4.2-8,9.03-10.28.5,2.43-.25,4.12-.94,5.79-3.04,7.42-6.13,14.82-9.17,22.24-.44,1.06-.77,2.17-1.33,3.77,3.61,0,6.66-.11,9.7.04,2.07.1,3.16-.67,3.97-2.58,2.68-6.38,5.52-12.69,8.33-19.01,1.2-2.69,2.5-5.33,3.76-7.99.72-.38,1.43-.77,2.74-1.47-.56,1.49-.93,2.37-1.21,3.26-.87,2.77,0,5.26,2.28,6.58,2.38,1.38,5.36.98,7.24-1.04,1.87-2,2.37-4.42,1.91-7.04-.56-3.23-2.63-5.01-5.88-5.13-3.77-.14-6.11,1.49-7.01,4.91Zm22.71-364.8c.12-.64.34-1.29.34-1.93.02-6.48.01-12.96-.01-19.44,0-.4-.2-.8-.31-1.19h-21.37c-.65,4.14-.48,19.4.3,21.99h3.15c4.94,0,9.88-.03,14.82.02,1.04.01,2.08.33,3.12.51.11,2.17.31,4.34.3,6.51-.03,4.91-.17,9.81-.27,14.72-.64.1-1.29.28-1.93.28-13.29.02-26.58.01-39.87,0-.62,0-1.25-.13-2.18-.23v-21.58c-.95-.1-1.58-.23-2.21-.23-13.18-.01-26.36-.02-39.54.02-.94,0-1.88.39-2.8.58.12-.64.33-1.29.34-1.93.02-6.49.01-12.98-.01-19.47,0-.4-.2-.8-.31-1.19h-21.47c-.11.62-.25,1.05-.25,1.47-.02,6.16-.04,12.32,0,18.48,0,.84.37,1.68.57,2.52-1.07-.17-2.15-.47-3.22-.47-12.97-.03-25.94-.03-38.91,0-.84,0-1.67.18-2.47.27v44h21.79c.2,7.53-.07,14.71.15,21.8h22.07v-4.12c0-19.24-.01-38.48.02-57.72,0-1.27.34-2.53.51-3.81.4-.14.79-.4,1.19-.4,6.21-.03,12.41-.03,18.62,0,.47,0,.94.37,1.41.57.11,1.07.31,2.15.32,3.22.03,5.16,0,10.31.03,15.47,0,.84.14,1.68.25,2.77h21.9c0,1.44,0,2.61,0,3.78,0,12.28,0,24.57.01,36.85,0,1.19.2,2.38.31,3.57-7.41.03-14.81.06-22.42.09-.06,7.57-.19,14.74.08,22.3h22.33c-.1.75-.3,1.51-.3,2.26-.02,12.98-.02,25.96,0,38.94,0,.85.15,1.7.25,2.83,7.38.07,14.61.14,21.83.2,0,7.23.01,14.47.02,21.7l.09-.1c-1.08.1-2.16.29-3.24.29-5.37.03-10.75,0-16.12.02-.85,0-1.69.14-2.93.25v21.96c-6.43,0-12.45-.02-18.47.02-1.29,0-2.58.26-3.85.39.09-.65.25-1.3.25-1.95.01-20.88.02-41.75,0-62.63,0-.72-.22-1.43-.36-2.27-7.28-.06-14.36-.05-21.37-.02-.75,5.44-.47,63.9.33,66.45,5.72,0,11.52-.02,17.32.02,1.3,0,2.59.21,3.89.32.11,7.11.22,14.22.34,21.69,11.2,0,22.16,0,33.13,0s21.89,0,33.15,0v4.06c0,12.21-.01,24.42.02,36.63,0,1.18.26,2.36.39,3.54-13.74,0-27.49.02-41.23,0-.96,0-1.92-.25-2.88-.38-.18-1.04-.5-2.08-.51-3.12-.05-5.16-.01-10.32-.04-15.48,0-.94-.14-1.88-.22-2.85h-21.93c0,1.9.02,3.62,0,5.35-.08,5.36-.18,10.72-.27,16.08-1.29.14-2.57.4-3.86.4-26.72.02-53.45.02-80.17.02h-3.77c-.65,4.17-.51,19.62.14,22.03h87.79c.06-1.26.14-2.33.15-3.4.02-4.84.03-9.68,0-14.52-.01-1.53-.21-3.05-.31-4.57.3.13.59.36.89.36,6.98.03,13.95.04,20.93.03.42,0,.83-.24,1.24-.37-.19.84-.55,1.68-.55,2.52-.05,6.04-.03,12.07,0,18.11,0,.61.21,1.22.33,1.85h43.73c.06-1.25.16-2.32.16-3.4.02-4.83-.02-9.66.02-14.49.01-1.41.21-2.82.32-4.23,6.77.02,13.53.06,20.3.06.52,0,1.04-.23,1.55-.35v22.36h22.06c-.06-7.4.18-14.57-.17-21.99-4.82,0-9.3.03-13.78-.01-2.73-.03-5.45-.18-8.18-.27v-43.97c1.48,0,2.55,0,3.62,0,5.16,0,10.31.03,15.47-.02,1.19-.01,2.37-.26,3.56-.39-.17.96-.49,1.91-.49,2.87-.05,5.61-.03,11.21-.01,16.82,0,.85.13,1.71.24,3.03h21.79c0,3.63,0,7.25,0,10.88,0,3.74,0,7.47,0,11.21s-.04,7.25.01,10.88c.06,3.68-.25,7.38.19,10.98h22.01v-3.76c0-10.55-.01-21.1,0-31.65,0-2.85.1-5.71.16-8.56,7.21-.04,14.43-.08,21.87-.13,0-4.03-.04-7.65.01-11.27.05-3.57-.22-7.16.23-11.01h22.01v-21.9c1.43,0,2.5,0,3.58,0,4.95,0,9.9-.02,14.85.02,1.08,0,2.15.22,3.24.33.11,1.07.3,2.14.31,3.22.03,5.25,0,10.5.03,15.75,0,.84.15,1.67.23,2.51h22.17c-.12,7.42-.24,14.84-.36,22.57h-44.18v22.02h-22.27v31.94h-17.89c.73,1.56,1.43,2.68,1.79,3.91.8,2.69-.5,5.7-2.91,7.1-2.2,1.28-4.78,1.07-6.43-.52-1.82-1.75-1.92-4.4-.26-7.3.16-.29.4-.53.54-.83.3-.65.55-1.31.88-2.09-2.86-.91-4.57.48-5.74,2.42-2.64,4.37-4.02,9.21-4.85,14.2,2.51,1.47,5.41-.38,8.02,1.56-2.59,2.61-5.93.38-8.66,1.93-.21.87-.47,1.92-.73,2.98-1.09,4.49-2.03,9.02-3.29,13.45-2.1,7.35-5.17,14.26-9.85,20.38-2.77,3.62-5.94,6.78-10.06,8.87-.41.2-.72.59-1.08.89.07.18.13.37.2.55h29.91c-1.05.81-1.41,1.16-1.84,1.41-5.3,3.03-9.49,7.25-12.32,12.57-1.71,3.21-3.63,5.05-7.38,4.32-.31-.06-.66,0-.98.06-.99.19-1.56.7-1.26,1.99,1.86.15,3.75.31,5.96.5-.48,1.62-.86,2.85-1.21,4.1-1.49,5.29-3.07,10.56-4.44,15.88-1.39,5.43-2.5,10.94-3.86,16.38-.99,3.95-2.16,7.86-5.99,10.39,1.33.02,2.7.03,3.66-.58,2.67-1.71,5.57-3.32,7.64-5.63,2.91-3.24,5.46-6.91,7.61-10.71,4.61-8.13,6.71-17.16,8.55-26.24.25-1.25.63-2.48,1-3.89,1.68,0,3.11.09,4.52-.03,1.34-.11,3.26.77,3.61-2.2h-7.79c.78-5.24,2.15-9.71,4.41-13.88.56-1.04,1.39-1.99,2.26-2.81,1.1-1.04,2.42-1.38,4.07-.44-.81,1.64-1.73,3.12-2.29,4.72-.8,2.29-.15,4.46,1.5,5.65,1.9,1.37,3.94,1.26,5.92.19,3.25-1.76,4.21-6.02,2.09-9.15-.52-.77-1.18-1.45-2.18-2.66,6.73-.07,12.91-.13,19.43-.2v-10.61h43.91v22.01h-11.05c-3.63,0-7.26,0-10.89,0s-7.48-.02-11.22,0c-3.57.03-7.15-.13-10.97.13v8.99c-2.53-.9-4.79-2.22-7.17-2.46-11.22-1.15-22.32,6.77-25,17.72-.54,2.2-.49,4.58-.43,6.87.07,2.53,1.36,4.56,3.12,6.36,5.98,6.13,18.83,6.07,24.4-5.76-.97.77-1.79,1.69-2.59,2.62-1.74,2.04-3.71,3.77-6.35,4.53-3.69,1.06-5.89-.27-6.24-4.06-.21-2.27-.05-4.62.25-6.89.37-2.82.51-2.85,3.27-3.09,5.95-.52,11.79-1.33,16.82-6.28,0,16.26,0,31.83,0,47.4-5.92.08-11.84.16-17.76.23-1.29.02-2.58,0-4.24,0v14.8c0,4.94,0,9.89,0,14.83-.01,4.79-.04,9.57-.06,14.34-.87.14-1.3.27-1.72.28-6.15.02-12.3.03-18.45,0-.62,0-1.23-.31-1.86-.46v-21.19c-4.34-.66-19.65-.52-21.92.1v21.33c.62.1,1.04.23,1.46.23,6.14.02,12.28.04,18.42,0,.72,0,1.43-.38,2.14-.58-.4,7.52-.24,15.03-.08,22.77,3.97,0,7.57-.02,11.18,0,3.56.02,7.13-.1,11,.1v21.77c.84.1,1.37.22,1.89.23,6.03.02,12.06.02,18.1,0,.63,0,1.26-.25,1.9-.38.03,7.43.07,14.86.1,22.67h21.93v21.88c-7.37.42-14.57-.22-21.78.35v44c7.36.16,14.55-.04,22.06.13v22.03h22.09c0,7.75,0,15.19,0,22.62-1.06-.15-2.13-.42-3.19-.42-12.79-.03-25.59-.03-38.38,0-.97,0-1.94.18-2.91.28v-22.48c-1.65,0-3.05.02-4.45,0-5.67-.08-11.34-.17-17.01-.26-.14-1.07-.39-2.14-.4-3.2-.04-5.17,0-10.34-.03-15.51,0-.95-.13-1.89-.21-2.88h-43.86v21.67c.89.07,1.63.18,2.37.18,13.2.01,26.4.01,39.59,0,.87,0,1.73-.21,2.59-.31-.16,2.15-.46,4.3-.46,6.45.01,5.45.16,10.9.25,16.35-.98-.1-1.95-.28-2.93-.28-20.3-.02-40.61-.02-60.91,0-1.06,0-2.12.32-3.18.49.1-1.42.3-2.83.3-4.25.02-26.83.01-53.66.01-80.49v-3.99c1.08-.13,1.82-.3,2.56-.3,12.97-.02,25.94-.02,38.92.01.82,0,1.65.35,2.48.53.09,5.91.18,11.82.27,17.74.02,1.17,0,2.34,0,3.58h22.01v-21.55c-.71-.12-1.24-.29-1.77-.3-6.04-.02-12.07-.04-18.11,0-.83,0-1.65.4-2.48.61.12-1.09.33-2.17.33-3.26.02-12.96.02-25.93,0-38.89,0-.84-.15-1.67-.27-2.86h-21.87v-21.97h-22.18v-22.23c-1.65,0-3.05.02-4.44,0-5.77-.08-11.55-.18-17.32-.27-.53-5.77-.31-19.21.44-21.92h21.27v-22.07c-14.72-.02-29.27,0-44.08,0,0,4.11.02,7.72,0,11.34-.03,3.57.12,7.16-.12,11.02h-21.77c-.07.98-.16,1.63-.16,2.28,0,13.09-.01,26.18,0,39.27,0,.86.22,1.72.33,2.58-7.52,0-15.05,0-22.57,0v-22.04h-21.83c-.07,1.13-.18,2.09-.19,3.04-.02,5.37-.03,10.74,0,16.11,0,.96.24,1.93.36,2.89-7.52,0-15.05,0-22.57-.01.02-14.75.03-29.51.04-44.26h21.93v-21.82c-3.87-.71-19.43-.55-21.83.21v21.71c-7.33-.29-14.64-.08-22.31-.16v21.86c-7.58,0-14.81,0-22.03,0v-44.03c-1.73,0-3.03.01-4.33,0-6.04-.07-12.07-.15-18.11-.22.19-3.35.39-6.71.58-10.17,1.6-.2,3-.38,4.4-.55,2.02-.25,3.19-1.41,3.44-3.4.18-1.41.25-2.85.25-4.27.02-16.59.02-33.18,0-49.76,0-1.64-.11-3.3-.33-4.92-.21-1.56-1.14-2.62-2.78-2.81-1.59-.18-3.19-.26-5.26-.42v10.23c-4.19,0-7.92-.01-11.65,0-10.98.04-21.96.08-32.94.12.1-.31.29-.62.29-.93.02-6.71.02-13.42,0-20.13,0-.3-.2-.6-.44-1.28h-3.45c-10.67,0-21.34.01-32,0-2.86,0-5.71-.1-8.57-.16.09-4.68.24-9.35.26-14.03.01-2.6-.18-5.21-.27-7.81,19.82-.01,39.64-.03,59.46-.03,2.41,0,4.81.07,7.23.1v21.56c4.67.69,19.7.5,22.08-.26,0-7.02.09-14.1-.04-21.2h-22.15c.07-7.4.15-14.8.23-22.53h21.78c.08-1.08.19-1.83.19-2.57,0-20.3.02-40.59-.02-60.89,0-.94-.36-1.88-.55-2.82.77.04,1.54.1,2.3.1,27.92,0,55.83,0,83.75,0,.86,0,1.72-.09,2.54-.14.81-3.41.67-19.63-.28-22.25h-21.48v-21.91h-21.78v-22.02c7.38-.43,14.58.18,21.65-.34v-43.87h-21.93v22.03c-1.72,0-3.02-.01-4.32,0-5.93.06-11.86.13-17.78.2-.02-7.55-.05-15.11-.07-22.66,6.24.08,12.47.16,18.71.24,1.07.01,2.14,0,3.32,0v-44.25c-1.38,0-2.56.01-3.74,0-6.02-.07-12.04-.14-18.06-.21-.04-1.21-.12-2.41-.12-3.62,0-12.2,0-24.4,0-36.61v-3.44c-4.56-.67-63.74-.49-66.1.13-.67,4.84-.43,19.33.48,21.86h21.36c0,7.48,0,14.6,0,21.74h-22.1c0,7.66-.24,14.91.17,22.13h21.83v-22.24c.65.08,1.29.24,1.94.24,13.46.01,26.92.02,40.38,0,.75,0,1.5-.2,2.24-.29-.07,1.31-.2,2.62-.2,3.93-.02,13.49-.02,26.99-.01,40.49-7.28.08-14.55.16-22.13.24,0,2.55.03,4.72,0,6.89-.08,5.14-.19,10.27-.28,15.41-7.2-.1-14.39-.21-21.8-.31,0-3.99.02-7.61,0-11.22-.03-3.57.13-7.15-.11-10.64h-21.67c-.68,4.14-.51,41.5.23,44.03h3.53c9.11,0,18.23.02,27.34,0,4.17-.01,8.34-.09,12.51-.15.09.87.26,1.73.26,2.6.01,20.38.02,40.77,0,61.15,0,.95-.3,1.9-.44,2.87-7.22.06-14.44.11-21.66.17,0-3.73.07-7.47.02-11.2-.05-3.67.27-7.37-.25-11.33h-21.96v-21.71c-7.59,0-14.8,0-22.02,0,0-3.73.05-7.47,0-11.2-.06-3.67.26-7.37-.2-10.99h-43.91v22.21c-.43-.06-.87-.18-1.3-.18-21.08,0-42.15-.01-63.23,0-.61,0-1.22.21-2.16.39,0,7.28,0,14.4,0,21.52-7.22.06-14.43.12-21.72.19v44.16h21.88v22.17c7.61.14,14.8-.05,22.19.12,0,5.51-.01,10.56,0,15.61.03,9.57.08,19.14.13,28.71h-22.38v21.8c-7.34,0-14.22,0-21.11-.01-.19,0-.37-.21-.57-.31-.1-1.08-.28-2.16-.29-3.24-.03-4.94,0-9.88-.02-14.82,0-1.07-.1-2.14-.15-3.34h-21.86v21.55c.7.11,1.22.25,1.75.25,6.15.02,12.3.03,18.44,0,.74,0,1.47-.31,2.21-.47-.13.74-.36,1.49-.36,2.23-.03,6.31-.03,12.61,0,18.92,0,.63.24,1.26.35,1.88-.75-.11-1.51-.3-2.26-.3-6.04-.02-12.09-.02-18.13,0-.63,0-1.25.13-2,.22v21.57h22.02c0-4.94-.03-9.65.01-14.35.02-2.4.18-4.8.28-7.2.87-.08,1.73-.24,2.6-.24,13.82,0,27.64,0,41.46,0-.04,1.21-.11,2.41-.11,3.62,0,12.32,0,24.64-.01,36.96,0,1.16-.1,2.32-.16,3.73H45.2v132.41h110.47c0-7.59,0-14.94,0-22.3.74.14,1.48.39,2.22.39,5.8.03,11.61.03,17.41,0,.74,0,1.48-.25,2.22-.38.11,7.43.21,14.87.32,22.26,5.29.6,19.63.39,21.83-.27v-21.6c-5.91,0-11.61.02-17.3-.02-1.63-.01-3.27-.21-4.9-.32.08-1.2.23-2.39.24-3.59.03-5.05,0-10.1.02-15.14,0-.95.13-1.9.21-3.04,3.88,0,7.49,0,11.1,0h10.86c3.73,0,7.46.02,11.19,0,3.56-.02,7.14.1,10.88-.09,0-6.48.02-12.51-.02-18.54,0-1.3-.22-2.6-.33-3.91.97.13,1.94.36,2.91.36,5.7.03,11.4.03,17.1,0,.86,0,1.72-.22,2.57-.34v22.49h21.74c.04,7.13.08,14.25.1,21.38,0,.17-.25.34-.67.86h-42.99c-.73,4.11-.56,41.64.24,44.28h21.57c0,7.58,0,14.8,0,22.02h-21.84c-.7,4.53-.52,19.66.26,22.17,1.33,0,2.74-.01,4.16,0,5.81.07,11.61.15,17.42.23-.02.33-.06.66-.06.99,0,35.64,0,71.28,0,106.92,0,.73.16,1.46.24,2.15,5.57.68,41.59.42,43.99-.35,0-1.59-.01-3.23,0-4.88.05-5.38.12-10.77.17-16.17.74-.12,1.48-.34,2.22-.34,13.03-.02,26.07-.02,39.1,0,.85,0,1.7.24,2.56.36.1,7.11.19,14.21.29,21.41h21.8v-21.55c-.66-.1-1.08-.22-1.51-.22-6.16-.01-12.31-.03-18.47,0-.74,0-1.47.29-2.21.45.09-.87.27-1.74.27-2.61.02-13.3.01-26.6,0-39.9,0-.63-.13-1.26-.19-1.84-3.88-.68-19.39-.53-22.05.28v21.47h-21.98c0,2.25-.02,4.2,0,6.15.08,5.49.18,10.97.27,16.46-1.17-.16-2.34-.45-3.51-.46-5.26-.05-10.53-.01-15.8-.03-.94,0-1.88-.15-3.1-.25v-4.15c0-26.55,0-53.1-.01-79.66,0-1.41-.21-2.82-.32-4.22,7.51,0,15.02,0,22.53,0v43.86h22.07v-21.88h44.23v21.58c4.07.78,41.74.61,44.34-.23v-21.6h22.01v44.39h-22.16v22.2h-21.65c-.7,3.82-.58,19.51.1,21.82h65.87c0-4.54,0-8.92,0-13.29,0-4.4,0-8.79,0-13.19,0-4.4,0-8.79,0-13.19s0-8.79,0-13.19c.01-4.35.05-8.69.07-13.16,7.38,0,14.28,0,21.19.01.19,0,.38.2.59.29.07,1.2.19,2.4.19,3.6.01,12.19,0,24.37.02,36.56,0,1.16.11,2.31.17,3.5h22.05v-22h3.66c7.9,0,15.81.02,23.71,0,5.7-.02,11.41-.09,17.11-.13-.08.43-.24.85-.24,1.28-.02,6.44-.03,12.89,0,19.33,0,.74.29,1.48.44,2.21-.63-.15-1.26-.44-1.9-.44-6.38-.03-12.75-.02-19.13,0-.5,0-1,.24-1.43.36-.55,5.8-.35,19.15.3,21.46h21.54c.06-1.24.14-2.32.14-3.39.01-4.95-.02-9.9.03-14.85,0-1.06.26-2.13.4-3.19.52-.14,1.03-.39,1.55-.4,6.14-.02,12.29-.02,18.43,0,.5,0,1,.24,1.78.44v21.29c5.75.62,41.62.38,43.94-.27,0-7.11,0-14.23,0-21.35,7.4-.09,14.8-.19,22.16-.28v-22.12h-22.17c.06-7.22.12-14.44.17-21.65,1.08-.12,2.15-.34,3.23-.35,5.27-.04,10.55,0,15.82-.03.95,0,1.91-.14,3.11-.23.12-7.41-.04-14.59.09-21.72h22.04v21.97h22.16v22.05c2.94,0,5.55.03,8.16,0,4.49-.07,8.97-.19,13.46-.29l-.05-.05c.16,1.29.45,2.57.45,3.86.03,12.3.02,24.6.02,36.89v3.62h22.26v-21.43c.63-.18.93-.33,1.24-.33,6.37-.02,12.73-.03,19.1,0,.41,0,.81.25,1.23.38.14,1.06.4,2.13.41,3.19.04,4.95.01,9.9.03,14.85,0,1.07.09,2.15.14,3.36h21.84v-21.54c-.61-.11-1.03-.25-1.45-.25-6.27-.02-12.53-.03-18.8,0-.74,0-1.48.29-2.23.45.16-1.18.46-2.36.47-3.54.05-5.39.01-10.77.03-16.16,0-.94.14-1.89.24-3.1h43.64c.69-4.7.47-63.7-.3-66.35h-21.39c0-14.85,0-29.35,0-43.85,5.8-.1,11.61-.2,17.41-.29,1.4-.02,2.81,0,4.42,0v-44.29c-3.48,0-6.75.04-10.02-.01-3.94-.06-7.87-.2-11.81-.31,0-3.63.01-7.26-.01-10.88-.03-3.58.12-7.17-.11-11h-22.03c-.12-7.44.04-14.63-.1-22.15h-44.01v-22.03h21.98c.12-7.56-.05-14.75.11-22.28h21.79v-44.15h-4.06c-19.34,0-38.68,0-58.02,0-1.31,0-2.63-.11-3.94-.17v-21.87h22.08c3.74,0,7.47.02,11.21,0,3.57-.02,7.15.11,10.99-.11v-21.98c7.45-.3,14.64.1,21.9-.24,0-7.27,0-14.08-.02-20.89,0-.4-.3-.8-.44-1.18,7.6.06,15.19.13,22.79.19v21.99c7.39.03,14.54.03,21.74.01v-21.91h-21.83c-.05-7.58-.1-15.15-.15-22.72.85.13,1.71.36,2.56.37,5.7.03,11.4.02,17.1,0,.73,0,1.47-.13,2.15-.19.67-4.14.51-19.34-.25-21.84h-21.46v21.74c-1.08.1-2.17.27-3.25.28-5.27.03-10.54,0-15.81.02-.94,0-1.89.15-3.1.25v3.5c0,5.05.02,10.1-.02,15.15,0,1.06-.27,2.12-.41,3.19h-21.36v-66.41h21.63c.07-1.2.16-2.06.16-2.92.01-5.39.02-10.78-.01-16.16,0-.97-.23-1.93-.35-2.9h22.19c.65-4.4.49-19.63-.18-22.03h-21.66c0,2,.02,3.83,0,5.67-.08,5.48-.18,10.95-.27,16.43-7.19-.04-14.38-.08-21.59-.13-.08-1.09-.17-1.75-.17-2.4,0-13.05-.01-26.11,0-39.16,0-.75.19-1.5.29-2.26,1.07-.12,2.15-.33,3.22-.34,5.28-.04,10.56,0,15.84-.03.83,0,1.65-.18,2.48-.28v-21.75h-21.63c-.08,1.02-.2,1.87-.2,2.73-.02,5.61-.03,11.22,0,16.83,0,.97.23,1.94.36,2.91-1.18-.15-2.36-.41-3.54-.42-5.27-.05-10.54-.01-15.81-.03-.96,0-1.91-.12-3.27-.21v-21.81h-22.05v22.03c-1.58,0-2.77-.01-3.95,0-6.14.06-12.28.13-18.42.2.55-5.17.34-19.88-.33-22.2h-21.28v22.21c-7.3-.04-14.6-.08-21.91-.1-.3,0-.61.21-.92.32.14-.97.38-1.94.39-2.9.04-5.61.03-11.22,0-16.83,0-.85-.12-1.7-.2-2.72h-66.07v21.96c-7.61.21-14.8-.06-22.21.16,0,7.57,0,14.71,0,21.84-6.78.03-13.55.07-20.33.07-.41,0-.81-.23-1.22-.35-.16-1.06-.45-2.11-.46-3.17-.05-5.17-.01-10.33-.03-15.5,0-.93-.15-1.86-.26-3.09h-21.91c0-1.51,0-2.69,0-3.87,0-17.47,0-34.95,0-52.42,0-3.41-.07-6.81-.1-10.22,7.53,0,15.07,0,22.6,0-.1.76-.29,1.51-.29,2.27-.02,13.2-.02,26.4,0,39.6,0,.74.1,1.48.16,2.16,4.07.67,19.41.53,21.88-.22,0-4.01.01-8.07,0-12.13-.03-10.56-.08-21.11-.12-31.67,7.32.09,14.64.17,22.39.27v21.9h21.64c.64-4.33.45-41.57-.29-44.2h-21.1c-.69-5.39-.43-63.78.34-66.37,7.04,0,14.16,0,21.29,0,.05,14.69.11,29.38.16,44.32,4.01,0,7.62-.02,11.23,0,3.57.02,7.15-.09,10.99.09v66.18h21.52c.73-3.68.58-152.28-.11-154.53h-21.58v44.02h-22.31c.06-.65.19-1.31.19-1.96.01-13.3.01-26.61,0-39.91,0-.73-.17-1.45-.26-2.19h-21.7c-.22,7.38.1,14.57-.19,22.07h-22.09c0,3.94,0,7.54,0,11.14v10.88c0,3.74.02,7.48,0,11.21-.03,3.57.13,7.15-.12,10.93-1.63,0-2.82,0-4.02,0-12.2,0-24.4,0-36.6.01-1.2,0-2.4.16-3.6.25.03-7.08.07-14.16.08-21.24,0-.52-.21-1.05-.32-1.57.75.11,1.5.32,2.25.32,6.15.03,12.29.02,18.44,0,.52,0,1.03-.15,1.64-.24v-21.51c-.7-.12-1.23-.28-1.75-.28-6.15-.02-12.29-.03-18.44.01-.73,0-1.45.36-2.16.54Zm4.76,391.64c1-1.07,1.82-2.37,3.37-2.84.24.43.45.7.55,1,1.46,4.34,3.28,5.54,7.82,5.14,5.53-.49,11.31-6.08,12.9-12.72-3.07,3.55-4.5,8.33-9.21,10.12-1.29-1.9-.35-3.31.2-4.65,3.2-7.83,6.48-15.63,9.71-23.44.44-1.05.78-2.14,1.33-3.67-3.31,0-6.04.09-8.77-.03-2.46-.11-4.65.03-5.39,3.48-1.99-4.36-5.36-4.59-8.85-3.87-2.11.44-4.25,1.25-6.08,2.38-6.42,3.99-10.52,9.87-12.86,16.98-.86,2.63-1.03,5.37-.5,8.14.68,3.59,2.68,6,6.19,6.98,3.4.95,6.55.59,8.94-2.41.22-.2.44-.39.66-.59Zm-76.6-.11s.06-.1.08-.15c.63-.59,1.27-1.18,2.32-2.17-.05,1.07.03,1.43-.1,1.68-3.27,6.56-4.6,14.29-11.67,18.81.68.2.96.33,1.25.36,5.7.51,10.24-2,14.21-5.71,3.83-3.58,6.56-7.96,8.4-12.86,3.49-9.25,6.92-18.51,10.36-27.78.32-.88.5-1.81.85-3.13-3.03,0-5.65.08-8.26-.02-2.41-.09-4.65-.04-5.47,3.54-1.85-4.51-5.12-4.5-8.51-4.05-3,.4-5.71,1.61-8.09,3.46-5.19,4.02-8.77,9.19-10.75,15.44-.94,2.97-1.16,6.03-.46,9.11.71,3.15,2.59,5.27,5.6,6.39,4.12,1.53,7.49.36,10.24-2.93Zm-41.38-2.42c.5-.16,1-.33,1.69-.56.18.73.3,1.35.5,1.94.97,2.98,2.68,4.47,5.78,4.42,1.93-.03,4-.33,5.73-1.12,4.86-2.22,7.19-6.63,9.17-11.23q-7.08,9.02-9.76,9.47c-.87-1.85.25-3.41.88-4.95,3.09-7.63,6.29-15.22,9.43-22.83.43-1.04.75-2.13,1.21-3.47h-12.28c-.65.99-1.22,1.88-2.03,3.12-1.52-4.23-4.7-4.31-7.97-3.86-3.57.49-6.69,2.09-9.41,4.43-3.54,3.04-6.37,6.65-8.42,10.85-.35.71-.82,1.35-1.59,2.59-.15-1.36-.29-1.99-.29-2.61-.01-10.21-.02-20.43.01-30.64,0-.74.26-1.47.41-2.21,1.2-.09,2.39-.25,3.59-.25,11.55-.02,23.09,0,34.64-.02,1.05,0,2.1-.1,3.96-.2-1.37-1.19-2.24-1.81-2.95-2.58-2.67-2.94-2.54-7.22.25-9.78,1.81-1.67,4.21-2.08,6.43-1.01,2.28,1.1,3.53,2.92,3.55,5.49.02,2.46-1.04,4.2-3.43,5.07-.65.24-1.23.66-2.16,1.16,2.9,1.91,5.26,1.08,7.25-.54,1.5-1.22,2.84-2.83,3.74-4.53,1.94-3.69,3.56-7.55,5.27-11.35.28-.62.36-1.33.54-2-.22-.16-.44-.31-.67-.47-.67.84-1.27,1.76-2.02,2.52-2.84,2.85-6.23,3.61-10,2.24-3.73-1.36-5.36-4.32-5.83-8.09-1.23-9.94,8.41-23.76,18.17-25.99.43-.1.86-.17,1.3-.25,3.46-.59,6.6-.33,8.38,3.16,1.11-.97,2.05-2.5,3.13-2.6,3.46-.33,6.96-.12,10.91-.12-.43,1.5-.67,2.53-1.03,3.52-1.34,3.72-2.7,7.44-4.1,11.14-2.17,5.76-4.25,11.56-6.58,17.26-3.05,7.47-7.72,13.54-15.46,16.74-.29.12-.49.48-1.11,1.12,30.05,0,59.51,0,88.96,0,.54,0,1.09-.09,1.63-.17.08-.01.16-.14.22-.22.06-.08.08-.18.18-.39-.61-.69-1.29-1.39-1.88-2.16-1.35-1.77-1.73-3.78-1.28-5.93.73-3.43,4.11-5.57,7.48-4.76,3.51.84,5.24,4.06,3.99,7.7-.38,1.11-1.21,2.06-1.78,3.12-.27.51-.41,1.09-.69,1.89,2.67.29,4.52-.66,5.51-2.62,1.23-2.43,2.28-5,2.98-7.63,3.07-11.58,4.98-23.45,9.12-34.75.13-.35-.04-.8-.06-1.09-1.91-.99-4.12.47-5.78-1.17.89-2.27,2.79-1.65,4.29-1.55,2.27.14,3.59-.63,4.66-2.7,2.78-5.35,6.68-9.79,11.68-13.22.41-.28.77-.65,1.26-1.07-2.78-.79-183.2-.86-186.27-.14-.73,3.52-.57,31.65.3,34.2.59-1.14,1.09-2.08,1.57-3.03,2.64-5.23,6.43-9.41,11.45-12.46,2.41-1.46,5.02-2.25,7.82-2.25,2.01,0,3.95.36,5.25,2.19.33.47.76.87,1.39,1.57.75-2.93,2.58-3.34,4.9-3.18,2.19.16,4.4,0,6.59.06.7.02,1.39.27,2.35.46-.49,1.29-.85,2.31-1.26,3.3-3.11,7.52-6.26,15.02-9.35,22.55-.65,1.57-1.57,3.13-1.15,5.38,2.88-.21,4.31-2.17,5.7-4.03,1.45-1.94,2.69-4.03,4.03-6.05.18.12.36.24.54.36-1.35,2.83-2.72,5.7-5.03,7.88-1.64,1.55-3.54,3.07-5.61,3.88-5.55,2.17-9.02.31-10.81-5.3-.03-.09-.15-.15-.35-.33-.85.52-1.75,1.08-2.66,1.63.83-1.28,1.87-2.48,2.46-3.87,2.38-5.55,4.67-11.13,6.89-16.74.6-1.52,1.03-3.15,1.24-4.77.09-.7-.41-1.82-.98-2.17-.55-.33-1.8-.17-2.31.27-.97.83-1.77,1.94-2.42,3.07-3.94,6.88-7.11,14.11-9.66,21.61-.39,1.14-.75,2.31-.92,3.5-.26,1.75.79,2.66,2.32,1.86,1.31-.69,2.34-1.9,3.5-2.89-.9,4.52-8.79,6.65-13.21,3.05-.8-.65-1.56-1.37-2.63-2.32-.16.93-.32,1.43-.32,1.93-.02,5.14-.03,10.27,0,15.41,0,.85.29,1.7.44,2.54-1.9-.45-3.77-.4-5.87-.08,3.99,5.72,4.33,10.33,1.35,15-2.43,3.8-5.87,5.73-9.26,5.21,6.68-3.95,7.87-5.69,6.44-9.44-4.3.77-6.46.14-7.7-2.4-1.46-2.99-.09-5.66,1.35-8.31-1.39-.24-2.53-.44-3.92-.68,0-2.25,0-4.33,0-6.41,0-2.09,0-4.18,0-6.27,0-2.09.09-4.18-.03-6.27-.11-1.95.57-4.02-.82-6.34-.69,1.34-1.18,2.28-1.66,3.22-1.3,2.54-2.51,5.14-3.93,7.62-2.19,3.83-4.79,7.37-8.13,10.32-3.45,3.05-7.48,3.12-11.94,2.71-.07-1.3-.18-2.37-.18-3.44,0-17.49,0-34.97.02-52.46,0-1.54-.05-3.1.22-4.6.29-1.64.93-3.23,1.44-4.93h-20.37c1.87.88,2.28,2.46,2.44,4.14.16,1.75.28,3.51.28,5.27.02,15.95.01,31.89,0,47.84,0,1.1-.01,2.2-.09,3.3-.29,3.9-1.13,4.78-4.92,5.27-.91.12-1.83.25-2.74.37,0,.25-.02.5-.02.76,1.12.08,2.24.22,3.36.22,8.36.02,16.71,0,25.07.03.82,0,1.89-.44,2.75.89-1.4.17-2.47.28-3.54.44-2.63.4-3.35,1.11-3.66,3.82-.15,1.31-.19,2.63-.19,3.95-.01,18.15-.02,36.29,0,54.44,0,.95.15,1.9.23,2.82,5.78.86,10.6-.24,14.14-4.81,2.02-2.6,4.01-5.23,5.72-8.04,1.65-2.72,2.89-5.68,4.35-8.51.36-.7.9-1.31,1.35-1.96l.76.19c.05,8.14.09,16.28.14,24.32,4.73.73,14.49.54,16.99-.34,0-1.97,0-4.04,0-6.12,0-2.09-.08-4.18.06-6.27.13-1.95-.54-4.03.59-6,6.35,6.01,13.31,5.12,16.87-1.97,0,0-.11.11-.11.11Zm-152.05-257.07c.71-7.4.38-152.24-.31-154.61-7.32-.68-151.77-.35-154.15.35-.69,6.51-.37,151.87.36,154.26h154.11Zm.03,420.78H45.37c-.69,3.94-.53,152.1.13,154.41,6.39.64,151.81.34,154.19-.32v-154.08Zm575.1-420.81v-154.53h-154.32c-.64,5.88-.37,152.06.28,154.53h154.04Zm-.15,309.81c.65-4.39.46-85.76-.17-88.16h-21.29v88.16h21.46ZM221.95,213.95c.1,7.45-.19,14.63.21,21.85h43.67c.68-3.78.53-19.38-.2-21.85h-43.67Zm88.5,21.94c.05-7.5.05-14.68,0-21.85h-21.76c-.62,4.15-.47,19.38.22,21.85h21.52Zm464.37,155.18c-5.88-.56-19.34-.37-21.66.26-.58,5.67-.34,19.28.38,21.52,5.65.54,18.91.33,21.29-.35v-21.42Zm-386.92,170.19c2.17.59,3.41-.17,4.36-1.26,1.22-1.4,2.58-2.82,3.31-4.48,2.56-5.84,4.93-11.76,7.23-17.7.58-1.51.8-3.21.86-4.84.03-.7-.61-1.8-1.21-2.05-.58-.23-1.74.2-2.24.73-1.04,1.11-1.94,2.4-2.67,3.74-3.85,7.07-6.77,14.54-9.12,22.24-.34,1.1-.33,2.31-.51,3.62Zm-67.62-30.26c.8.28,1.09.49,1.37.47,7.69-.65,13.11-10.13,9.77-17.07-.97-2.01-2.28-3.45-4.83-3.12-1.3.17-2.63-.02-3.95.07-.62.04-1.33.22-1.8.59-1.55,1.21-2.09,4.96-1.13,7.1.95,2.1,2.95,3.21,5.36,2.93.84-.1,1.68-.27,2.99-.48-.11,1.41.05,2.63-.34,3.65-1.21,3.18-4.04,4.62-7.44,5.87Zm166.97,115.52c.45-1.1.76-2,1.18-2.85.43-.88,1.06-1.67,1.41-2.58,1.16-3.04.14-5.92-2.52-7.33-2.71-1.44-6.06-.64-7.89,1.9-1.75,2.43-1.53,6.16.41,8.57,1.96,2.43,4.5,2.86,7.4,2.29Zm-108.24-1.78c.57-.2.97-.32,1.36-.48,2.91-1.14,4.15-3.12,3.82-6.09-.29-2.58-2.26-4.7-4.82-5.16-2.8-.5-5.31.76-6.55,3.28-2.23,4.53.9,9.93,6.01,10.33.16.01.34-.19.55-.32-.1-.4-.19-.81-.38-1.57Z"/><path class="cls-2" d="m819,169.55c-1.32,0-2.64.03-3.96.03-269.81,0-539.62,0-809.43,0H1.16c-.69,2.74-.92,813.22-.29,818.27.66.1,1.38.25,2.11.32.54.05,1.1.01,1.65.01,270.69,0,541.38,0,812.07,0,.77,0,1.54,0,2.31,0v170.32H0V0h819v169.55Z"/><path class="cls-2" d="m686.08,899.47c-4.49.1-8.97.22-13.46.29-2.61.04-5.21,0-8.16,0v-22.05h-22.16v-21.97h-22.04c-.13,7.13.02,14.32-.09,21.72-1.2.09-2.16.23-3.11.23-5.27.02-10.55,0-15.82.03-1.08,0-2.15.23-3.23.35,0,0,.09.09.09.09v-22.63h-22.09v-22.03c-7.51-.17-14.69.03-22.06-.13v-44c7.21-.57,14.41.07,21.78-.35v-21.88h-21.93c-.03-7.82-.07-15.24-.1-22.67,0,0-.07.1-.07.1,7.13.06,14.25.11,21.38.15.19,0,.38-.2.88-.48.2-6.98-.09-14.17.15-21.27h22.04v21.45c3.99.73,41.59.55,44.15-.21v-2.85c0-27.37,0-54.74,0-82.11,0-1.09-.13-2.19-.2-3.28.64.11,1.29.32,1.93.32,13.52.02,27.04.02,40.56,0,.61,0,1.21-.25,1.95-.41-.01-7.24.08-14.33-.06-21.73h-21.8v-22.36l-.08.1c1.31.06,2.63.17,3.94.17,19.34.01,38.68,0,58.02,0h4.06v44.15h-21.79c-.15,7.53.01,14.72-.11,22.28h-21.98v22.03h44.01c.14,7.52-.02,14.71.1,22.15h22.03c.23,3.83.09,7.42.11,11,.03,3.63,0,7.25.01,10.88l.1-.06c-1.29.13-2.58.38-3.88.38-12.28.03-24.56.01-36.83.03-1.15,0-2.3.12-3.49.18-.07.91-.14,1.45-.14,1.99,0,13.27-.01,26.54,0,39.8,0,.97.22,1.95.34,2.92-.94-.21-1.88-.58-2.82-.59-5.71-.06-11.41-.04-17.12-.02-.74,0-1.49.16-2.61.29,0,7.27-.03,14.43.02,21.55,6.17.6,19.73.37,22.17-.37,0-4.87-.03-9.8.01-14.73.02-2.07.19-4.13.29-6.2,1.04-.19,2.07-.54,3.11-.54,12.57-.04,25.14-.03,37.71,0,1.07,0,2.15.23,3.22.35l-.1-.06v43.85h21.39c.78,2.66.99,61.65.3,66.35h-43.64c-.1,1.21-.24,2.15-.24,3.1-.02,5.39.02,10.77-.03,16.16-.01,1.18-.31,2.36-.47,3.54l.05-.05c-.41-.14-.81-.39-1.22-.39-6.37-.02-12.73-.01-19.1,0-.3,0-.61.16-1.24.33v21.43h-22.26v-3.62c0-12.3.01-24.6-.02-36.89,0-1.29-.3-2.57-.45-3.85.54.11,1.07.31,1.6.32,6.57.02,13.15.01,19.72-.01.39,0,.79-.23,1.12-.33v-21.34c-4.24-.63-19.38-.45-21.97.3,0,.99,0,2.07,0,3.15,0,4.93.02,9.87-.02,14.8,0,1.06-.26,2.12-.41,3.18Zm44.25-43.81c.14,1.06.4,2.12.41,3.19.04,5.27,0,10.53.03,15.8,0,.94.15,1.88.24,2.87h21.72v-21.77h-22.5c.17-.62.49-1.23.5-1.85.03-6.26.03-12.53,0-18.79,0-.5-.25-1.01-.36-1.41h-43.65v21.83c1.38,0,2.56,0,3.74,0,9.67,0,19.33-.01,29,0,3.62,0,7.24.1,10.88.13Zm-132.1-88.47v65.85c3.72.66,63.55.54,65.96-.1.64-4.91.39-63.49-.28-65.75h-65.68Z"/><path class="cls-2" d="m730.38,457.27c.12.97.35,1.93.35,2.9.03,5.39.02,10.78.01,16.16,0,.86-.09,1.71-.16,2.92h-21.63v66.41c7.16,0,14.26,0,21.38,0,.01,0-.08-.06-.08-.06.16.4.46.8.46,1.19.03,6.81.02,13.62.02,20.89-7.26.34-14.45-.06-21.9.24v21.98c-3.84.22-7.42.09-10.99.11-3.74.02-7.47,0-11.21,0h-22.08v21.87l.08-.1c-1.42.09-2.84.26-4.26.26-26.73.02-53.45.01-80.18.01h-4.19c.01,7.59-.18,14.77.15,22.29h21.94v21.96h3.58c4.84,0,9.68.02,14.52-.02,1.41-.01,2.83-.21,4.24-.32-.11,7.42-.22,14.83-.34,22.51h-44l.1.1c-.12-7.29-.24-14.59-.36-22.26-3.11,0-5.94.04-8.76,0-4.48-.07-8.96-.19-13.44-.3l.1.07v-47.4c-5.04,4.95-10.87,5.76-16.82,6.28-2.77.24-2.9.27-3.27,3.09-.3,2.27-.46,4.62-.25,6.89.35,3.79,2.55,5.12,6.24,4.06,2.64-.76,4.61-2.5,6.35-4.53.8-.94,1.62-1.85,2.59-2.62-5.58,11.83-18.42,11.89-24.4,5.76-1.76-1.8-3.06-3.83-3.12-6.36-.06-2.29-.11-4.67.43-6.87,2.68-10.96,13.78-18.87,25-17.72,2.38.24,4.64,1.56,7.17,2.46v-8.99c3.82-.25,7.4-.1,10.97-.13,3.74-.03,7.48,0,11.22,0s7.26,0,10.89,0h11.05v-22.01h-43.91v10.61c-6.52.07-12.7.13-19.43.2,1,1.21,1.66,1.89,2.18,2.66,2.11,3.13,1.15,7.39-2.09,9.15-1.97,1.07-4.01,1.18-5.92-.19-1.65-1.19-2.3-3.37-1.5-5.65.56-1.61,1.48-3.09,2.29-4.72-1.65-.94-2.97-.59-4.07.44-.87.82-1.7,1.77-2.26,2.81-2.26,4.18-3.63,8.65-4.41,13.88h7.79c-.35,2.97-2.27,2.09-3.61,2.2-1.41.12-2.83.03-4.52.03-.37,1.41-.75,2.64-1,3.89-1.84,9.08-3.94,18.11-8.55,26.24-2.15,3.8-4.7,7.46-7.61,10.71-2.07,2.31-4.97,3.92-7.64,5.63-.96.62-2.33.6-3.66.58,3.83-2.53,5-6.44,5.99-10.39,1.37-5.44,2.47-10.94,3.86-16.38,1.36-5.32,2.95-10.59,4.44-15.88.35-1.25.73-2.48,1.21-4.1-2.2-.18-4.1-.34-5.96-.5-.31-1.28.27-1.79,1.26-1.99.32-.06.67-.12.98-.06,3.75.74,5.67-1.1,7.38-4.32,2.83-5.32,7.02-9.54,12.32-12.57.43-.25.8-.6,1.84-1.41h-29.91c-.07-.18-.13-.37-.2-.55.36-.3.67-.69,1.08-.89,4.13-2.08,7.29-5.25,10.06-8.87,4.68-6.12,7.75-13.03,9.85-20.38,1.27-4.44,2.21-8.97,3.29-13.45.26-1.05.52-2.11.73-2.98,2.73-1.55,6.07.68,8.66-1.93-2.61-1.94-5.51-.09-8.02-1.56.83-5,2.22-9.83,4.85-14.2,1.17-1.94,2.88-3.33,5.74-2.42-.32.78-.58,1.44-.88,2.09-.14.3-.37.54-.54.83-1.65,2.9-1.55,5.55.26,7.3,1.65,1.59,4.23,1.8,6.43.52,2.41-1.4,3.72-4.41,2.91-7.1-.37-1.22-1.06-2.35-1.79-3.91h17.89v-31.94h22.27v-22.02h44.18c.12-7.73.24-15.15.36-22.57l-.12.13h21.86v-21.87l-.13.12c6.14-.07,12.28-.13,18.42-.2,1.18-.01,2.37,0,3.95,0v-22.03h22.05v21.81c1.36.09,2.31.21,3.27.21,5.27.02,10.54-.02,15.81.03,1.18.01,2.36.27,3.54.42,0,0-.06-.06-.06-.06-.1.75-.3,1.5-.3,2.25-.02,13.05-.01,26.11,0,39.16,0,.65.09,1.3.17,2.4,7.21.04,14.4.09,21.59.13l-.09-.08Zm-88.17,88.43v-21.91h-21.76v66.05h21.7c.31-7.36-.14-14.56.26-21.93,7.51-.24,14.69.1,21.79-.2.58-6.04.39-19.42-.35-22.01h-21.64Zm44.14-110.41h-21.64v88.06h21.64v-88.06Zm-137.85,118.14c-.99,1.13-1.98,2.27-2.99,3.38-1.73,1.9-3.69,3.46-6.25,4.08-3.42.82-5.35-.37-5.85-3.85-.47-3.28-.33-6.56,1.06-10,6.58-.85,13.55-.91,19.08-6.3.16,1.94.27,3.32.39,4.85h22.02c0-7.38.09-14.56-.06-21.66-5.08-.68-19.74-.47-22.26.34v7.79c-4.37-4.26-9.03-4.36-13.96-3.36-9.68,1.96-18.31,11.68-18.77,21.28-.33,7.04,3.73,12.03,10.7,13.15,7.14,1.15,13.62-2.33,16.88-9.69Zm49.68-52.2c5.02.64,19.58.43,21.85-.26v-21.42h-21.85v21.68Zm-63.49,112.13c.21.18.42.36.63.55.52-.12,1.09-.13,1.55-.36,5.12-2.63,8.06-6.92,9.35-12.44.12-.52.11-1.1.05-1.64-.17-1.52-1.17-2.06-2.55-1.36-.48.24-.92.61-1.27,1.02-3.62,4.21-5.6,9.27-7.75,14.24Z"/><path class="cls-2" d="m177.42,545.82c.1,2.6.29,5.21.27,7.81-.02,4.68-.17,9.35-.26,14.03l.07-.06c-6.03.08-12.05.15-18.08.22-1.17.01-2.34,0-3.77,0,.01,7.64-.03,14.81.03,22.31h21.83l-.08-.08c.09,5.91.19,11.83.28,17.74.02,1.29,0,2.58,0,4.29h3.88c10.42,0,20.85.01,31.27,0,2.96,0,5.92-.1,8.87-.16,0,0-.11-.11-.11-.11.11.75.31,1.51.32,2.26.03,5.94.03,11.87,0,17.81,0,.72-.18,1.45-.32,2.46h-65.59c-.69,4.35-.53,19.55.28,22.14h43.24c.64,4.61.46,19.59-.22,21.87h-65.93v-21.79h-21.83c-.06,1.08-.15,1.95-.15,2.81,0,20.23,0,40.45,0,60.68,0,.97.18,1.95.27,2.92-7.42-.12-14.83-.23-22.55-.34v-43.7c-3.95-.66-19.48-.54-21.77.11v65.48c4.72.75,41.54.5,44.02-.34,0-1.22-.01-2.52,0-3.83.06-5.82.12-11.64.19-17.46,7.23-.02,14.46-.04,21.69-.06l-.09-.09c.09,5.93.18,11.85.26,17.78.02,1.29,0,2.59,0,4.37,2.5,0,4.66.03,6.81,0,5.15-.08,10.31-.19,15.46-.29l-.08-.11v22.3H45.2v-132.41h66.06c.06-1.41.16-2.57.16-3.73.01-12.32,0-24.64.01-36.96,0-1.21.07-2.42.11-3.62,0,0-.1.08-.1.08h22.02c0-1.6,0-2.76,0-3.93,0-10.4.01-20.81,0-31.21,0-3.06-.1-6.12-.15-9.19l-.1.1c2.52-.04,5.03-.12,7.55-.12,12.26.02,24.51.07,36.77.11l-.09-.08Z"/><path class="cls-2" d="m199.66,368.62H45.55c-.73-2.38-1.04-147.74-.36-154.26,2.38-.7,146.84-1.03,154.15-.35.69,2.36,1.02,147.21.31,154.61Zm-23.14-131.46h-107.79c-.76,3.24-.67,105.67.07,108.1,5.81.66,105.36.37,107.72-.33v-107.76Z"/><path class="cls-2" d="m199.69,789.4v154.08c-2.38.67-147.81.97-154.19.32-.65-2.31-.82-150.47-.13-154.41h154.32Zm-23.23,131.29v-108.04h-108.01v108.04h108.01Z"/><path class="cls-2" d="m774.79,368.59h-154.04c-.65-2.47-.93-148.65-.28-154.53h154.32v154.53Zm-131.25-23.32h107.98v-108.01h-107.98v108.01Z"/><path class="cls-2" d="m465.19,722.84h22.18v21.97h21.87c.12,1.19.27,2.02.27,2.86.02,12.96.02,25.93,0,38.89,0,1.09-.22,2.17-.33,3.26l.06-.07c-.82-.19-1.64-.54-2.47-.54-12.97-.03-25.94-.03-38.92-.01-.74,0-1.48.17-2.56.3v3.99c0,26.83,0,53.66-.01,80.49,0,1.42-.2,2.83-.3,4.25,0,0,.09-.09.09-.09-.19-.1-.38-.3-.58-.3-6.91-.02-13.81-.01-21.19-.01-.02,4.47-.06,8.81-.07,13.16-.01,4.4,0,8.79,0,13.19s0,8.79,0,13.19c0,4.4,0,8.79,0,13.19,0,4.37,0,8.74,0,13.29h-65.87c-.68-2.3-.8-18-.1-21.82h21.65v-22.2h22.16v-44.39l-.09.09h22.06v-44.29h-66.28v-21.79c1.31-.09,2.62-.25,3.93-.26,12.2-.02,24.4-.01,36.61-.01,1.17,0,2.35,0,3.82,0v-22.16h66.2v-22.13h-22.02v-22.14l-.1.1Z"/><path class="cls-2" d="m334.86,579.11c-.16-.85-.45-1.7-.45-2.55-.04-5.13-.03-10.27,0-15.41,0-.5.16-1,.32-1.93,1.07.95,1.82,1.66,2.63,2.32,4.42,3.59,12.31,1.47,13.21-3.05,0,0-.11.12-.11.12.9-.56,1.8-1.11,2.66-1.63.19.18.32.24.35.33,1.79,5.61,5.26,7.47,10.81,5.3,2.07-.81,3.97-2.33,5.61-3.88,2.31-2.18,3.69-5.06,5.03-7.88-.18-.12-.36-.24-.54-.36-1.33,2.02-2.58,4.11-4.03,6.05-1.39,1.86-2.83,3.82-5.7,4.03-.42-2.25.5-3.81,1.15-5.38,3.09-7.53,6.23-15.03,9.35-22.55.41-1,.77-2.02,1.26-3.3-.96-.2-1.65-.45-2.35-.46-2.2-.05-4.41.1-6.59-.06-2.32-.17-4.15.25-4.9,3.18-.63-.7-1.05-1.11-1.39-1.57-1.3-1.83-3.24-2.2-5.25-2.19-2.8,0-5.42.79-7.82,2.25-5.02,3.05-8.81,7.23-11.45,12.46-.48.95-.98,1.88-1.57,3.03-.87-2.55-1.03-30.67-.3-34.2,3.07-.72,183.49-.65,186.27.14-.49.42-.84.79-1.26,1.07-5,3.43-8.9,7.87-11.68,13.22-1.07,2.07-2.39,2.84-4.66,2.7-1.49-.09-3.4-.72-4.29,1.55,1.65,1.64,3.87.18,5.78,1.17.02.29.19.74.06,1.09-4.14,11.3-6.05,23.18-9.12,34.75-.7,2.63-1.75,5.2-2.98,7.63-.99,1.96-2.84,2.91-5.51,2.62.29-.8.42-1.38.69-1.89.57-1.06,1.4-2.01,1.78-3.12,1.25-3.65-.48-6.87-3.99-7.7-3.37-.81-6.75,1.33-7.48,4.76-.46,2.15-.07,4.17,1.28,5.93.59.77,1.27,1.47,1.88,2.16-.09.21-.12.31-.18.39-.06.09-.14.21-.22.22-.54.07-1.09.17-1.63.17-29.46,0-58.92,0-88.96,0,.62-.64.81-1,1.11-1.12,7.73-3.2,12.4-9.27,15.46-16.74,2.33-5.7,4.41-11.49,6.58-17.26,1.39-3.7,2.75-7.42,4.1-11.14.36-.99.59-2.02,1.03-3.52-3.95,0-7.45-.2-10.91.12-1.08.1-2.02,1.64-3.13,2.6-1.78-3.49-4.93-3.75-8.38-3.16-.43.07-.87.15-1.3.25-9.75,2.23-19.4,16.05-18.17,25.99.47,3.77,2.09,6.73,5.83,8.09,3.77,1.37,7.15.61,10-2.24.76-.76,1.35-1.67,2.02-2.52.22.16.44.31.67.47-.17.67-.26,1.38-.54,2-1.71,3.81-3.33,7.66-5.27,11.35-.9,1.71-2.24,3.31-3.74,4.53-1.99,1.62-4.35,2.45-7.25.54.93-.51,1.51-.93,2.16-1.16,2.39-.87,3.45-2.61,3.43-5.07-.02-2.57-1.27-4.39-3.55-5.49-2.21-1.07-4.62-.65-6.43,1.01-2.78,2.57-2.92,6.85-.25,9.78.7.77,1.58,1.39,2.95,2.58-1.87.1-2.92.2-3.96.2-11.55.01-23.09,0-34.64.02-1.2,0-2.39.17-3.59.25l.09.08Zm134.29-18.76c.88-1.11,1.77-2.22,2.65-3.34,1.4-.4,1.59.57,1.92,1.57,1.25,3.73,2.91,4.83,6.86,4.71,6.03-.18,12.75-6.41,13.7-12.69q-6.43,9.13-9.54,9.69c-.87-1.71.1-3.19.69-4.64,3.16-7.73,6.41-15.43,9.57-23.16.43-1.04,1.37-2.05.56-3.65-2.52,0-5.15.15-7.76-.04-2.67-.19-4.82.21-5.56,3.31-3.05-3.96-4.61-4.62-9.41-3.47-1.99.48-4,1.28-5.73,2.36-6.3,3.97-10.34,9.76-12.67,16.75-.99,2.96-1.25,6.05-.33,9.1.95,3.15,2.87,5.54,6.21,6.17,3.3.62,6.61.62,8.82-2.67Zm-41.42-29.53c.69,2.52-.13,4.11-.79,5.7-3.04,7.42-6.13,14.82-9.18,22.23-.44,1.08-.8,2.19-1.42,3.9,4.2.03,7.89.2,11.57-.13.64-.06,1.41-1.02,1.73-1.74,3.64-8.1,7.21-16.23,10.79-24.35-.1-.06-.19-.12-.29-.18-.51.56-1.01,1.12-1.75,1.95-.28-1.98-.37-3.6-.76-5.15-.97-3.83-3.51-5.38-7.4-4.72-2.61.44-4.83,1.66-6.35,3.79-1.71,2.41-3.17,4.99-4.7,7.53-.25.42-.26.99-.54,2.13,3.42-3.74,4.22-8.74,9.08-10.96Zm16.38,1.07c.19.14.39.29.58.43-.35.89-.75,1.76-1.03,2.66-.85,2.72.09,5.2,2.41,6.52,2.37,1.35,5.05,1.03,6.95-.91,1.99-2.04,2.6-4.52,2.06-7.28-.7-3.59-3.23-5.46-6.88-5.08-2.97.31-5.11,1.81-6.31,4.57-.05.12.12.34.18.5.68-.47,1.36-.94,2.04-1.41Z"/><path class="cls-2" d="m553.66,258h-21.29c-.76,2.6-1.02,60.98-.34,66.37h21.1c.74,2.63.93,39.87.29,44.2h-21.64v-21.9c-7.75-.09-15.07-.18-22.39-.27l.11.11v-21.58c-4.42-.7-19.64-.53-21.86.19,0,7.13,0,14.27,0,21.4l.14-.12c-7.53,0-15.07,0-22.6,0l.11.11c0-22.03,0-44.06,0-66.1l-.11.12c1.2-.09,2.4-.25,3.6-.25,12.2-.02,24.4-.01,36.6-.01,1.19,0,2.39,0,4.02,0,.25-3.78.09-7.36.12-10.93.03-3.74,0-7.48,0-11.21v-10.88c0-3.6,0-7.2,0-11.14h22.09c.29-7.5-.03-14.7.19-22.07h21.7c.09.73.25,1.46.26,2.19.02,13.3.01,26.61,0,39.91,0,.65-.12,1.31-.19,1.96l.09-.09Z"/><path class="cls-2" d="m265.74,457.27c.16-.95.45-1.9.45-2.86.03-20.38.02-40.77,0-61.15,0-.87-.17-1.73-.26-2.6l-.07.08c7.42.1,14.85.13,22.54,0v-21.85l-.09.1c5.93-.07,11.86-.14,17.78-.2,1.3-.01,2.6,0,4.32,0v-22.03h21.93v43.87c-7.07.52-14.27-.09-21.65.34v22.02h21.78v21.91h21.48c.94,2.62,1.08,18.84.28,22.25-.82.05-1.68.14-2.54.14-27.92,0-55.83,0-83.75,0-.77,0-1.54-.07-2.3-.1l.1.09Z"/><path class="cls-2" d="m376.54,413.46c1.29-.14,2.57-.4,3.86-.41,6.02-.04,12.04-.02,18.47-.02v-21.96c1.24-.11,2.09-.25,2.93-.25,5.37-.02,10.75,0,16.12-.02,1.08,0,2.16-.19,3.24-.29-.17,7.43-.23,14.85.03,22.33h21.78v-22.02c-1.53,0-2.83.01-4.13,0-5.92-.07-11.85-.14-17.77-.21,0-7.23-.01-14.47-.02-21.7,0,0-.1.08-.1.08,7.3-.11,14.59-.21,22.25-.33,0-3.13-.04-5.96,0-8.78.07-4.48.2-8.97.3-13.45l-.11.1c7.29,0,14.57,0,21.86,0l-.11-.11c.04,3.41.1,6.81.1,10.22.01,17.47,0,34.95,0,52.42,0,1.18,0,2.37,0,3.87h21.91c.11,1.23.26,2.16.26,3.09.02,5.17-.01,10.33.03,15.5,0,1.06.3,2.11.45,3.18,0,0,.05-.04.05-.04-1.19.14-2.37.39-3.56.4-5.16.04-10.31.02-15.47.02-1.07,0-2.15,0-3.62,0v43.97l.08-.1c-.52.12-1.04.36-1.56.36-6.77,0-13.53-.03-20.3-.06,0,0,.08.07.08.07-.14-1.18-.39-2.36-.4-3.55-.03-12.21-.02-24.42-.02-36.63v-4.06c-11.26,0-22.2,0-33.15,0s-21.93,0-33.13,0c-.12-7.47-.23-14.58-.34-21.69,0,0-.07.09-.07.09Z"/><path class="cls-2" d="m288.33,700.36h22.03v-21.86c7.67.08,14.99-.13,22.31.16l-.09-.1c-.02,14.75-.03,29.51-.05,44.26,0,0,.1-.09.1-.09-7.3.03-14.6.06-22.24.09v22c-7.5.19-14.69-.06-22.14.16v22.02h-22.03v3.81c0,12.19.01,24.39-.02,36.58,0,1.3-.22,2.6-.34,3.89l.09-.08c-7.28,0-14.57,0-21.85,0l.1.09v-22.02h-21.57c-.8-2.65-.97-40.18-.24-44.28h42.99c.42-.52.67-.69.67-.86-.02-7.13-.06-14.25-.1-21.38l-.09.08c7.42-.04,14.84-.08,22.55-.12v-22.43l-.08.09Z"/><path class="cls-2" d="m399.31,302.28c-.11-1.19-.31-2.38-.31-3.57-.02-12.28-.01-24.57-.01-36.85,0-1.17,0-2.34,0-3.78h-21.9c-.1-1.09-.24-1.93-.25-2.77-.02-5.16,0-10.31-.03-15.47,0-1.08-.21-2.15-.31-3.23,0,0-.04.03-.04.03.94-.21,1.88-.6,2.82-.6,13.18-.04,26.36-.03,39.54-.02.63,0,1.26.13,2.21.23v21.58c.93.1,1.56.23,2.18.23,13.29.01,26.58.01,39.87,0,.64,0,1.29-.18,1.94-.27,0,0-.07-.06-.07-.06.11.52.33,1.05.33,1.57-.01,7.08-.05,14.16-.08,21.24,0,0,.11-.12.11-.12h-22.06v3.76c0,19.69,0,39.38,0,59.06,0,1.09.12,2.19.18,3.28l.11-.1c-7.4.08-14.8.17-22.56.26v22.3s.1-.08.1-.08c-7.23-.07-14.45-.13-21.83-.2-.1-1.13-.25-1.98-.25-2.83-.01-12.98-.01-25.96,0-38.94,0-.75.2-1.51.3-2.26,0,0-.08.06-.08.06,7.19-.11,14.38-.22,21.52-.33.59-4.48.42-19.53-.29-22.2h-21.23s.09.08.09.08Z"/><path class="cls-2" d="m199.89,413.22h22.02v21.71h21.96c.51,3.96.19,7.65.25,11.33.05,3.73,0,7.47-.02,11.2,0,0,.1-.1.1-.1-1.32-.02-2.63-.06-3.95-.06-41.62,0-83.23,0-124.85,0-1.32,0-2.63.04-3.95.06l.1.1c-.07-7.38-.15-14.76-.22-22.38-1.72,0-3.02.01-4.32,0-6.01-.06-12.01-.12-18.02-.18l.1.08v-21.52c.94-.18,1.55-.39,2.16-.39,21.08-.02,42.15-.01,63.23,0,.43,0,.87.11,1.3.18l-.11-.11v21.58c4.88.7,41.72.49,44.31-.28v-21.3l-.08.1Z"/><path class="cls-2" d="m421.07,855.43h-22.01v21.6c-2.6.84-40.27,1.01-44.34.23v-21.58h-44.23v21.88h-22.07v-43.86l-.09.06c1.19-.1,2.38-.29,3.57-.29,5.15-.03,10.29,0,15.44-.02.95,0,1.89-.14,3.04-.24.33-7.37-.16-14.54.29-22h21.97v22.29h88.34v22.03l.09-.09Z"/><path class="cls-2" d="m334.77,579.03c-.14.74-.4,1.47-.41,2.21-.03,10.21-.02,20.43-.01,30.64,0,.63.13,1.26.29,2.61.76-1.24,1.24-1.88,1.59-2.59,2.06-4.21,4.88-7.82,8.42-10.85,2.72-2.34,5.85-3.94,9.41-4.43,3.27-.45,6.45-.37,7.97,3.86.81-1.24,1.38-2.12,2.03-3.12h12.28c-.46,1.34-.78,2.43-1.21,3.47-3.14,7.61-6.34,15.2-9.43,22.83-.63,1.54-1.75,3.1-.88,4.95q2.68-.45,9.76-9.47c-1.98,4.6-4.32,9.01-9.17,11.23-1.73.79-3.8,1.09-5.73,1.12-3.09.05-4.81-1.43-5.78-4.42-.19-.59-.31-1.21-.5-1.94-.7.23-1.2.39-1.7.56,2.36-5.56,4.81-11.09,7.04-16.71.97-2.44,1.59-5.03,2.15-7.6.14-.65-.39-1.84-.95-2.14-.55-.3-1.7,0-2.3.44-.76.56-1.3,1.48-1.82,2.31-4.72,7.62-8.07,15.86-10.71,24.4-.16.52-.34,1.06-.39,1.6-.12,1.37.73,2.13,2.04,1.68.8-.27,1.54-.83,2.19-1.38,1-.84,1.91-1.8,2.85-2.71-3.55,7.09-10.52,7.98-16.87,1.97-1.13,1.97-.47,4.05-.59,6-.13,2.08-.05,4.18-.06,6.27,0,2.07,0,4.15,0,6.12-2.5.88-12.26,1.07-16.99.34-.05-8.04-.09-16.18-.14-24.32l-.76-.19c-.46.65-.99,1.26-1.35,1.96-1.46,2.83-2.7,5.79-4.35,8.51-1.7,2.8-3.7,5.44-5.72,8.04-3.54,4.57-8.37,5.67-14.14,4.81-.08-.92-.23-1.87-.23-2.82-.01-18.15-.01-36.29,0-54.44,0-1.32.04-2.64.19-3.95.31-2.71,1.02-3.42,3.66-3.82,1.07-.16,2.14-.27,3.54-.44-.86-1.33-1.93-.89-2.75-.89-8.36-.04-16.71-.02-25.07-.03-1.12,0-2.24-.15-3.36-.22,0-.25.02-.5.02-.76.91-.13,1.83-.26,2.74-.37,3.79-.49,4.63-1.37,4.92-5.27.08-1.1.09-2.2.09-3.3,0-15.95.01-31.89,0-47.84,0-1.76-.12-3.52-.28-5.27-.16-1.68-.57-3.26-2.44-4.14h20.37c-.52,1.71-1.15,3.29-1.44,4.93-.27,1.5-.22,3.07-.22,4.6-.02,17.49-.02,34.97-.02,52.46,0,1.07.11,2.14.18,3.44,4.46.41,8.49.34,11.94-2.71,3.34-2.95,5.94-6.48,8.13-10.32,1.42-2.48,2.63-5.07,3.93-7.62.48-.94.97-1.89,1.66-3.22,1.39,2.32.71,4.39.82,6.34.12,2.08.03,4.18.03,6.27,0,2.09,0,4.18,0,6.27,0,2.08,0,4.15,0,6.41,1.38.24,2.53.44,3.92.68-1.43,2.65-2.81,5.32-1.35,8.31,1.24,2.54,3.4,3.17,7.7,2.4,1.43,3.74.25,5.49-6.44,9.44,3.39.53,6.83-1.41,9.26-5.21,2.98-4.66,2.64-9.28-1.35-15,2.1-.32,3.97-.37,5.88.09,0,0-.09-.07-.09-.07Z"/><path class="cls-2" d="m111.55,545.92c-.04-9.57-.09-19.14-.13-28.71-.02-5.05,0-10.09,0-15.61-7.38-.17-14.58.02-22.19-.12v-22.17h-21.88v-44.16c7.29-.06,14.5-.12,21.72-.19,0,0-.1-.08-.1-.08.08,1.2.23,2.4.23,3.6.03,5.28,0,10.55.02,15.83,0,.94.16,1.88.25,2.97,1.64,0,2.95,0,4.26,0,5.93.05,11.86.11,17.79.16l-.1-.1v21.97c4,0,7.6,0,11.21,0h10.89c3.74,0,7.48-.04,11.22.01,3.58.04,7.17-.21,10.68.18v44.12h-21.96c0,1.93.02,3.55,0,5.16-.08,5.71-.18,11.42-.27,17.13,0,0,.1-.1.1-.1-7.29,0-14.57,0-21.86,0l.11.11Z"/><path class="cls-2" d="m553.57,258.09h22.31v-44.02h21.58c.69,2.26.84,150.86.11,154.53h-21.52v-66.18c-3.84-.19-7.42-.07-10.99-.09-3.61-.02-7.23,0-11.23,0-.05-14.94-.11-29.63-.16-44.32,0,0-.09.09-.09.09Z"/><path class="cls-2" d="m509.51,434.96v-21.84c7.41-.23,14.6.04,22.21-.16v-21.96h66.07c.08,1.02.2,1.87.2,2.72.02,5.61.03,11.22,0,16.83,0,.97-.25,1.94-.39,2.9l.06-.06c-1.08-.12-2.15-.33-3.23-.34-4.95-.04-9.9-.02-14.85-.02-1.07,0-2.15,0-3.58,0v21.9h-22.01c-.45,3.85-.18,7.44-.23,11.01-.05,3.62-.01,7.24-.01,11.27-7.44.04-14.66.09-21.87.13l.08.1c-.08-1.2-.23-2.4-.24-3.6-.03-5.27,0-10.55-.02-15.82,0-.94-.16-1.88-.26-2.96-2.19,0-4.05.02-5.91,0-5.38-.05-10.75-.12-16.13-.18l.1.08Z"/><path class="cls-2" d="m265.65,457.18c.19.94.55,1.88.55,2.82.03,20.3.03,40.59.02,60.89,0,.75-.11,1.5-.19,2.57h-21.78c-.08,7.73-.15,15.13-.23,22.53l.1-.1c-2.41-.04-4.81-.1-7.22-.1-19.82,0-39.64.02-59.46.03,0,0,.09.08.09.08.11-7.32.22-14.64.33-22.39h44.04c0-7.23,0-14.02-.02-20.82,0-.28-.28-.56-.43-.85l-.06.06c1.19-.12,2.38-.34,3.57-.35,5.37-.04,10.74,0,16.11-.03.94,0,1.89-.14,3.06-.23,0-1.45,0-2.64,0-3.83.02-13.37.05-26.74.07-40.12,0,0-.1.1-.1.1,7.22-.06,14.44-.11,21.65-.17,0,0-.1-.1-.1-.1Z"/><path class="cls-2" d="m509.64,700.1c.62.17,1.23.48,1.85.48,6.15.03,12.3.02,18.45,0,.43,0,.85-.13,1.72-.28.02-4.77.05-9.55.06-14.34.01-4.94,0-9.89,0-14.83v-14.8c1.66,0,2.95.01,4.24,0,5.92-.07,11.84-.15,17.76-.23,0,0-.1-.07-.1-.07.08,7.41.16,14.81.24,22.56h22.31l-.1-.1v22.14h-22.32c0,3.62,0,6.8,0,9.97-.04,11.33-.08,22.66-.12,33.98,0,0,.07-.1.07-.1-.63.13-1.26.38-1.9.38-6.03.03-12.06.02-18.1,0-.53,0-1.05-.12-1.89-.23v-21.77c-3.86-.2-7.44-.08-11-.1-3.61-.02-7.21,0-11.18,0-.16-7.74-.32-15.25.08-22.77l-.09.09Z"/><path class="cls-2" d="m532.2,922.46c-.16-.74-.45-1.48-.45-2.21-.03-6.44-.02-12.89,0-19.33,0-.43.16-.85.24-1.28l-.12.12h21.86v-21.87l-.12.12c.97-.1,1.94-.28,2.91-.28,12.79-.02,25.59-.02,38.38,0,1.06,0,2.13.28,3.19.43,0,0-.09-.09-.09-.08-.05,7.22-.11,14.44-.17,21.66l.09-.08h-21.77v22.32c1.37,0,2.55-.01,3.72,0,6.01.07,12.03.15,18.04.22l-.09-.07v21.35c-2.32.65-38.19.89-43.94.27v-21.29c-.79-.2-1.28-.44-1.78-.44-6.14-.03-12.29-.03-18.43,0-.52,0-1.03.26-1.55.4l.05.05Z"/><path class="cls-2" d="m265.88,833.68c.11,1.41.32,2.82.32,4.22.02,26.55.01,53.1.01,79.66v4.15c1.22.1,2.16.25,3.1.25,5.26.02,10.53-.02,15.8.03,1.17.01,2.34.3,3.51.45,0,0-.08-.1-.08-.1-.06,5.38-.13,10.77-.18,16.15-.02,1.64,0,3.29,0,4.88-2.39.77-38.41,1.03-43.99.35-.08-.68-.24-1.41-.24-2.15,0-35.64,0-71.28,0-106.92,0-.33.04-.66.06-.99l-.09.06c2.39-.1,4.77-.3,7.16-.29,4.9.03,9.79.17,14.68.27l-.06-.05Z"/><path class="cls-2" d="m221.62,700.23c.12,1.3.32,2.6.33,3.91.04,6.03.02,12.06.02,18.54-3.74.18-7.32.07-10.88.09-3.73.02-7.46,0-11.19,0h-10.86c-3.61,0-7.23,0-11.1,0-.08,1.14-.21,2.09-.21,3.04-.02,5.05,0,10.1-.02,15.14,0,1.2-.15,2.39-.24,3.59l.05-.06c-.74.13-1.48.37-2.22.38-5.8.03-11.61.03-17.41,0-.74,0-1.48-.25-2.22-.39,0,0,.08.11.08.11-.06-7.19-.12-14.38-.18-21.86h-22.36l.09.09c.1-7.3.19-14.6.29-22.22h4.26c26.55,0,53.09,0,79.64,0,1.42,0,2.84-.14,4.25-.22l-.12-.15Z"/><path class="cls-2" d="m244.1,302.17v-21.73h-21.36c-.91-2.53-1.15-17.02-.48-21.86,2.36-.63,61.54-.8,66.1-.13v3.44c0,12.2,0,24.4,0,36.61,0,1.21.08,2.41.12,3.62l.09-.11c-.75.11-1.5.3-2.25.3-13.46.02-26.92.02-40.38,0-.65,0-1.29-.16-1.94-.24l.09.1Z"/><path class="cls-2" d="m399.33,722.84c-.12-.86-.33-1.72-.33-2.58-.02-13.09-.02-26.18,0-39.27,0-.65.09-1.31.16-2.28h21.77c.24-3.86.1-7.45.12-11.02.03-3.62,0-7.24,0-11.34,14.81,0,29.36-.01,44.08,0v22.07h-21.27c-.75,2.72-.96,16.16-.44,21.92l.11-.07c-1.19.12-2.38.32-3.57.33-5.15.04-10.3,0-15.45.02-1.07,0-2.13.1-3.57.17v21.94h-21.72l.12.1Z"/><path class="cls-2" d="m355.28,236.46c-.18,1.27-.52,2.53-.52,3.8-.03,19.24-.02,38.48-.02,57.72v4.12h-22.07c-.22-7.09.05-14.27-.15-21.8h-21.79v-44c.8-.09,1.64-.27,2.47-.27,12.97-.02,25.94-.02,38.91,0,1.08,0,2.15.31,3.22.47,0,0-.06-.05-.06-.05Z"/><path class="cls-2" d="m376.49,478.84c.11,1.53.31,3.05.32,4.58.04,4.84.02,9.68,0,14.52,0,1.07-.09,2.14-.15,3.4h-87.79c-.65-2.4-.79-17.86-.14-22.03h3.77c26.72,0,53.45,0,80.17-.02,1.29,0,2.57-.26,3.87-.39,0,0-.06-.06-.06-.06Z"/><path class="cls-2" d="m221.6,590.15c10.98-.04,21.96-.09,32.94-.12,3.73-.01,7.46,0,11.65,0v-10.23c2.08.16,3.68.24,5.26.42,1.64.19,2.57,1.25,2.78,2.81.22,1.63.32,3.28.33,4.92.02,16.59.02,33.18,0,49.76,0,1.42-.07,2.86-.25,4.27-.25,1.98-1.42,3.15-3.44,3.4-1.4.17-2.8.35-4.4.55-.2,3.47-.39,6.82-.58,10.17l.06-.05c-4.89.09-9.79.23-14.68.25-2.38.01-4.77-.18-7.16-.27l.09.09v-21.92h22.07c0-7.48.08-14.67-.05-22.14-1.64,0-2.84,0-4.03,0-12.21,0-24.41,0-36.62-.01-1.31,0-2.62-.17-3.93-.26l.11.11c0-7.29,0-14.58,0-21.87l-.14.11Z"/><path class="cls-2" d="m531.99,899.63c-5.7.05-11.41.12-17.11.13-7.9.02-15.81,0-23.71,0h-3.66v22h-22.05c-.06-1.19-.16-2.35-.17-3.5-.01-12.19,0-24.37-.02-36.56,0-1.2-.13-2.4-.2-3.59,0,0-.09.09-.1.1,1.06-.16,2.12-.48,3.18-.48,20.3-.03,40.61-.03,60.91,0,.98,0,1.95.18,2.93.28l-.14-.13c0,7.29,0,14.58,0,21.87l.12-.12Z"/><path class="cls-2" d="m774.64,678.4h-21.46v-88.16h21.29c.63,2.41.82,83.77.17,88.16Z"/><path class="cls-2" d="m67.5,567.39c.19.11.37.32.56.32,6.89.02,13.77.01,21.11.01v-21.8h22.38s-.11-.11-.11-.11c0,14.77,0,29.55,0,44.32,0,0,.1-.08.1-.08-13.82,0-27.64-.02-41.46,0-.87,0-1.73.16-2.6.24l.08.07c-.13-.63-.36-1.26-.36-1.89-.03-6.31-.03-12.61,0-18.92,0-.74.24-1.49.36-2.23,0,0-.06.06-.06.06Z"/><path class="cls-2" d="m332.4,922.38c-.85-.13-1.7-.37-2.55-.37-13.03-.02-26.07-.02-39.1,0-.74,0-1.48.22-2.22.35,0,0,.08.1.09.11-.09-5.48-.18-10.97-.26-16.45-.03-1.95,0-3.9,0-6.15h21.98v-21.47c2.65-.81,18.16-.96,22.05-.28.06.58.19,1.21.19,1.84.01,13.3.02,26.6,0,39.9,0,.87-.18,1.74-.27,2.61l.09-.08Z"/><path class="cls-2" d="m265.94,390.67c-4.17.05-8.34.14-12.51.15-9.11.02-18.23,0-27.34,0h-3.53c-.74-2.53-.91-39.89-.23-44.03h21.67c.23,3.49.08,7.07.11,10.64.03,3.62,0,7.23,0,11.22,7.41.11,14.61.21,21.8.31l-.05-.07c.11,1.07.32,2.15.33,3.22.03,5.02.04,10.05,0,15.07,0,1.18-.21,2.37-.33,3.55l.07-.08Z"/><path class="cls-2" d="m376.62,413.37c-1.3-.11-2.59-.31-3.89-.32-5.8-.03-11.61-.02-17.32-.02-.8-2.56-1.07-61.02-.33-66.45,7.01-.03,14.09-.04,21.37.02.14.83.36,1.55.36,2.27.02,20.88.02,41.75,0,62.63,0,.65-.17,1.3-.26,1.95,0,0,.07-.08.07-.08Z"/><path class="cls-2" d="m393.09,628.12c-2.76,3.28-6.12,4.45-10.24,2.93-3.01-1.11-4.89-3.23-5.6-6.39-.7-3.09-.48-6.15.46-9.11,1.97-6.24,5.56-11.42,10.75-15.44,2.38-1.85,5.09-3.06,8.09-3.46,3.38-.45,6.66-.46,8.51,4.05.82-3.58,3.06-3.63,5.47-3.54,2.61.1,5.23.02,8.26.02-.36,1.33-.53,2.26-.85,3.13-3.43,9.27-6.87,18.53-10.36,27.78-1.85,4.9-4.57,9.28-8.4,12.86-3.97,3.71-8.51,6.22-14.21,5.71-.29-.03-.57-.16-1.25-.36,7.07-4.53,8.41-12.25,11.67-18.81.13-.25.05-.61.1-1.68-1.05.98-1.69,1.57-2.32,2.16,4.6-7.42,7.36-15.62,10.07-23.84.27-.83.65-1.74.53-2.55-.12-.87-.57-1.92-1.23-2.45-.96-.76-1.84.07-2.5.84-.5.58-.99,1.19-1.38,1.84-4.71,7.86-7.93,16.36-10.5,25.11-.24.83-.03,1.8-.03,2.71,2.21.21,3.63-.53,4.97-1.51Z"/><path class="cls-2" d="m265.88,656.11c6.04.07,12.07.15,18.11.22,1.3.01,2.6,0,4.33,0,0,14.89,0,29.46,0,44.03,0,0,.08-.09.08-.09-1.08.11-2.15.32-3.23.32-5.25.03-10.51.04-15.76,0-1.19,0-2.38-.21-3.57-.33l.11.11c.08-.87.24-1.73.24-2.6.02-12.93.02-25.85,0-38.78,0-.98-.17-1.95-.26-2.93l-.06.05Z"/><path class="cls-2" d="m155.77,413.23v-22.21h43.91c.46,3.62.14,7.31.2,10.99.06,3.73,0,7.47,0,11.2,0,0,.09-.1.09-.1-14.77,0-29.54,0-44.31,0l.11.11Z"/><path class="cls-2" d="m531.89,457.35c-.05,2.85-.15,5.71-.16,8.56-.02,10.55,0,21.1,0,31.65v3.76h-22.01c-.44-3.6-.13-7.31-.19-10.98-.05-3.63-.01-7.25-.01-10.88s0-7.47,0-11.21c0-3.63,0-7.25,0-10.88l-.1.08c7.52,0,15.04,0,22.56,0l-.08-.1Z"/><path class="cls-2" d="m376.76,722.83c7.52,0,15.05,0,22.57,0,0,0-.12-.1-.12-.1-.08,1.31-.21,2.62-.22,3.94-.02,12.21-.01,24.42-.01,36.63v3.76h-22.23c.03-14.78.06-29.55.09-44.33l-.09.1Z"/><path class="cls-2" d="m177.44,567.66c2.86.05,5.71.15,8.57.16,10.67.02,21.34,0,32,0h3.45c.24.67.44.97.44,1.28.02,6.71.01,13.42,0,20.13,0,.31-.19.62-.29.93,0,0,.14-.11.14-.11-14.77,0-29.54,0-44.31,0l.08.08c0-7.51,0-15.02,0-22.53l-.07.06Z"/><path class="cls-2" d="m221.95,213.95h43.67c.73,2.48.88,18.08.2,21.85h-43.67c-.4-7.22-.1-14.4-.21-21.85Z"/><path class="cls-2" d="m244.21,700.25c-.86.12-1.72.34-2.57.34-5.7.03-11.4.03-17.1,0-.97,0-1.94-.24-2.91-.36,0,0,.12.15.12.15.07-1.31.2-2.61.21-3.92.02-12.15,0-24.31.02-36.46,0-1.15.12-2.3.2-3.66,1.81,0,3.22.01,4.63,0,5.8-.06,11.59-.13,17.39-.2l-.09-.09c0,14.77,0,29.55,0,44.32l.11-.12Z"/><path class="cls-2" d="m399.53,478.91c.96.14,1.92.39,2.87.39,13.74.02,27.49,0,41.24,0,0,0-.08-.07-.08-.06-.11,1.41-.3,2.82-.31,4.23-.04,4.83,0,9.66-.02,14.49,0,1.07-.1,2.14-.16,3.4h-43.73c-.12-.63-.33-1.24-.33-1.85-.03-6.04-.04-12.07,0-18.11,0-.84.36-1.68.55-2.52,0,0-.03.04-.03.04Z"/><path class="cls-2" d="m288.48,302.11c6.02.07,12.04.14,18.06.21,1.18.01,2.36,0,3.74,0v44.25c-1.18,0-2.25.01-3.32,0-6.24-.08-12.47-.16-18.71-.24,0,0,.09.1.09.1,0-13.49,0-26.99.02-40.48,0-1.31.13-2.62.2-3.93,0,0-.09.1-.09.1Z"/><path class="cls-2" d="m752.95,744.56c3.93.11,7.87.25,11.81.31,3.27.05,6.55.01,10.02.01v44.29c-1.61,0-3.01-.02-4.42,0-5.8.09-11.61.19-17.41.29,0,0,.1.06.1.06-.04-2.3-.11-4.6-.11-6.9.02-12.71.07-25.42.11-38.13l-.1.06Z"/><path class="cls-2" d="m532.21,855.2c-.87.11-1.73.31-2.6.32-13.2.02-26.4.02-39.59,0-.74,0-1.48-.11-2.37-.18v-21.67h43.86c.08,1,.21,1.94.21,2.88.02,5.17-.01,10.34.03,15.51,0,1.07.26,2.14.4,3.2l.07-.07Z"/><path class="cls-2" d="m509.4,346.41c.04,10.56.09,21.11.12,31.67.01,4.06,0,8.12,0,12.13-2.47.75-17.81.89-21.88.22-.05-.68-.16-1.42-.16-2.16,0-13.2-.01-26.4,0-39.6,0-.76.19-1.51.29-2.27,0,0-.14.12-.14.12h21.86s-.11-.11-.11-.11Z"/><path class="cls-2" d="m469.03,628.82c-2.39,3-5.54,3.35-8.94,2.41-3.5-.98-5.5-3.39-6.19-6.98-.53-2.77-.36-5.52.5-8.14,2.34-7.11,6.44-12.98,12.86-16.98,1.82-1.13,3.97-1.94,6.08-2.38,3.49-.72,6.86-.49,8.85,3.87.74-3.44,2.94-3.58,5.39-3.48,2.72.12,5.46.03,8.77.03-.55,1.53-.89,2.62-1.33,3.67-3.23,7.81-6.51,15.61-9.71,23.44-.55,1.34-1.49,2.75-.2,4.65,4.72-1.78,6.15-6.56,9.21-10.12-1.59,6.64-7.36,12.22-12.9,12.72-4.54.4-6.36-.8-7.82-5.14-.1-.3-.31-.57-.55-1-1.55.46-2.37,1.77-3.37,2.84,4.47-6.85,7.03-14.57,10.04-22.08.56-1.4.87-2.96.97-4.47.05-.84-.36-2.14-.97-2.47-.56-.3-1.92.21-2.48.79-1.11,1.17-2.15,2.54-2.8,4.01-3.1,7-6.09,14.06-9.06,21.12-.57,1.36-1.6,3.02-.29,4.28,1.24,1.2,2.63-.27,3.94-.58Z"/><path class="cls-2" d="m288.41,833.69c-7.51,0-15.02,0-22.53,0,0,0,.06.05.06.05.09-1.74.27-3.47.25-5.21-.04-5.77-.16-11.55-.24-17.32,0,0-.09.08-.09.08h22.46v22.47l.09-.06Z"/><path class="cls-2" d="m399.3,324.67h-22.33c-.27-7.56-.14-14.72-.08-22.3,7.61-.03,15.01-.06,22.42-.09,0,0-.09-.08-.09-.08,0,7.51,0,15.02,0,22.53l.08-.06Z"/><path class="cls-2" d="m465.35,479.03c2.73.09,5.45.24,8.18.27,4.48.05,8.96.01,13.78.01.35,7.42.11,14.58.17,21.99h-22.06c0-7.53,0-14.94,0-22.36,0,0-.08.1-.08.1Z"/><path class="cls-2" d="m730.47,457.34c.09-5.48.19-10.95.27-16.43.03-1.83,0-3.67,0-5.67h21.66c.67,2.4.82,17.63.18,22.03-7.35,0-14.77,0-22.19,0,0,0,.09.07.09.07Z"/><path class="cls-2" d="m597.85,899.74h22.17v22.12c-7.37.09-14.76.19-22.16.28,0,0,.09.07.09.07,0-7.51,0-15.03,0-22.54l-.09.08Z"/><path class="cls-2" d="m177.47,744.55c1.63.11,3.27.31,4.9.32,5.69.04,11.39.02,17.3.02v21.6c-2.2.66-16.53.87-21.83.27-.11-7.39-.21-14.82-.32-22.26,0,0-.05.06-.05.06Z"/><path class="cls-2" d="m244.2,833.69c-5.81-.08-11.61-.16-17.42-.23-1.41-.02-2.83,0-4.16,0-.79-2.51-.96-17.64-.26-22.17h21.84s-.1-.09-.1-.09c0,7.52,0,15.03,0,22.55l.09-.06Z"/><path class="cls-2" d="m265.93,368.97c.1-5.14.2-10.27.28-15.41.03-2.17,0-4.35,0-6.89,7.58-.08,14.86-.16,22.13-.24,0,0-.09-.1-.1-.1.02,7.55.05,15.11.07,22.66,0,0,.09-.1.09-.1-7.51,0-15.02,0-22.53.01l.05.07Z"/><path class="cls-2" d="m753.05,545.81c-7.6-.06-15.19-.13-22.8-.2,0,0,.09.06.08.06.13-1.07.39-2.13.4-3.19.04-5.05.02-10.1.02-15.15v-3.5c1.22-.1,2.16-.24,3.1-.25,5.27-.02,10.54,0,15.81-.02,1.08,0,2.17-.18,3.25-.28,0,0-.1-.1-.1-.1.05,7.58.1,15.15.15,22.73,0,0,.09-.09.09-.09Z"/><path class="cls-2" d="m244.01,302.07v22.24h-21.83c-.42-7.21-.17-14.47-.17-22.13,7.65,0,14.88,0,22.1,0,0,0-.09-.1-.09-.1Z"/><path class="cls-2" d="m332.67,678.66v-21.71c2.4-.76,17.96-.91,21.83-.21v21.82c-7.45,0-14.69,0-21.93,0,0,0,.09.1.09.1Z"/><path class="cls-2" d="m310.45,235.88h-21.52c-.69-2.47-.84-17.71-.22-21.85h21.76c.04,7.17.04,14.36,0,21.85Z"/><path class="cls-2" d="m532.15,855.26c5.67.09,11.34.18,17.01.26,1.4.02,2.8,0,4.45,0v22.48s.12-.12.12-.12h-21.87s.14.12.14.12c-.09-5.45-.24-10.9-.25-16.35,0-2.15.3-4.3.46-6.46,0,0-.06.06-.06.06Z"/><path class="cls-2" d="m67.56,567.32c-.73.17-1.47.47-2.21.47-6.15.04-12.3.03-18.44,0-.53,0-1.05-.15-1.75-.25v-21.55h21.86c.06,1.2.15,2.27.15,3.34.02,4.94-.01,9.88.02,14.82,0,1.08.19,2.16.3,3.23,0,0,.07-.07.07-.07Z"/><path class="cls-2" d="m332.31,922.46c.74-.16,1.47-.45,2.21-.45,6.16-.03,12.31-.02,18.47,0,.43,0,.86.12,1.51.22v21.55h-21.8c-.1-7.2-.19-14.3-.3-21.4,0,0-.1.09-.1.09Z"/><path class="cls-2" d="m532.15,922.41c-.14,1.06-.4,2.12-.4,3.19-.04,4.95-.01,9.9-.03,14.85,0,1.08-.09,2.15-.14,3.39-7.32,0-14.43,0-21.54,0-.65-2.31-.85-15.66-.3-21.46.43-.11.93-.35,1.43-.36,6.38-.03,12.75-.03,19.13,0,.63,0,1.26.29,1.9.44,0,0-.05-.05-.05-.05Z"/><path class="cls-2" d="m399.56,478.87c-.41.13-.83.37-1.24.37-6.98.01-13.95,0-20.93-.03-.3,0-.59-.24-.9-.37,0,0,.07.06.06.06.08-5.37.18-10.73.26-16.09.03-1.73,0-3.45,0-5.35h21.93c.08.97.22,1.91.22,2.85.02,5.16-.02,10.32.04,15.48.01,1.04.33,2.08.52,3.12,0,0,.04-.04.04-.04Z"/><path class="cls-2" d="m509.51,457.37h-21.79c-.11-1.32-.23-2.17-.24-3.03-.02-5.61-.03-11.21.01-16.82,0-.96.32-1.91.5-2.87,0,0-.05.04-.04.04.41.12.82.35,1.22.35,6.78,0,13.55-.04,20.33-.07,0,0-.1-.08-.1-.08,0,7.52,0,15.04,0,22.56l.1-.08Z"/><path class="cls-2" d="m265.95,722.74h-21.74c0-7.64,0-15.07,0-22.49,0,0-.11.12-.11.12,7.29,0,14.58,0,21.86,0l-.11-.11c.12.97.34,1.94.35,2.91.03,5.7.03,11.39,0,17.09,0,.86-.22,1.71-.34,2.57l.09-.08Z"/><path class="cls-2" d="m355.11,722.84c-.13-.96-.36-1.93-.36-2.89-.04-5.37-.03-10.74,0-16.11,0-.96.12-1.92.19-3.04h21.83c0,7.44,0,14.74,0,22.04l.09-.1c-7.29,0-14.57,0-21.86,0l.12.1Z"/><path class="cls-2" d="m620.42,413.24v-22.21h21.28c.67,2.32.88,17.02.33,22.2l.13-.12c-7.29,0-14.58,0-21.86,0l.12.13Z"/><path class="cls-2" d="m443.42,700.34c5.77.09,11.55.18,17.32.27,1.39.02,2.79,0,4.44,0v22.23l.1-.1c-3.62.01-7.23.04-10.85.03-3.67-.01-7.36.1-11.21-.09,0-5.36-.03-10.29.01-15.21.02-2.4.19-4.8.29-7.2l-.11.07Z"/><path class="cls-2" d="m597.6,413.46c.31-.11.61-.32.92-.32,7.3.02,14.6.06,21.91.1,0,0-.12-.13-.12-.13,0,7.29,0,14.58,0,21.87l.12-.13h-22.17c-.08-.83-.23-1.67-.23-2.51-.02-5.25,0-10.5-.03-15.75,0-1.07-.2-2.14-.32-3.21,0,0-.07.07-.07.07Z"/><path class="cls-2" d="m332.53,722.83c7.52,0,15.05,0,22.57.01,0,0-.12-.1-.12-.1-.09,1.2-.24,2.39-.25,3.59-.03,5.05,0,10.1-.02,15.15,0,1.05-.14,2.09-.23,3.41-5.9,0-11.49.02-17.07-.02-1.63-.01-3.26-.21-4.89-.32.03-7.27.06-14.55.09-21.82l-.1.09Z"/><path class="cls-2" d="m774.81,391.06v21.42c-2.38.68-15.64.89-21.29.35-.72-2.23-.96-15.84-.38-21.52,2.32-.63,15.78-.82,21.66-.26Z"/><path class="cls-2" d="m709.08,413.48c-.12-.97-.35-1.94-.36-2.91-.03-5.61-.03-11.22,0-16.83,0-.85.12-1.71.2-2.73h21.63v21.75c-.82.1-1.65.27-2.48.28-5.28.03-10.56,0-15.84.03-1.07,0-2.15.22-3.21.35,0,0,.07.07.07.07Z"/><path class="cls-2" d="m730.26,922.46c.74-.16,1.48-.45,2.23-.45,6.27-.03,12.53-.02,18.8,0,.42,0,.84.14,1.45.25v21.54h-21.84c-.05-1.21-.14-2.29-.14-3.36-.01-4.95.02-9.9-.03-14.85,0-1.06-.26-2.13-.41-3.18,0,0-.05.06-.05.06Z"/><path class="cls-2" d="m509.17,789.81c.83-.21,1.65-.6,2.48-.61,6.04-.05,12.07-.03,18.11,0,.53,0,1.05.17,1.77.3v21.55h-22.01c0-1.24.01-2.41,0-3.58-.09-5.91-.18-11.82-.28-17.73,0,0-.07.08-.07.08Z"/><path class="cls-2" d="m464.92,236.6c.72-.19,1.45-.55,2.17-.55,6.15-.04,12.29-.03,18.44-.01.52,0,1.05.16,1.75.28v21.51c-.61.09-1.13.24-1.64.24-6.15.02-12.29.02-18.44,0-.75,0-1.5-.21-2.26-.33,0,0,.08.06.07.06.09-4.91.23-9.82.26-14.73.01-2.17-.19-4.34-.3-6.51l-.05.04Z"/><path class="cls-2" d="m464.96,236.56c-1.04-.18-2.08-.5-3.12-.51-4.94-.05-9.88-.02-14.82-.02h-3.15c-.77-2.58-.94-17.85-.3-21.99h21.37c.11.39.3.79.31,1.19.02,6.48.03,12.96.01,19.44,0,.64-.22,1.29-.34,1.93,0,0,.04-.04.04-.04Z"/><path class="cls-2" d="m355.33,236.51c-.2-.84-.56-1.68-.57-2.52-.04-6.16-.02-12.32,0-18.48,0-.42.14-.85.25-1.47h21.47c.1.39.31.79.31,1.19.02,6.49.03,12.98.01,19.47,0,.65-.22,1.29-.34,1.94,0,0,.04-.03.04-.02-.48-.19-.94-.55-1.42-.56-6.21-.04-12.41-.03-18.62,0-.4,0-.8.26-1.19.4,0,0,.06.05.06.05Z"/><path class="cls-2" d="m67.48,590.29c-.1,2.4-.26,4.8-.28,7.2-.04,4.7-.01,9.41-.01,14.35h-22.02v-21.57c.74-.08,1.37-.22,2-.22,6.04-.02,12.09-.02,18.13,0,.75,0,1.51.2,2.27.31,0,0-.08-.07-.08-.07Z"/><path class="cls-2" d="m244.01,545.99h22.15c.14,7.1.05,14.17.04,21.2-2.38.77-17.42.96-22.08.26,0-7.14,0-14.35,0-21.56,0,0-.1.1-.1.1Z"/><path class="cls-2" d="m752.96,545.9h21.83v21.91c-7.2.02-14.35.02-21.74-.01v-21.99s-.09.09-.09.09Z"/><path class="cls-2" d="m509.73,700c-.71.2-1.43.57-2.14.58-6.14.04-12.28.02-18.42,0-.42,0-.84-.13-1.46-.23v-21.33c2.27-.63,17.58-.76,21.92-.1,0,7.01,0,14.1,0,21.19,0,0,.1-.1.1-.1Z"/><path class="cls-2" d="m752.9,523.28v-21.74h21.46c.76,2.49.92,17.7.25,21.84-.68.06-1.41.19-2.15.19-5.7.02-11.4.03-17.1,0-.85,0-1.71-.24-2.57-.37,0,0,.1.09.1.09Z"/><path class="cls-2" d="m442.15,601.33c-1.26,2.66-2.56,5.3-3.76,7.99-2.82,6.32-5.65,12.64-8.33,19.01-.8,1.91-1.89,2.68-3.97,2.58-3.04-.15-6.09-.04-9.7-.04.56-1.6.89-2.7,1.33-3.77,3.05-7.42,6.13-14.82,9.17-22.24.69-1.67,1.44-3.36.94-5.79-4.82,2.28-5.98,7.11-9.03,10.28,1.5-3.9,3.3-7.6,6.46-10.41.96-.85,2.17-1.53,3.39-1.95,5.12-1.78,8.72.52,9.36,5.9.12,1.04.16,2.09.27,3.62,1.52-1.98,2.72-3.55,3.93-5.12,0,0-.07-.06-.07-.06Z"/><path class="cls-2" d="m350.45,558.61s.11-.12.11-.12c-1.16.98-2.19,2.2-3.5,2.89-1.53.8-2.58-.1-2.32-1.86.17-1.19.53-2.36.92-3.5,2.56-7.5,5.73-14.73,9.66-21.61.64-1.13,1.44-2.24,2.42-3.07.52-.44,1.76-.6,2.31-.27.58.34,1.07,1.46.98,2.17-.2,1.62-.63,3.25-1.24,4.77-2.23,5.61-4.51,11.2-6.89,16.74-.59,1.39-1.63,2.58-2.46,3.87Z"/><path class="cls-1" d="m393.09,628.12c-1.34.98-2.76,1.73-4.97,1.51,0-.92-.21-1.88.03-2.71,2.58-8.75,5.8-17.25,10.5-25.11.39-.65.88-1.26,1.38-1.84.67-.77,1.54-1.6,2.5-.84.66.53,1.11,1.57,1.23,2.45.12.81-.26,1.72-.53,2.55-2.71,8.22-5.47,16.42-10.07,23.84-.03.06-.05.11-.08.16Z"/><path class="cls-2" d="m387.89,561.25c.17-1.32.17-2.52.51-3.62,2.35-7.69,5.27-15.16,9.12-22.24.73-1.34,1.63-2.63,2.67-3.74.49-.53,1.66-.96,2.24-.73.61.24,1.24,1.35,1.21,2.05-.06,1.63-.28,3.33-.86,4.84-2.3,5.94-4.67,11.87-7.23,17.7-.73,1.66-2.08,3.09-3.31,4.48-.95,1.09-2.19,1.85-4.36,1.26Z"/><path class="cls-1" d="m469.03,628.82c-1.32.31-2.7,1.78-3.94.58-1.3-1.26-.28-2.92.29-4.28,2.97-7.06,5.96-14.12,9.06-21.12.65-1.47,1.69-2.83,2.8-4.01.55-.58,1.92-1.09,2.48-.79.61.33,1.03,1.63.97,2.47-.09,1.51-.4,3.07-.97,4.47-3.01,7.51-5.57,15.24-10.04,22.08-.22.2-.44.39-.66.59Z"/><path class="cls-2" d="m320.27,530.99c3.39-1.25,6.23-2.69,7.44-5.87.39-1.02.22-2.25.34-3.65-1.31.21-2.14.38-2.99.48-2.41.27-4.41-.84-5.36-2.93-.97-2.14-.43-5.89,1.13-7.1.47-.37,1.19-.55,1.8-.59,1.31-.09,2.65.1,3.95-.07,2.55-.33,3.86,1.11,4.83,3.12,3.34,6.94-2.08,16.42-9.77,17.07-.27.02-.57-.18-1.37-.47Z"/><path class="cls-2" d="m442.22,601.39c.9-3.42,3.24-5.05,7.01-4.91,3.25.12,5.33,1.9,5.88,5.13.45,2.63-.05,5.05-1.91,7.04-1.89,2.02-4.86,2.43-7.24,1.04-2.28-1.32-3.15-3.81-2.28-6.58.28-.9.65-1.77,1.21-3.26-1.31.7-2.03,1.09-2.74,1.47,0,0,.07.06.07.06Z"/><path class="cls-2" d="m487.24,646.51c-2.9.57-5.44.14-7.4-2.29-1.94-2.41-2.16-6.14-.41-8.57,1.83-2.54,5.17-3.34,7.89-1.9,2.65,1.41,3.68,4.29,2.52,7.33-.35.91-.98,1.7-1.41,2.58-.41.85-.73,1.75-1.18,2.85Z"/><path class="cls-2" d="m379.01,644.73c.18.76.28,1.17.38,1.57-.21.13-.39.34-.55.32-5.11-.4-8.24-5.79-6.01-10.33,1.24-2.53,3.75-3.78,6.55-3.28,2.55.46,4.53,2.57,4.82,5.16.33,2.96-.92,4.95-3.82,6.09-.39.15-.8.28-1.36.48Z"/><path class="cls-1" d="m553.64,744.59c.04-11.33.08-22.66.12-33.98.01-3.17,0-6.35,0-9.97h22.32v-22.14h44c.11-7.68.22-15.09.34-22.51l-.12.14c7.29,0,14.58,0,21.87,0l-.12-.15c.07,1.09.2,2.19.2,3.28.01,27.37,0,54.74,0,82.11v2.85c-2.56.77-40.16.94-44.15.21v-21.45h-22.04c-.25,7.1.04,14.29-.15,21.27-.51.28-.7.48-.88.48-7.13-.04-14.25-.1-21.38-.15Z"/><path class="cls-1" d="m598.23,767.19h65.68c.67,2.26.92,60.84.28,65.75-2.42.63-62.24.76-65.96.1v-65.85Zm43.76,43.9c.62-5.5.4-19.52-.36-21.9-7.01,0-14.08-.11-21.24.07v21.83h21.6Z"/><path class="cls-1" d="m620.42,656c-1.41.11-2.83.31-4.24.32-4.84.04-9.68.02-14.52.02h-3.58v-21.96h-21.94c-.33-7.52-.14-14.7-.15-22.29h4.19c26.73,0,53.45,0,80.18-.01,1.42,0,2.84-.17,4.26-.26v22.36h21.8c.15,7.4.05,14.49.06,21.73-.74.16-1.35.41-1.95.41-13.52.02-27.04.02-40.56,0-.64,0-1.29-.21-1.93-.32,0,0,.12.15.12.15v-21.52c-4.49-.62-19.49-.47-21.87.2v21.32l.12-.14Z"/><path class="cls-1" d="m753.05,744.49c-.04,12.71-.08,25.42-.11,38.13,0,2.3.07,4.6.11,6.9-1.07-.12-2.15-.34-3.22-.35-12.57-.02-25.14-.03-37.71,0-1.04,0-2.07.35-3.11.54l.06.07c-.12-.97-.34-1.95-.34-2.92-.02-13.27-.02-26.54,0-39.8,0-.54.07-1.08.14-1.99,1.19-.06,2.34-.18,3.49-.18,12.28-.01,24.56,0,36.83-.03,1.29,0,2.59-.25,3.88-.38Z"/><path class="cls-1" d="m730.3,855.68c-3.62-.05-7.24-.14-10.86-.15-9.67-.02-19.33,0-29,0-1.18,0-2.36,0-3.74,0v-21.83h43.65c.11.4.36.91.36,1.41.03,6.26.04,12.53,0,18.79,0,.62-.32,1.23-.5,1.85l.09-.06Z"/><path class="cls-1" d="m730.22,855.74h22.5v21.77h-21.72c-.09-.99-.24-1.93-.24-2.87-.02-5.27.01-10.53-.03-15.8,0-1.06-.27-2.12-.42-3.18-.01,0-.1.07-.1.07Z"/><path class="cls-1" d="m686.08,899.47c.14-1.06.4-2.12.41-3.18.04-4.93.02-9.87.02-14.8,0-1.08,0-2.15,0-3.15,2.6-.75,17.74-.93,21.97-.3v21.34c-.33.1-.73.33-1.12.33-6.57.03-13.15.03-19.72.01-.53,0-1.07-.2-1.6-.32,0,0,.05.05.05.05Z"/><path class="cls-1" d="m709.01,789.73c-.1,2.07-.27,4.13-.29,6.2-.04,4.93-.01,9.86-.01,14.73-2.44.74-16,.97-22.17.37-.05-7.12-.02-14.28-.02-21.55,1.12-.13,1.87-.29,2.61-.29,5.71-.02,11.41-.04,17.12.02.94,0,1.88.38,2.82.59,0,0-.05-.06-.05-.06Z"/><path class="cls-1" d="m642.21,545.7h21.64c.74,2.59.93,15.97.35,22.01-7.09.29-14.28-.05-21.79.2-.4,7.37.04,14.57-.26,21.93h-21.7v-66.05h21.76v21.91Z"/><path class="cls-1" d="m686.34,435.29v88.06h-21.64v-88.06h21.64Z"/><path class="cls-1" d="m548.49,553.43c-3.26,7.36-9.74,10.84-16.88,9.69-6.97-1.13-11.04-6.12-10.7-13.15.45-9.6,9.08-19.32,18.77-21.28,4.94-1,9.59-.91,13.96,3.36v-7.79c2.52-.81,17.18-1.03,22.26-.34.15,7.11.05,14.28.06,21.66h-22.02c-.12-1.52-.23-2.91-.39-4.85-5.53,5.39-12.5,5.44-19.08,6.3-1.39,3.44-1.53,6.72-1.06,10,.5,3.48,2.43,4.67,5.85,3.85,2.56-.62,4.53-2.17,6.25-4.08,1.01-1.11,1.99-2.25,2.99-3.38Zm-13.66-7.85c1.85.19,3.11-.67,4.31-1.57,3.26-2.44,5.5-5.65,6.68-9.53.49-1.6,1.26-3.49-.45-4.84-.9-.71-2.86.46-4.08,2.63-2.19,3.91-4.19,7.94-6.24,11.93-.17.34-.13.79-.22,1.38Z"/><path class="cls-1" d="m598.17,501.23v-21.68h21.85v21.42c-2.27.69-16.84.9-21.85.26Z"/><path class="cls-1" d="m576.18,678.6h-22.31c-.08-7.75-.16-15.16-.24-22.56,4.48.1,8.96.23,13.44.3,2.82.04,5.64,0,8.76,0,.12,7.67.24,14.97.36,22.26Z"/><path class="cls-1" d="m620.3,434.99c0-7.29,0-14.58,0-21.87,7.29,0,14.58,0,21.86,0v21.87h-21.86Z"/><path class="cls-1" d="m534.67,613.35c2.15-4.97,4.13-10.03,7.75-14.24.35-.41.8-.77,1.27-1.02,1.38-.7,2.37-.16,2.55,1.36.06.54.07,1.12-.05,1.64-1.28,5.52-4.23,9.81-9.35,12.44-.46.24-1.03.25-1.55.36-.21-.18-.42-.36-.63-.55Z"/><path class="cls-1" d="m244.19,656.14c-5.8.07-11.59.14-17.39.2-1.41.01-2.83,0-4.63,0-.08,1.35-.2,2.51-.2,3.66-.01,12.15,0,24.31-.02,36.46,0,1.31-.13,2.61-.21,3.92-1.42.08-2.84.22-4.25.22-26.55.01-53.09,0-79.64,0h-4.26c-.1,7.62-.2,14.92-.29,22.22-7.23.02-14.46.04-21.69.06,0,0,.11.09.11.09-.1-.97-.28-1.95-.28-2.92-.02-20.23-.01-40.45,0-60.68,0-.87.09-1.73.15-2.81h21.83v21.79h65.93c.68-2.28.86-17.27.22-21.87h-43.24c-.8-2.59-.96-17.79-.28-22.14h65.59c.14-1.01.32-1.73.32-2.46.02-5.94.02-11.87,0-17.81,0-.76-.21-1.51-.32-2.26,1.31.09,2.62.26,3.93.26,12.21.02,24.41.01,36.62.01,1.19,0,2.39,0,4.03,0,.12,7.47.05,14.65.05,22.14h-22.07v21.92Z"/><path class="cls-1" d="m244.19,457.35c-.02,13.37-.05,26.74-.07,40.12,0,1.19,0,2.38,0,3.83-1.17.09-2.12.22-3.06.23-5.37.02-10.74-.01-16.11.03-1.19,0-2.38.23-3.57.35.2-.95.55-1.89.56-2.84.05-5.71.04-11.43.01-17.14,0-.74-.16-1.48-.24-2.18-3.55-.7-41.38-.56-44.01.21.13,7.08-.25,14.26.24,21.59h4c11.98,0,23.95,0,35.93.01,1.19,0,2.38.19,3.56.3.15.28.43.56.43.85.02,6.79.02,13.58.02,20.82h-44.04c-.12,7.75-.22,15.07-.33,22.39-12.26-.04-24.51-.08-36.77-.11-2.52,0-5.03.08-7.55.12.09-5.71.19-11.42.27-17.13.02-1.62,0-3.23,0-5.16h21.96v-44.12c-3.51-.39-7.1-.13-10.68-.18-3.74-.05-7.48-.01-11.22-.01h-10.89c-3.6,0-7.21,0-11.21,0v-21.97c1.32-.02,2.63-.06,3.95-.06,41.62,0,83.23,0,124.85,0,1.32,0,2.63.04,3.95.06Z"/><path class="cls-1" d="m111.61,722.88c-.06,5.82-.13,11.64-.19,17.46-.01,1.3,0,2.61,0,3.83-2.48.84-39.31,1.09-44.02.34v-65.48c2.29-.65,17.83-.77,21.77-.11v43.7c7.71.12,15.13.23,22.55.34,0,0-.1-.09-.1-.09Z"/><path class="cls-1" d="m111.45,590.13c0-14.77,0-29.55,0-44.32,7.29,0,14.57,0,21.86,0,.05,3.06.15,6.12.15,9.19.02,10.4,0,20.81,0,31.21,0,1.17,0,2.33,0,3.93h-22.02Z"/><path class="cls-1" d="m177.43,590.05c14.77,0,29.54,0,44.31,0,0,7.29,0,14.58,0,21.87-2.96.05-5.92.15-8.87.16-10.42.02-20.85,0-31.27,0h-3.88c0-1.71.02-3,0-4.29-.09-5.91-.19-11.83-.28-17.74Z"/><path class="cls-1" d="m177.51,567.6c0,7.51,0,15.02,0,22.53h-21.83c-.06-7.5-.02-14.67-.03-22.31,1.44,0,2.6.01,3.77,0,6.03-.07,12.05-.15,18.08-.22Z"/><path class="cls-1" d="m133.21,722.74h22.36c.06,7.47.12,14.66.18,21.86-5.15.1-10.31.21-15.46.29-2.16.03-4.31,0-6.81,0,0-1.78.02-3.08,0-4.37-.08-5.93-.17-11.85-.26-17.78Z"/><path class="cls-1" d="m176.52,237.17v107.76c-2.37.7-101.91,1-107.72.33-.73-2.43-.83-104.85-.07-108.1h107.79Zm-20.95,21.13h-65.98c-.67,4.37-.48,63.65.18,65.97,5.07.69,63.49.41,65.81-.34v-65.62Z"/><path class="cls-1" d="m176.46,920.69h-108.01v-108.04h108.01v108.04Zm-21-21.07v-65.77c-3.78-.69-63.56-.53-66.02.16v65.61h66.02Z"/><path class="cls-1" d="m643.55,345.27v-108.01h107.98v108.01h-107.98Zm21.14-87.01v66.08h65.83v-66.08h-65.83Z"/><path class="cls-1" d="m443.53,700.26c-.1,2.4-.27,4.8-.29,7.2-.05,4.93-.01,9.85-.01,15.21,3.85.19,7.54.08,11.21.09,3.62.01,7.23-.02,10.85-.03v22.14h22.02v22.13h-66.2v22.16c-1.47,0-2.64,0-3.82,0-12.2,0-24.4,0-36.61.01-1.31,0-2.62.17-3.93.26,0,0,.08.09.08.09,0-7.52,0-15.04,0-22.55l-.09.1h22.23v-3.76c0-12.21,0-24.42.01-36.63,0-1.31.14-2.62.22-3.94h21.72v-21.94c1.44-.07,2.51-.17,3.57-.17,5.15-.02,10.3.01,15.45-.02,1.19,0,2.38-.22,3.57-.33Z"/><path class="cls-1" d="m420.98,855.52v-22.03h-88.34v-22.29l-.1.09c7.31-.02,14.62-.04,22.3-.06v-21.89c1.44-.07,2.51-.16,3.59-.16,4.84-.02,9.68-.03,14.52,0,1.3.01,2.6.22,3.9.33,0,0-.08-.09-.08-.09,0,7.13,0,14.26,0,21.79h66.28v44.29h-22.06Z"/><path class="cls-1" d="m469.16,560.35c-2.21,3.29-5.51,3.28-8.82,2.67-3.34-.62-5.27-3.02-6.21-6.17-.92-3.05-.66-6.13.33-9.1,2.33-6.99,6.37-12.78,12.67-16.75,1.73-1.09,3.74-1.89,5.73-2.36,4.79-1.15,6.35-.49,9.41,3.47.74-3.1,2.89-3.5,5.56-3.31,2.61.19,5.24.04,7.76.04.81,1.6-.13,2.61-.56,3.65-3.16,7.73-6.41,15.43-9.57,23.16-.59,1.45-1.56,2.94-.69,4.64q3.11-.56,9.54-9.69c-.95,6.28-7.67,12.51-13.7,12.69-3.96.12-5.62-.98-6.86-4.71-.33-1-.52-1.97-1.92-1.57l.07.09c1.85-4.46,3.75-8.9,5.54-13.38,1.1-2.75,2.05-5.56,3-8.37.28-.82.45-1.73.43-2.58-.06-1.96-1.65-2.77-3.16-1.56-.92.74-1.71,1.73-2.31,2.75-4.42,7.52-7.71,15.54-10.39,23.82-.34,1.04-.46,2.64.11,3.38.88,1.15,2.17.12,3.22-.45.28-.15.61-.2.92-.3l-.08-.06Z"/><path class="cls-1" d="m427.73,530.82c-4.86,2.22-5.66,7.22-9.08,10.96.28-1.14.29-1.71.54-2.13,1.52-2.54,2.99-5.12,4.7-7.53,1.51-2.13,3.74-3.35,6.35-3.79,3.89-.66,6.43.89,7.4,4.72.39,1.55.48,3.17.76,5.15.74-.82,1.25-1.38,1.75-1.95.1.06.19.12.29.18-3.59,8.12-7.15,16.25-10.79,24.35-.32.72-1.1,1.68-1.73,1.74-3.68.33-7.36.17-11.57.13.62-1.71.97-2.82,1.42-3.9,3.05-7.41,6.14-14.81,9.18-22.23.65-1.59,1.48-3.18.79-5.7Z"/><path class="cls-1" d="m444.11,531.89c-.68.47-1.36.94-2.04,1.41-.06-.17-.23-.38-.18-.5,1.2-2.76,3.34-4.27,6.31-4.57,3.64-.38,6.18,1.5,6.88,5.08.54,2.77-.07,5.24-2.06,7.28-1.89,1.94-4.58,2.26-6.95.91-2.32-1.32-3.26-3.8-2.41-6.52.28-.91.68-1.78,1.03-2.66-.19-.14-.39-.29-.58-.43Z"/><path class="cls-1" d="m471.81,557.02c-.88,1.11-1.77,2.22-2.65,3.34,0,0,.08.06.08.06.88-1.1,1.76-2.2,2.64-3.31l-.07-.09Z"/><path class="cls-1" d="m443.43,346.53c-.06-1.09-.18-2.19-.18-3.28-.01-19.69,0-39.38,0-59.06v-3.76h22.06c0,22.03,0,44.06,0,66.1-7.29,0-14.57,0-21.86,0Z"/><path class="cls-1" d="m509.51,346.52h-21.86c0-7.13,0-14.26,0-21.4,2.23-.72,17.44-.89,21.86-.19v21.58Z"/><path class="cls-1" d="m265.88,368.9c7.51,0,15.02,0,22.53-.01v21.85c-7.69.14-15.11.11-22.54,0,.11-1.18.32-2.36.33-3.55.04-5.02.04-10.05,0-15.07,0-1.07-.21-2.15-.33-3.22Z"/><path class="cls-1" d="m420.97,368.98v-22.3c7.76-.09,15.16-.17,22.56-.26-.1,4.48-.23,8.97-.3,13.45-.04,2.83,0,5.65,0,8.78-7.66.11-14.96.22-22.25.33Z"/><path class="cls-1" d="m421.09,390.61c5.92.07,11.85.14,17.77.21,1.3.01,2.6,0,4.13,0v22.02h-21.78c-.26-7.49-.2-14.91-.03-22.33,0,0-.08.1-.08.1Z"/><path class="cls-1" d="m332.63,722.74c-.03,7.27-.06,14.55-.09,21.82l.09-.06c-1.18.13-2.36.35-3.55.36-5.03.04-10.07,0-15.1.02-1.06,0-2.12.09-3.23.14v22.03h21.89l-.09-.09c0,14.77,0,29.55,0,44.32l.1-.09h-21.97c-.45,7.46.03,14.63-.29,22-1.15.09-2.1.23-3.04.24-5.15.02-10.29,0-15.44.02-1.19,0-2.38.19-3.57.29v-22.47h-22.46c.12-1.3.34-2.6.34-3.89.03-12.19.02-24.39.02-36.58v-3.81h22.03v-22.02c7.46-.21,14.64.03,22.14-.16v-22c7.64-.03,14.94-.06,22.24-.09Z"/><path class="cls-1" d="m265.86,722.83c.12-.86.34-1.71.34-2.57.03-5.7.03-11.39,0-17.09,0-.97-.23-1.94-.35-2.91,1.19.11,2.38.32,3.57.33,5.25.04,10.51.03,15.76,0,1.08,0,2.15-.21,3.23-.32v22.43c-7.72.04-15.13.08-22.55.12Z"/><path class="cls-1" d="m244.1,833.75c0-7.52,0-15.03,0-22.55,7.28,0,14.57,0,21.85,0,.09,5.77.2,11.55.24,17.32.01,1.74-.16,3.47-.25,5.21-4.89-.1-9.79-.24-14.68-.27-2.38-.01-4.77.18-7.16.29Z"/><path class="cls-1" d="m399.22,324.74c0-7.51,0-15.02,0-22.53h21.23c.72,2.67.89,17.72.29,22.2-7.14.11-14.33.22-21.52.33Z"/><path class="cls-1" d="m155.66,413.12c14.77,0,29.54,0,44.31,0v21.3c-2.59.76-39.43.98-44.31.28v-21.58Z"/><path class="cls-1" d="m111.54,457.45c-5.93-.05-11.86-.11-17.79-.16-1.31-.01-2.62,0-4.26,0-.1-1.1-.25-2.03-.25-2.97-.02-5.28,0-10.55-.02-15.83,0-1.2-.15-2.4-.23-3.6,6.01.06,12.01.13,18.02.18,1.3.01,2.59,0,4.32,0,.08,7.62.15,15,.22,22.38Z"/><path class="cls-1" d="m351.81,625.59c-.95.91-1.85,1.86-2.85,2.71-.66.56-1.4,1.11-2.19,1.38-1.31.45-2.15-.31-2.04-1.68.05-.54.23-1.08.39-1.6,2.64-8.54,5.99-16.77,10.71-24.4.52-.84,1.06-1.75,1.82-2.31.59-.44,1.74-.74,2.3-.44.56.3,1.09,1.49.95,2.14-.56,2.57-1.18,5.16-2.15,7.6-2.23,5.62-4.68,11.15-7.04,16.71,0,0,.11-.11.11-.11Z"/><path class="cls-1" d="m509.41,457.45c0-7.52,0-15.04,0-22.56,5.38.06,10.75.13,16.13.18,1.86.02,3.72,0,5.91,0,.1,1.09.25,2.03.26,2.96.02,5.27,0,10.55.02,15.82,0,1.2.15,2.4.24,3.6-7.52,0-15.04,0-22.56,0Z"/><path class="cls-1" d="m597.94,899.66c0,7.51,0,15.03,0,22.54-6.01-.07-12.03-.15-18.04-.22-1.18-.01-2.35,0-3.72,0v-22.32h21.77Z"/><path class="cls-1" d="m531.86,877.88h21.87v21.87h-21.86c0-7.29,0-14.58,0-21.87Z"/><path class="cls-1" d="m265.97,700.38c-7.29,0-14.58,0-21.86,0,0-14.77,0-29.55,0-44.32,2.39.1,4.77.29,7.16.27,4.9-.03,9.79-.16,14.68-.25.09.98.26,1.95.26,2.93.02,12.93.02,25.85,0,38.78,0,.87-.16,1.73-.24,2.6Z"/><path class="cls-1" d="m332.54,744.56c1.63.11,3.26.3,4.89.32,5.58.04,11.16.02,17.07.02.09-1.32.23-2.37.23-3.41.02-5.05,0-10.1.02-15.15,0-1.2.16-2.39.25-3.59,7.29,0,14.57,0,21.86,0-.03,14.78-.06,29.55-.09,44.33l.09-.1c-14.77,0-29.54,0-44.31,0l.09.09c0-7.52,0-15.04,0-22.56l-.09.06Z"/><path class="cls-2" d="m620.3,656.14v-21.32c2.38-.67,17.37-.83,21.87-.2v21.52c-7.29,0-14.58,0-21.87,0Z"/><path class="cls-2" d="m641.98,811.09h-21.6v-21.83c7.16-.18,14.22-.07,21.24-.07.76,2.38.99,16.4.36,21.9Z"/><path class="cls-2" d="m534.83,545.57c.09-.6.05-1.04.22-1.38,2.05-3.99,4.05-8.02,6.24-11.93,1.22-2.17,3.18-3.34,4.08-2.63,1.71,1.35.93,3.23.45,4.84-1.18,3.88-3.42,7.09-6.68,9.53-1.2.9-2.46,1.76-4.31,1.57Z"/><path class="cls-2" d="m221.44,501.85c-1.19-.1-2.38-.29-3.56-.3-11.98-.02-23.95-.01-35.93-.01h-4c-.5-7.33-.12-14.51-.24-21.59,2.63-.77,40.45-.91,44.01-.21.08.69.24,1.44.24,2.18.02,5.71.04,11.43-.01,17.14,0,.95-.36,1.89-.56,2.84,0,0,.06-.05.06-.05Z"/><path class="cls-2" d="m155.56,258.29v65.62c-2.32.75-60.74,1.03-65.81.34-.65-2.32-.84-61.59-.18-65.97h65.98Z"/><path class="cls-2" d="m155.46,899.62h-66.02v-65.61c2.47-.69,62.24-.85,66.02-.16v65.77Z"/><path class="cls-2" d="m664.68,258.26h65.83v66.08h-65.83v-66.08Z"/><path class="cls-2" d="m332.54,766.97c14.77,0,29.54,0,44.31,0,0,7.52,0,15.04,0,22.55-1.3-.12-2.6-.32-3.9-.33-4.84-.04-9.68-.02-14.52,0-1.08,0-2.15.09-3.59.16v21.89c-7.68.02-14.99.04-22.3.06,0-14.77,0-29.55,0-44.32Z"/><path class="cls-2" d="m471.88,557.11c-.88,1.1-1.76,2.2-2.64,3.31-.31.1-.64.15-.92.3-1.05.57-2.34,1.6-3.22.45-.57-.74-.44-2.34-.11-3.38,2.68-8.28,5.97-16.3,10.39-23.82.6-1.02,1.39-2.01,2.31-2.75,1.51-1.21,3.1-.4,3.16,1.56.03.86-.15,1.76-.43,2.58-.95,2.81-1.91,5.61-3,8.37-1.79,4.48-3.69,8.92-5.54,13.38Z"/><path class="cls-2" d="m332.63,744.5c0,7.52,0,15.04,0,22.56h-21.89v-22.03c1.11-.05,2.17-.14,3.23-.14,5.03-.01,10.07.02,15.1-.02,1.18,0,2.36-.24,3.55-.36Z"/></svg>