<?xml version="1.0" encoding="UTF-8"?><svg id="Calque_2" xmlns="http://www.w3.org/2000/svg" viewBox="0 0 814.2 183.64"><defs><style>.cls-1{fill:#fff;}.cls-1,.cls-2{stroke-width:0px;}.cls-2{fill:#1d1d1b;}</style></defs><g id="TEST_3_-_PAGE_5_et_6"><rect class="cls-1" x="192.3" y=".38" width="621.9" height="182.89"/><path class="cls-2" d="m323.47,54.75l-30.1,64.65c-.35.68-.93,2.16-1.74,4.42-.81,2.27-1.22,3.69-1.22,4.25,0,.91.2,1.62.61,2.13.4.51,1.01.77,1.83.77,1.62,0,3.88-1.13,6.78-3.4,2.9-2.27,6-5.47,9.31-9.61,3.3-4.14,6.29-8.76,8.96-13.87l2.26,1.02c-3.25,5.9-6.58,11.14-10,15.74-3.42,4.59-7.68,8.45-12.79,11.57-5.1,3.12-11.25,4.68-18.44,4.68-5.8,0-10.15-1.56-13.05-4.68-2.9-3.12-4.35-7.8-4.35-14.03-4.52,6.58-8.84,11.34-12.96,14.29-4.12,2.95-9.42,4.42-15.92,4.42-6.96,0-12.67-2.18-17.13-6.55-4.47-4.37-6.7-10.06-6.7-17.1,0-13.38,6.29-26.79,18.87-40.24,12.58-13.44,26.53-20.16,41.84-20.16,3.59,0,6.84.85,9.74,2.55,2.9,1.7,4.35,4.37,4.35,8l-.52,4.08,6.09-12.93h34.27Zm-42.1,9.19c0-1.81-.38-3.15-1.13-4-.76-.85-1.94-1.28-3.57-1.28-2.2,0-4.73,1.7-7.57,5.1-2.84,3.4-6.52,9.36-11.05,17.86-4.52,8.51-9.05,17.92-13.57,28.24-4.52,10.32-6.78,17.01-6.78,20.08,0,1.02.23,1.82.7,2.38.46.57,1.16.85,2.09.85,3.59,0,7.02-1.73,10.26-5.19,3.25-3.46,5.74-6.41,7.48-8.85,1.74-2.44,4.03-6.58,6.87-12.42,2.84-5.84,6.26-13.36,10.26-22.54,4-9.19,6-15.93,6-20.25Z"/><path class="cls-2" d="m436.72,54.75c-3.83,9.87-7.98,20.33-12.44,31.39-4.47,11.06-10.12,24.36-16.96,39.89-6.84,15.54-15.84,27.56-27,36.07-11.15,8.51-25.74,12.76-43.75,12.76-7.09,0-13.1-1.87-18.04-5.61-4.94-3.74-7.41-8.16-7.41-13.26,0-4.08,1.49-7.73,4.46-10.96,2.98-3.23,7.03-4.84,12.16-4.84,4.43,0,8.22,1.41,11.37,4.25,3.15,2.83,4.72,6.29,4.72,10.36,0,3.63-1.28,6.68-3.83,9.18-2.55,2.49-5.91,3.74-10.09,3.74-1.28,0-1.91.45-1.91,1.36,0,.79.73,1.5,2.18,2.13,1.45.62,3.57.93,6.36.93,6.15,0,11.61-2.58,16.37-7.75,4.76-5.17,9.2-12.15,13.32-20.94,4.12-8.79,8.1-17.45,11.93-25.96l-.52-.17c-3.95,6.26-8.19,11.13-12.72,14.6-4.53,3.47-10.05,5.21-16.56,5.21-6.97,0-12.78-2.21-17.43-6.64-4.65-4.43-6.97-10.21-6.97-17.36,0-13.5,6.06-26.89,18.19-40.17,12.13-13.27,25.96-19.91,41.51-19.91,3.94,0,7.34.85,10.18,2.55,2.84,1.7,4.26,4.59,4.26,8.67l-.17,2.89,5.39-12.41h33.4Zm-41.05,9.69c0-1.93-.41-3.37-1.22-4.34-.81-.96-2.09-1.45-3.83-1.45-1.97,0-4.32,1.67-7.05,5.02-2.73,3.34-6.12,8.9-10.18,16.66-4.06,7.77-8.44,17.23-13.13,28.4-4.7,11.16-7.05,18.22-7.05,21.17,0,1.02.23,1.81.7,2.38.46.57,1.16.85,2.09.85,3.71,0,7.19-1.76,10.44-5.27,3.25-3.51,5.59-6.32,7.05-8.42,1.45-2.09,3.65-6.23,6.61-12.41,2.96-6.18,6.29-13.74,10-22.7,3.71-8.96,5.57-15.59,5.57-19.89Z"/><path class="cls-2" d="m533.61,68.7c0,4.99-1.57,9.25-4.7,12.76-3.13,3.52-7.08,5.27-11.83,5.27-4.17,0-7.8-1.16-10.87-3.49-3.07-2.32-4.61-5.59-4.61-9.78,0-2.04.49-3.91,1.48-5.61.98-1.7,2.06-3.51,3.22-5.44,0-1.02-.58-1.53-1.74-1.53-1.74,0-4.09,2.19-7.05,6.55-2.96,4.37-6.06,9.95-9.31,16.76l-25.22,51.21h-33.92l29.92-64.65c.58-1.13,1.1-2.47,1.57-4,.46-1.53.7-2.92.7-4.17,0-1.02-.17-1.76-.52-2.21-.35-.45-.93-.68-1.74-.68-1.39,0-3.02.74-4.87,2.21-1.86,1.47-3.63,3.26-5.31,5.36-1.68,2.1-3.8,5.13-6.35,9.1-2.55,3.97-4.58,7.37-6.09,10.21l-2.26-.85c7.31-13.72,13.63-22.6,18.96-26.63,5.33-4.02,11.31-6.04,17.92-6.04,5.57,0,9.71,1.7,12.44,5.1,2.72,3.4,4.09,8.06,4.09,13.95,0,2.27-.29,4.54-.87,6.81-.58,2.27-1.1,3.97-1.57,5.1l.52.17c5.33-10.77,10.06-18.66,14.18-23.65,4.12-4.99,9.94-7.49,17.48-7.49,5.45,0,9.54,1.64,12.26,4.93,2.72,3.29,4.09,6.86,4.09,10.72Z"/><path class="cls-2" d="m643.9,54.75l-30.1,64.65c-.35.68-.93,2.16-1.74,4.42-.81,2.27-1.22,3.69-1.22,4.25,0,.91.2,1.62.61,2.13.4.51,1.01.77,1.83.77,1.62,0,3.88-1.13,6.78-3.4,2.9-2.27,6-5.47,9.31-9.61,3.3-4.14,6.29-8.76,8.96-13.87l2.26,1.02c-3.25,5.9-6.58,11.14-10,15.74-3.42,4.59-7.68,8.45-12.79,11.57-5.1,3.12-11.25,4.68-18.44,4.68-5.8,0-10.15-1.56-13.05-4.68-2.9-3.12-4.35-7.8-4.35-14.03-4.52,6.58-8.84,11.34-12.96,14.29-4.12,2.95-9.42,4.42-15.92,4.42-6.96,0-12.67-2.18-17.13-6.55-4.47-4.37-6.7-10.06-6.7-17.1,0-13.38,6.29-26.79,18.87-40.24,12.58-13.44,26.53-20.16,41.84-20.16,3.59,0,6.84.85,9.74,2.55,2.9,1.7,4.35,4.37,4.35,8l-.52,4.08,6.09-12.93h34.27Zm-42.1,9.19c0-1.81-.38-3.15-1.13-4-.76-.85-1.94-1.28-3.57-1.28-2.2,0-4.73,1.7-7.57,5.1-2.84,3.4-6.52,9.36-11.05,17.86-4.52,8.51-9.05,17.92-13.57,28.24-4.52,10.32-6.78,17.01-6.78,20.08,0,1.02.23,1.82.7,2.38.46.57,1.16.85,2.09.85,3.59,0,7.02-1.73,10.26-5.19,3.25-3.46,5.74-6.41,7.48-8.85,1.74-2.44,4.03-6.58,6.87-12.42,2.84-5.84,6.26-13.36,10.26-22.54,4-9.19,6-15.93,6-20.25Z"/><path class="cls-2" d="m668.25,60.19h-18.27l2.26-5.44h18.61c2.78-5.67,7.07-11.99,12.87-18.97,5.8-6.98,12.81-13.1,21.05-18.38,8.23-5.27,16.99-7.91,26.27-7.91,6.78,0,12.3,1.45,16.56,4.34,4.26,2.89,6.4,6.95,6.4,12.16,0,4.31-1.61,7.91-4.81,10.8-3.21,2.89-7.15,4.34-11.81,4.34-3.5,0-6.51-1.05-9.01-3.15-2.51-2.1-3.76-4.79-3.76-8.08,0-3.97,1.27-7.43,3.83-10.38,2.55-2.95,3.83-4.82,3.83-5.61,0-1.02-1.33-1.53-4-1.53-6.26,0-11.48,4.25-15.66,12.76-4.17,8.51-7.48,18.37-9.92,29.6h22.44l-2.26,5.44h-21.4c-.93,4.64-2.26,10.65-4,18.01-1.74,7.36-4.09,15.4-7.05,24.12-2.96,8.72-6.47,16.87-10.52,24.46-4.06,7.59-8.87,14.86-14.44,21.83-5.57,6.96-12.47,13.08-20.7,18.35-8.23,5.26-17.1,7.9-26.62,7.9-6.54,0-12.06-1.78-16.56-5.35-4.5-3.57-6.75-8.19-6.75-13.85,0-3.97,1.63-7.48,4.89-10.53,3.27-3.06,7.17-4.59,11.72-4.59,4.2,0,7.87,1.22,11.02,3.65,3.15,2.44,4.72,5.58,4.72,9.43,0,4.64-1.45,8.49-4.35,11.55-2.9,3.06-4.35,4.81-4.35,5.27,0,1.02.81,1.53,2.44,1.53,5.8,0,10.41-2.38,13.83-7.13,3.42-4.76,6.7-13.31,9.83-25.65,3.13-12.35,6.23-24.46,9.31-36.35,3.07-11.89,5.71-20.72,7.92-26.5,2.2-5.77,4.35-11.15,6.44-16.14Z"/><path class="cls-2" d="m744.63,97.62c-.7,2.15-1.34,4.96-1.92,8.41-.58,3.46-.87,6.32-.87,8.58,0,6.35.9,10.82,2.7,13.42,1.8,2.61,4.44,3.91,7.93,3.91,2.67,0,5.05-.31,7.14-.93,2.09-.62,4.53-1.72,7.32-3.31,2.79-1.58,5.72-3.9,8.8-6.96,3.08-3.05,5.55-6.05,7.41-8.99l2.44,1.7c-4.88,6.7-10.63,12.32-17.25,16.86-6.62,4.54-14.64,6.81-24.04,6.81-8.58,0-16.61-2.52-24.09-7.57-7.48-5.05-11.22-12.45-11.22-22.21,0-13.62,6.3-26.07,18.91-37.36,12.61-11.29,27.45-16.94,44.53-16.94,8.02,0,14.58,1.79,19.69,5.36,5.11,3.57,7.67,7.68,7.67,12.33,0,8.96-5.35,15.68-16.05,20.16-10.7,4.48-23.73,6.72-39.08,6.72Zm.51-2.04c8.12-.9,15.48-5.34,22.09-13.3,6.61-7.96,9.92-14.99,9.92-21.09,0-1.69-.23-2.99-.7-3.9-.47-.9-1.51-1.36-3.13-1.36-2.55,0-5.1,1.36-7.65,4.07-2.55,2.71-5.28,6.49-8.18,11.35-2.9,4.86-5.37,9.29-7.39,13.3-2.03,4.01-3.68,7.65-4.96,10.93Z"/><rect class="cls-2" width="192.39" height="183.64"/><g id="L"><path class="cls-1" d="m87.85,160.17c6.42,0,12.8-3.64,19.17-10.91,6.36-7.27,11.97-15.67,16.84-25.2,4.86-9.52,9.28-19.57,13.23-30.16h2.57v70.83H14.23v-3.17c.85,0,2.06-.03,3.61-.1,1.55-.07,3.9-.33,7.06-.79,3.15-.46,5.43-1.55,6.82-3.27,1.39-1.72,2.25-4.63,2.57-8.73l.32-9.13V45.3l-.32-9.13c-.32-4.23-1.04-7.17-2.17-8.83-1.12-1.65-2.86-2.68-5.21-3.08-2.35-.4-4.39-.63-6.1-.69-1.71-.07-3.26-.16-4.65-.3v-3.17h77.63v3.17l-10.59.59c-3.21.4-5.4,1.39-6.58,2.98-1.18,1.59-1.92,4.56-2.25,8.93l-.32,9.13v115.87l13.79-.59Z"/><path class="cls-1" d="m147.01,66.39c5.25,0,10.05-1.84,14.43-5.54,4.37-3.69,6.56-7.93,6.56-12.7,0-1.09-.14-1.92-.41-2.46-.27-.55-.68-.82-1.23-.82-.88,0-2.02.36-3.44,1.07-1.42.71-2.79,1.07-4.1,1.07-3.83,0-7.08-1.23-9.75-3.7-2.68-2.47-4.02-5.61-4.02-9.45,0-4.27,1.37-7.83,4.1-10.68,2.73-2.85,6.28-4.27,10.66-4.27,5.35,0,9.75,2,13.2,6,3.44,4,5.16,8.79,5.16,14.38,0,8.11-3.01,15.06-9.02,20.87-6.01,5.81-13.28,8.71-21.8,8.71l-.33-2.46Z"/></g></g></svg>