<?xml version="1.0" encoding="UTF-8"?><svg id="Calque_2" xmlns="http://www.w3.org/2000/svg" viewBox="0 0 532.28 508.08"><defs><style>.cls-1{fill:#fff;}.cls-1,.cls-2{stroke-width:0px;}.cls-2{fill:#1d1d1b;}</style></defs><g id="TEST_3_-_PAGE_5_et_6"><rect class="cls-1" width="532.28" height="508.08"/><g id="L"><path class="cls-2" d="m240.95,437.16c17.75,0,35.43-10.06,53.03-30.19,17.6-20.12,33.13-43.36,46.6-69.71,13.46-26.35,25.66-54.15,36.61-83.44h7.1v195.96H37.26v-8.78c2.36,0,5.69-.09,9.98-.27,4.29-.18,10.8-.91,19.53-2.2,8.72-1.28,15.01-4.3,18.86-9.06,3.84-4.75,6.21-12.8,7.1-24.15l.89-25.25V119.34l-.89-25.25c-.89-11.71-2.88-19.85-5.99-24.43-3.11-4.57-7.92-7.41-14.42-8.51-6.51-1.1-12.13-1.73-16.86-1.92-4.74-.18-9.03-.45-12.87-.82v-8.78h214.79v8.78l-29.29,1.65c-8.87,1.1-14.94,3.84-18.19,8.23-3.26,4.39-5.33,12.62-6.21,24.7l-.89,25.25v320.57l38.16-1.65Z"/><path class="cls-2" d="m404.62,177.71c14.51,0,27.82-5.1,39.91-15.31,12.09-10.21,18.14-21.93,18.14-35.15,0-3.03-.38-5.3-1.13-6.82-.76-1.51-1.89-2.27-3.4-2.27-2.42,0-5.6.99-9.53,2.95-3.93,1.97-7.71,2.95-11.34,2.95-10.59,0-19.58-3.41-26.99-10.23-7.41-6.82-11.11-15.53-11.11-26.14,0-11.82,3.78-21.67,11.34-29.55,7.55-7.88,17.38-11.82,29.48-11.82,14.81,0,26.99,5.53,36.51,16.59,9.53,11.07,14.29,24.32,14.29,39.78,0,22.43-8.32,41.67-24.95,57.74-16.63,16.07-36.74,24.09-60.32,24.09l-.91-6.82Z"/></g></g></svg>