<?xml version="1.0" encoding="UTF-8"?><svg id="Calque_2" xmlns="http://www.w3.org/2000/svg" viewBox="0 0 593.93 566.93"><defs><style>.cls-1{fill:#fff;}.cls-1,.cls-2{stroke-width:0px;}.cls-2{fill:#1d1d1b;}</style></defs><g id="TEST_3_-_PAGE_5_et_6"><rect class="cls-2" width="593.93" height="566.93"/><g id="L"><path class="cls-1" d="m271.22,494.47c19.81,0,39.53-11.23,59.17-33.69,19.64-22.45,36.97-48.39,51.99-77.79,15.02-29.4,28.64-60.43,40.85-93.1h7.92v218.66H43.93v-9.8c2.64,0,6.35-.1,11.14-.31,4.78-.2,12.05-1.01,21.79-2.45,9.73-1.42,16.75-4.79,21.05-10.11,4.29-5.3,6.93-14.29,7.92-26.95l.99-28.18V139.83l-.99-28.18c-.99-13.06-3.22-22.15-6.69-27.26-3.47-5.1-8.84-8.27-16.09-9.49-7.27-1.23-13.54-1.93-18.82-2.14-5.28-.2-10.07-.51-14.36-.92v-9.8h239.67v9.8l-32.68,1.84c-9.9,1.23-16.67,4.29-20.3,9.19-3.64,4.9-5.94,14.09-6.93,27.56l-.99,28.18v357.7l42.59-1.84Z"/><path class="cls-1" d="m453.84,204.97c16.19,0,31.04-5.69,44.54-17.09,13.49-11.4,20.24-24.47,20.24-39.22,0-3.38-.43-5.91-1.27-7.61-.85-1.69-2.11-2.54-3.8-2.54-2.7,0-6.25,1.1-10.63,3.3-4.39,2.2-8.6,3.3-12.65,3.3-11.81,0-21.85-3.8-30.11-11.41-8.27-7.61-12.4-17.33-12.4-29.17,0-13.19,4.21-24.18,12.65-32.97,8.43-8.79,19.4-13.19,32.9-13.19,16.53,0,30.11,6.17,40.74,18.52,10.63,12.35,15.94,27.14,15.94,44.39,0,25.03-9.28,46.5-27.83,64.42-18.56,17.93-40.99,26.88-67.31,26.88l-1.01-7.61Z"/></g></g></svg>