<?xml version="1.0" encoding="UTF-8"?><svg id="Calque_1" xmlns="http://www.w3.org/2000/svg" viewBox="0 0 1501.16 531.75"><defs><style>.cls-1{fill:#fefefe;}.cls-1,.cls-2,.cls-3,.cls-4,.cls-5,.cls-6,.cls-7,.cls-8,.cls-9{stroke-width:0px;}.cls-3{fill:none;}.cls-4{fill:#7f7f7f;}.cls-5{fill:#d5d5d5;}.cls-6{fill:#d6d6d6;}.cls-7{fill:#fdfdfd;}.cls-8{fill:#fcfcfc;}.cls-9{fill:#efefef;}</style></defs><circle class="cls-9" cx="359.21" cy="293.33" r="216.27"/><circle class="cls-4" cx="142.94" cy="292.66" r="142.94"/><path class="cls-3" d="m582.89.09c-.47,2.47-3.01,2.66-4.5,4-4.69,4.23-5.74,10.53-2.36,15.83,3.47,5.44,9.5,7.41,15.24,4.8,4.15-1.89,6.59-5.17,7.1-9.77.55-5.01-1.15-8.99-5.31-11.95-1.21-.86-3.25-.82-3.43-2.91C892.28.09,1194.93.1,1497.58,0c3.16,0,3.58.78,3.58,3.71-.08,174.79-.08,349.58,0,524.38,0,3-.54,3.67-3.62,3.67"/><path class="cls-3" d="m143.02,436.02c1.32-1.56,3.17-1.29,4.88-1.29,32.36-.11,61.08-10.81,86.11-30.9,29.28-23.51,47.29-54.11,52.22-91.43,5.42-41.06-4.3-78.53-30.87-110.76-23.89-28.99-54.7-46.4-92.05-51.07-41.11-5.13-78.14,5.51-110.04,32-28.61,23.75-44.95,54.63-50.2,91.42-.19,1.31.33,3.15-1.82,3.51"/><path class="cls-3" d="m4.46,531.73c-2.62,0-3.3-.43-3.29-3.22.1-73.67.08-147.35.08-221.02,1.83,4.62,1.72,9.62,2.85,14.4,12.61,53.1,44.69,88.72,95.98,107.01,12.12,4.32,24.76,6.42,37.63,6.95,1.69.66,3.56-.26,5.23.57,0,0-.02-.01-.02-.01"/><path class="cls-2" d="m589.64.09c6.21,2.66,10.38,6.87,10.02,14.1-.34,6.64-5.52,11.9-12.11,12.69-5.92.7-12.38-3.89-14.09-10.03-1.71-6.11,1.4-12.65,7.31-15.63.71-.36,1.87.05,2.13-1.13h6.75Z"/><path class="cls-2" d="m1026.03,315.61c5.1,26.6,22.33,41.96,48.96,44.47,18.25,1.72,35.83.11,52.44-8.27,7.21-3.64,13.65-8.3,18.91-14.43,1.49-1.73,2.29-1.77,4.07-.34,18.11,14.52,36.28,28.98,54.55,43.31,2.28,1.79,2.2,2.76.49,4.85-18.56,22.68-42.27,37.42-70.44,44.73-37.24,9.66-74.32,8.66-110.24-5.56-45.32-17.94-72.2-52.05-81.87-99.36-7.46-36.48-3.7-72.12,13.22-105.66,19.58-38.82,51.51-61.27,94.12-68.55,26.25-4.48,52.31-3.39,77.42,6.06,41.96,15.79,65.98,46.61,73.56,90.44,3.73,21.54,2.05,43.01-2.24,64.34-.62,3.09-1.87,4.06-5.12,4.05-54.46-.12-108.92-.09-163.38-.09h-4.45Z"/><path class="cls-2" d="m782.71,322.99c12.6-36.86,25.17-73.6,37.72-110.35,5.79-16.96,11.57-33.93,17.33-50.9.54-1.58.93-2.77,3.16-2.76,28.86.1,57.71.07,86.57.08.24,0,.48.1,1.12.25-2.81,8.24-5.59,16.44-8.41,24.64-23.72,69.1-47.45,138.21-71.17,207.31-3.59,10.47-7.18,20.95-10.67,31.45-.64,1.92-1.48,2.68-3.66,2.68-35.1-.08-70.21-.09-105.31.01-2.56,0-3.05-1.26-3.7-3.15-13.26-38.75-26.58-77.47-39.86-116.21-16.44-47.92-32.86-95.84-49.29-143.75-.32-.93-.6-1.87-.9-2.83,1.31-.72,2.56-.38,3.74-.38,27.48-.02,54.97.04,82.45-.1,2.94-.01,4,1.02,4.89,3.61,18.16,52.85,36.41,105.67,54.64,158.49.23.67.12,1.55,1.34,1.93Z"/><path class="cls-2" d="m570.91,332.83c20.58,15.61,41.15,31.22,61.73,46.82,3.83,2.9,3.84,2.88.8,6.54-22.9,27.57-52.39,43.27-87.67,48.05-32.04,4.34-63.27,1.07-92.76-12.84-38.88-18.35-63.27-49.07-73.54-90.52-9.8-39.52-5.8-77.86,14.48-113.6,20.09-35.39,51.12-56.35,90.48-64.81,34.33-7.38,68.18-5.58,100.71,8.82,19.38,8.58,35.67,21.26,49.01,37.77,1.82,2.25,1.81,3.25-.59,5.04-20.26,15.19-40.41,30.53-60.59,45.84-.48.37-.9.82-1.35,1.24-2.34,1.28-3.08-.88-4.09-2.06-6.55-7.62-14.18-13.73-23.81-16.93-20.32-6.74-39.69-5.27-57.28,7.68-10.63,7.83-17.23,18.7-20.59,31.35-4.48,16.88-4.1,33.78,2.73,49.95,8.22,19.44,23.21,30.77,44.12,34.02,16.69,2.59,32.02-.69,45.59-11.04,3.49-2.66,6.36-5.98,9.4-9.11.92-.95,1.52-2.38,3.22-2.21Z"/><path class="cls-2" d="m1238.81,289.78c.5-35.1,11.38-68.9,37.25-96.98,19.36-21.01,43.48-34.02,71.23-40.02,36.06-7.8,71.39-5.99,105.24,9.97,18.11,8.54,33.34,20.82,45.93,36.41,1.69,2.09,1.85,3.01-.52,4.78-20.27,15.19-40.43,30.53-60.57,45.89-1.79,1.36-2.66,1.61-4.31-.42-16.34-20.03-37.83-25.8-62.13-20.18-24.05,5.57-37.85,22.26-42.86,45.88-4.29,20.2-2.28,39.87,9.73,57.39,11.02,16.08,27.02,23.55,46.16,24.4,20.29.9,37.02-6.46,49.64-22.6.98-1.25,1.58-1.45,2.92-.43,20.75,15.8,41.52,31.57,62.35,47.26,2.59,1.95.37,2.96-.51,4.06-17.3,21.56-39.19,36.71-65.75,44.03-46.08,12.69-90.62,8.79-131.67-16.97-31.69-19.9-50.16-49.55-58.4-85.78-2.55-11.23-3.61-22.65-3.72-36.71Z"/><path class="cls-2" d="m1048.36,97.8c0,11.24-.1,21.97.07,32.7.04,2.66-.69,3.35-3.29,3.24-5.11-.22-10.24-.14-15.35-.03-1.95.04-2.83-.3-2.83-2.58.07-31.47.08-62.95,0-94.42,0-2.5,1-2.83,3.1-2.78,4.99.12,9.99.14,14.98,0,2.21-.07,3.88.06,3.42,3,12.4-7.66,24.84-7.75,36.65-.45,12.24,7.57,15.93,19.88,15.46,33.64-.16,4.75-1.27,9.37-3.12,13.8-9.09,21.8-35.58,24.36-49.09,13.91Z"/><path class="cls-2" d="m507.19,54.25c0-14.37.07-28.73-.06-43.09-.02-2.62.66-3.28,3.27-3.26,16.98.13,33.97.14,50.95,0,2.86-.02,3.65.77,3.49,3.57-.24,4.23-.23,8.5,0,12.73.15,2.73-.53,3.65-3.45,3.58-9.11-.21-18.23.02-27.35-.14-2.5-.04-3.19.7-3.05,3.11.2,3.49.16,7,0,10.49-.09,1.97.54,2.53,2.5,2.5,7.49-.11,14.99.07,22.48-.1,2.65-.06,3.81.41,3.62,3.41-.28,4.48-.2,8.99-.02,13.48.09,2.32-.64,3-2.94,2.96-7.37-.13-14.74.07-22.1-.11-2.72-.07-3.62.52-3.57,3.45.2,10.36-.01,20.74.14,31.1.04,2.64-.69,3.41-3.33,3.32-5.86-.2-11.74-.2-17.6,0-2.55.09-3.06-.77-3.04-3.15.1-14.61.05-29.23.05-43.84Z"/><path class="cls-2" d="m935.28,73.44c1.39,6.1,4.7,9.71,10.72,10.77,6.89,1.22,13.17.13,18.49-4.62,1.22-1.09,1.95-.99,3.11-.04,3.76,3.09,7.52,6.18,11.44,9.06,1.95,1.43,1.35,2.34.06,3.73-5.75,6.23-12.93,9.77-21.22,10.8-14.66,1.81-27.95-.88-37.55-13.32-12.71-16.48-8.87-49.83,16.84-57.02,7-1.96,14.09-2.05,21.08-.19,13.88,3.7,22.49,16.34,21.51,31.16q-.64,9.66-10.24,9.66h-34.25Z"/><path class="cls-2" d="m1150.13,96.37c-8.38,6.44-16.97,7.9-26.17,5.66-8.7-2.11-14.03-8.3-15.04-16.98-1.04-8.9,2.6-15.54,10.79-19.88,6.32-3.35,13.34-3.82,20.17-5.08,2.57-.47,5.14-1.15,7.73-1.31,2.71-.17,2.4-1.65,1.69-3.22-1.72-3.79-4.97-5.5-8.93-5.83-4.77-.4-8.89,1.26-11.98,4.9-1.41,1.66-2.3,2.02-4.12.5-3.54-2.96-7.21-5.78-11.03-8.36-2.25-1.52-1.87-2.63-.35-4.3,3.96-4.34,8.72-7.46,14.27-9.23,7.79-2.47,15.76-2.61,23.63-.64,12.76,3.19,20.23,12.87,20.34,26.13.1,13.11-.03,26.22.07,39.33.02,2.39-.53,3.29-3.08,3.18-4.61-.21-9.24-.19-13.85-.01-2.99.12-5.26-.12-4.16-4.86Z"/><path class="cls-2" d="m1348.57,58.37c-1.06-6.27-6.09-9.62-12.72-8.56-3.02.48-5.97,1.53-7.82,3.99-2.26,3-3.99,2.41-6.43.26-2.98-2.63-6.2-5.05-9.52-7.23-2.44-1.6-1.92-2.75-.28-4.51,4.47-4.79,9.83-8.08,16.13-9.64,8.02-1.99,16.1-1.95,24,.6,10.53,3.4,17.45,12.11,17.79,23.43.43,14.1.14,28.21.22,42.32,0,1.54-.35,2.22-2.06,2.19-5.62-.09-11.24-.18-16.85.01-3.71.13-1.47-2.88-2.66-4.38-5.82,4.39-12.4,6.39-19.76,6.11-13.34-.51-21.56-9.12-21-22.4.31-7.24,4.58-11.87,10.56-15.21,6.25-3.49,13.31-3.94,20.15-5.21,3.41-.63,6.85-1.18,10.27-1.76Z"/><path class="cls-2" d="m730.59,96.39c-9.24,6.83-18.52,8.28-28.4,4.91-7.51-2.56-11.82-8.04-12.85-15.93-1.1-8.4,2.02-14.83,9.24-19.31,6.58-4.08,14.13-4.56,21.44-5.93,2.69-.5,5.38-1.19,8.09-1.37,2.76-.18,2.32-1.58,1.61-3.19-1.7-3.84-4.97-5.49-8.9-5.83-4.77-.42-8.95,1.19-11.97,4.89-1.64,2.01-2.65,1.73-4.4.3-3.57-2.92-7.27-5.69-11.03-8.35-1.73-1.22-1.84-2.09-.42-3.69,5.17-5.82,11.56-9.41,19.18-10.73,7.86-1.37,15.7-1.26,23.17,1.83,10.24,4.23,15.75,12.21,16.07,23.13.42,13.85.05,27.71.17,41.57.02,2.33-.94,2.59-2.86,2.55-4.62-.11-9.25-.22-13.85.03-3.21.18-5.44-.14-4.29-4.86Z"/><path class="cls-2" d="m788.16,37.25c7.12-5.66,14.92-6.87,23.04-5.38,10.9,2,18.4,10.92,19.81,22.95,1.3,11.08.34,22.21.59,33.31.08,3.37-.12,6.75.06,10.12.12,2.26-.5,3.07-2.89,2.98-5.11-.18-10.24-.2-15.36,0-2.61.1-3.38-.63-3.35-3.3.14-11.74.14-23.49.02-35.23-.07-6.88-3.18-10.64-8.94-11.42-6.69-.91-13.25,4.74-13.25,11.43,0,11.62-.11,23.24.07,34.85.05,3.05-.9,3.79-3.78,3.66-5.11-.23-10.24-.13-15.36-.03-1.8.04-2.34-.51-2.33-2.31.05-20.86.07-41.72-.01-62.59,0-2.12.81-2.44,2.63-2.4,4.99.1,9.99.13,14.98,0,2.26-.06,4.19-.04,4.06,3.34Z"/><path class="cls-2" d="m633.98,37.45c7.19-5.73,14.84-6.98,22.83-5.66,11.6,1.91,19.97,11.78,20.43,24.79.5,14.1.15,28.23.25,42.35.01,1.84-.63,2.33-2.38,2.29-5.37-.1-10.75-.17-16.11.03-2.48.09-2.83-.87-2.82-3.02.09-11.74.08-23.49.03-35.23-.03-6.71-2.77-10.4-8.36-11.52-6.99-1.4-13.87,4.22-13.87,11.35,0,11.62-.08,23.24.06,34.86.03,2.66-.41,3.76-3.41,3.59-5.11-.29-10.24-.16-15.36-.04-1.94.05-2.57-.5-2.56-2.5.06-20.74.08-41.48-.01-62.22,0-2.31.9-2.63,2.86-2.59,5.12.11,10.24.14,15.36-.01,2.16-.07,3.57.28,3.05,3.54Z"/><path class="cls-2" d="m880,31.43c10.51-.11,19.47,3.44,26.78,11.13,1.63,1.71,1.57,2.6-.37,3.97-4.18,2.95-8.25,6.05-12.23,9.26-1.55,1.25-2.36,1.35-3.9-.17-5.75-5.65-14.47-5.89-20.36-.8-5.9,5.09-7.01,15.85-2.35,22.67,4.13,6.04,12.6,7.98,19.33,4.42.55-.29,1.25-.5,1.58-.96,2.87-4.08,5.4-2.35,8.27.15,3.1,2.7,6.43,5.15,9.82,7.48,1.88,1.29,1.72,2.16.31,3.69-8.47,9.17-19.15,12.03-31.2,11.26-15.64-.99-28.26-11.43-31.92-26.51-3.95-16.28,2.22-32.41,15.48-40.46,5.8-3.52,12.33-5.13,20.77-5.15Z"/><path class="cls-2" d="m1273.97,51.09c0-15.47.07-30.94-.06-46.41-.02-2.6.59-3.39,3.25-3.27,5.23.23,10.48.15,15.71.02,1.98-.05,2.5.59,2.5,2.53-.05,31.57-.05,63.13,0,94.7,0,1.92-.55,2.62-2.54,2.57-5.36-.12-10.73-.18-16.09.02-2.47.1-2.81-.84-2.8-3,.08-15.72.04-31.44.04-47.16Z"/><path class="cls-2" d="m1207.24,39.13c5.35-4.24,10.62-6.7,16.9-6.44,5.6.23,5.61.15,5.61,5.56,0,5.35,0,10.71,0,16.2-5.04-.61-9.91-1.62-14.55.38-6.14,2.64-8.14,4.17-7.91,10.85.38,10.85.05,21.71.15,32.57.02,2.18-.39,3.09-2.84,3-5.36-.2-10.73-.12-16.09-.03-1.75.03-2.39-.46-2.38-2.29.05-20.84.06-41.69,0-62.53,0-2.02.67-2.53,2.58-2.48,4.61.12,9.24.23,13.85-.02,3.46-.19,5.84.24,4.7,5.24Z"/><path class="cls-2" d="m597.01,67.94c0,10.12-.07,20.23.05,30.35.03,2.31-.61,3.02-2.93,2.94-5.36-.17-10.74-.13-16.1-.01-1.98.04-2.55-.6-2.54-2.56.06-20.73.06-41.47,0-62.2,0-1.96.57-2.6,2.54-2.55,5.37.12,10.74.16,16.1-.01,2.33-.07,2.96.64,2.93,2.94-.12,10.37-.05,20.73-.05,31.1Z"/><path class="cls-2" d="m976.29,1.47c-5.38,7.35-10.24,13.96-15.07,20.59-.62.85-1.25,1.42-2.41,1.41-6.08-.05-12.17-.02-18.93-.02,4.52-7.33,8.73-14.15,12.93-20.99.53-.87,1.29-1.01,2.21-1,6.83.02,13.65.01,21.28.01Z"/><path class="cls-6" d="m177.24,111.81c-.67,1.31-1.2,1.91-2.3,2.12,0-1.32.81-1.67,2.3-2.12Z"/><path class="cls-5" d="m156.35,132.09c-.31,1.6-.8,2.27-1.9,2.5-.2-1.28.76-1.64,1.9-2.5Z"/><path class="cls-1" d="m1073.97,256.13c-14.48,0-28.95,0-43.43,0q-4.33,0-3.06-4.26c9.7-32.6,47.37-46.72,75.42-28.17,10.44,6.9,16.34,16.78,18.44,29.1.47,2.76-.11,3.4-2.83,3.38-14.85-.11-29.7-.05-44.55-.05Z"/><path class="cls-1" d="m1048.38,67.94c.02-5.17-.98-9.84,3.94-12.95,4.87-3.08,9.85-4.6,15.54-3.2,7.01,1.72,11.4,8.45,10.82,16.65-.53,7.64-4.07,12.76-10.11,14.61-6.55,2.01-15.15-.61-19.2-6-2.24-2.99-.39-6.55-1-9.11Z"/><path class="cls-8" d="m958.88,58.45c-7.11,0-14.21-.05-21.3.03-1.77.02-2.13-.47-1.66-2.14,1.42-5.02,6.63-8.31,12.61-7.83,6.02.49,9.67,3.92,10.35,9.94Z"/><path class="cls-7" d="m1137.41,86.44c-4.89-.01-7.24-1.62-7.62-4.73-.39-3.16,1.25-5.15,5.61-6.13,4.12-.93,8.34-1.38,12.46-2.28,1.96-.43,1.99.47,2.09,1.9.34,5.24-3.28,9.47-9.53,10.9-1.2.27-2.47.29-3,.35Z"/><path class="cls-7" d="m1335.42,86.45c-3.18-.04-6.03-.71-6.76-4.4-.66-3.28.93-5.37,5.16-6.36,4.34-1.02,8.78-1.57,13.14-2.48,1.75-.37,1.71.49,1.88,1.75.51,3.76-1.04,6.4-4.01,8.52-2.84,2.02-5.94,3.02-9.41,2.97Z"/><path class="cls-7" d="m730.27,76.3c.63,2.68-.54,4.24-2.01,5.67-3.61,3.52-7.97,4.93-12.93,4.36-2.7-.31-4.66-1.62-5.08-4.55-.42-2.96,1.09-4.8,3.69-5.67,4.84-1.63,9.93-2.11,14.94-2.86,3.26-.49.33,2.6,1.39,3.05Z"/></svg>