<?xml version="1.0" encoding="UTF-8"?><svg id="Calque_1" xmlns="http://www.w3.org/2000/svg" viewBox="0 0 495.75 450"><defs><style>.cls-1{fill:#a3a3a3;}.cls-1,.cls-2,.cls-3,.cls-4,.cls-5,.cls-6,.cls-7,.cls-8,.cls-9,.cls-10,.cls-11,.cls-12,.cls-13,.cls-14,.cls-15,.cls-16,.cls-17,.cls-18,.cls-19,.cls-20,.cls-21,.cls-22,.cls-23,.cls-24,.cls-25,.cls-26,.cls-27,.cls-28,.cls-29,.cls-30,.cls-31,.cls-32,.cls-33,.cls-34,.cls-35,.cls-36,.cls-37,.cls-38,.cls-39,.cls-40,.cls-41,.cls-42,.cls-43,.cls-44,.cls-45,.cls-46,.cls-47,.cls-48,.cls-49,.cls-50,.cls-51,.cls-52,.cls-53,.cls-54,.cls-55,.cls-56,.cls-57,.cls-58,.cls-59,.cls-60,.cls-61,.cls-62,.cls-63,.cls-64,.cls-65,.cls-66,.cls-67,.cls-68,.cls-69,.cls-70,.cls-71,.cls-72,.cls-73{stroke-width:0px;}.cls-2{fill:#fefefe;}.cls-3{fill:#cdcdcd;}.cls-4{fill:#3f3f3f;}.cls-5{fill:#4d4d4d;}.cls-6{fill:#dcdcdc;}.cls-7{fill:#6c6c6c;}.cls-8{fill:#0e0e0e;}.cls-9{fill:#f3f3f3;}.cls-10{fill:#060606;}.cls-11{fill:#040404;}.cls-12{fill:#121212;}.cls-13{fill:#030303;}.cls-14{fill:#050505;}.cls-15{fill:#ececec;}.cls-16{fill:#8c8c8c;}.cls-17{fill:#505050;}.cls-18{fill:#e6e6e6;}.cls-19{fill:#010101;}.cls-20{fill:#f7f7f7;}.cls-22{fill:#0f0f0f;}.cls-23{fill:#9c9c9c;}.cls-24{fill:#c2c2c2;}.cls-25{fill:#c4c4c4;}.cls-26{fill:#f5f5f5;}.cls-27{fill:#909090;}.cls-28{fill:#b9b9b9;}.cls-29{fill:#333;}.cls-30{fill:#bfbfbf;}.cls-31{fill:#3b3b3b;}.cls-32{fill:#0d0d0d;}.cls-33{fill:#f6f6f6;}.cls-34{fill:#d4d4d4;}.cls-35{fill:#0c0c0c;}.cls-36{fill:#ededed;}.cls-37{fill:#f8f8f8;}.cls-38{fill:#5f5f5f;}.cls-39{fill:#dedede;}.cls-40{fill:#595959;}.cls-41{fill:#4c4c4c;}.cls-42{fill:#d3d3d3;}.cls-43{fill:#575757;}.cls-44{fill:#4e4e4e;}.cls-45{fill:#b5b5b5;}.cls-46{fill:#d9d9d9;}.cls-47{fill:#434343;}.cls-48{fill:#4f4f4f;}.cls-49{fill:#f4f4f4;}.cls-50{fill:#a6a6a6;}.cls-51{fill:#101010;}.cls-52{fill:#0b0b0b;}.cls-53{fill:#404040;}.cls-54{fill:#838383;}.cls-55{fill:#313131;}.cls-56{fill:#090909;}.cls-57{fill:#3a3a3a;}.cls-58{fill:#979797;}.cls-59{fill:#282828;}.cls-60{fill:#6f6f6f;}.cls-61{fill:#c9c9c9;}.cls-62{fill:#fdfdfd;}.cls-63{fill:#292929;}.cls-64{fill:#191919;}.cls-65{fill:#0a0a0a;}.cls-66{fill:#525252;}.cls-67{fill:#070707;}.cls-68{fill:#f2f2f2;}.cls-69{fill:#aaa;}.cls-70{fill:#080808;}.cls-71{fill:#303030;}.cls-72{fill:#131313;}.cls-73{fill:#111;}</style></defs><path class="cls-2" d="m262.1.07C338.96.07,415.82.09,492.68,0c2.56,0,3.07.5,3.07,3.07-.08,147.96-.08,295.91,0,443.87,0,2.56-.5,3.07-3.07,3.06-163.21-.08-326.41-.08-489.62,0-2.56,0-3.07-.5-3.07-3.06.09-72.61.07-145.21.07-217.82.93-.9,1.43-2.21,2.61-2.9,2.06-.53,4.07-1.19,5.99-2.11,9.74-4.09,19.41-8.29,29.37-11.86,33-11.82,66.3-22.67,100.05-32.14,45.9-12.88,92.32-23.42,139.39-31.07,24.11-3.92,48.31-7.19,72.64-9.49,20.83-1.97,41.68-3.53,62.59-4.58,10.08-.51,20.17,0,30.24-1.11,6.27-.69,12.63.31,18.93.91.81.04,1.63.03,2.44.03.24,0,.47,0,.68,0-.35,0-.7,0-1.08,0-4.41-.17-8.77-.73-13.16-.83-3.31-.08-5.45-1.45-6.88-4.76-11.58-26.89-29.01-49.62-50.69-69.03-22.3-19.96-47.44-35.41-75.83-45.36-16.29-5.71-32.92-9.8-50.11-11.55-1.91-.19-4.03-.26-5.37-2.11-.14-.4-.07-.76.2-1.09Z"/><path class="cls-2" d="m.07,228.37C.07,153.33.09,78.29,0,3.25,0,.56.55,0,3.25,0c73.31.09,146.61.07,219.92.07.02,3.16-2.64,2.94-4.49,3.19-8.9,1.16-17.76,2.53-26.51,4.58-19.79,4.62-38.52,11.96-56.33,21.73-18.26,10.01-34.93,22.22-49.83,36.68-15.73,15.26-28.93,32.6-39.53,51.84-11.58,21.04-19.43,43.4-23.18,67.15-1.48,9.35-2.67,18.76-2.61,28.23.03,4-1.33,6.5-5.03,7.88-2.78,1.03-5.43,2.37-8.03,3.78-1.72.89-3.56,1.58-5.18,2.67-.8.16-1.43,1.02-2.38.57Z"/><path class="cls-13" d="m6.87,224.72c3.86-2.27,9.04-3.7,11.18-7.07,2.04-3.2.91-8.42,1.16-12.75C24.86,107.12,101.65,24.91,197,4.79c7.07-1.49,14.21-2.63,21.41-3.4,1.6-.17,3.53.34,4.76-1.32h5.24c1.75.6,3.49.6,5.24,0h17.22c1.5.59,2.99.59,4.49,0h1.5c1.67.95,3.59-.15,5.27.66,69.76,7.49,125.14,39.76,166.19,96.58,7.02,9.72,12.7,20.27,17.28,31.35,1,2.41,2.35,3.42,4.88,3.66,4.58.43,9.14,1.18,13.7,1.8.43,1.46-1.08.78-1.47,1.34-17.45.22-34.9.7-52.34,1.49-25.8,1.16-51.51,3.3-77.15,6.24-41.88,4.81-83.39,11.86-124.52,21.09-67.82,15.23-134.13,35.44-198.9,60.68-.46.18-.94.32-1.41.48-.8.36-1.51.54-1.53-.73Z"/><path class="cls-28" d="m262.13.74c-1.79.02-3.64.55-5.27-.66h5.24c.01.22.03.44.03.66Z"/><path class="cls-38" d="m233.65.07c-1.75.8-3.49,1.34-5.24,0h5.24Z"/><path class="cls-29" d="m255.36.07c-1.5,1.13-2.99.82-4.49,0h4.49Z"/><path class="cls-50" d="m.07,228.37c.62-.25,1.24-.5,1.86-.76.47-.37.89-.31,1.24.17-1.03.44-2.07.89-3.1,1.33,0-.25,0-.5,0-.75Z"/><path class="cls-14" d="m478.39,246.23c-2.62,0-5.25.18-7.85-.03-2.62-.22-3.31.8-3.53,3.32-2.28,26.23-8.93,51.32-20.87,74.8-29.46,57.96-75.55,97.06-137.74,115.04-81.99,23.7-155.53,5.74-219.42-50.75-17.52-15.49-31.25-34.2-42.03-54.98-1.29-2.49-2.48-3.21-5.14-1.96-3.26,1.53-6.73,2.59-10.11,3.86-.79.27-1.58.54-1.63-.76,25.59-14.89,52.44-27.12,79.9-38.06,58.93-23.48,119.81-39.85,182.52-49.33,51.57-7.8,103.4-10.5,155.48-6.9,13.93.96,27.8,2.51,41.63,4.45-.11,1.6-1.36.96-2.15,1.01-3.01.22-6.05-.31-9.05.29Z"/><path class="cls-21" d="m400.48,189.56c-.28,7.61.33,15.18.85,22.75.18,2.57-.16,4.92-3.08,5.52-2.38.49-4.03-1.98-4.23-5.38-.73-12.18-1.58-24.36-2.35-36.54-.26-4.09-.5-8.17-.62-12.27-.07-2.42.15-5.08,3.11-5.58,3.33-.56,4.96,1.77,5.82,4.6,2.78,9.14,6.86,17.82,9.36,27.16,1.62-.73,1-1.86.97-2.69-.25-8.22-.52-16.44-.91-24.65-.13-2.81.58-5.47,3.5-5.59,2.98-.12,3.93,2.66,4.01,5.35.46,15.28.86,30.56,1.3,45.84.04,1.36.18,2.73.34,4.09.29,2.47-.49,4.14-3.16,4.57-2.61.41-3.88-1.03-4.64-3.26-2.76-8.07-5.52-16.15-8.3-24.22-.32-.94-.77-1.84-1.17-2.75-2.12.53-.76,1.97-.8,3.04Z"/><path class="cls-21" d="m46.1,234.3c6.62.19,12.12,4.54,13.67,10.47.99,3.81,1.52,7.74,2.24,11.62.09.48.28,1.14.06,1.46-2.84,4.23.08,7.21,2.23,10.29,3.21,4.58,6.52,9.09,9.82,13.61,1.19,1.64,2.85,3.45.58,5.12-1.92,1.4-4.34,1.36-6-.77-3.5-4.46-6.88-9.01-10.31-13.53-.15-.2-.22-.45-.38-.64-1.45-1.78-2.83-4.69-5.42-3.34-2.28,1.19-.38,3.63.07,5.62,1.12,5.01,4.15,9.18,5.73,13.99.77,2.33,1.56,4.53-1.16,5.71-2.62,1.15-4.4-.14-5.49-2.82-4.43-10.96-8.97-21.88-13.47-32.82-1.99-4.83-3.89-9.69-5.99-14.48-.9-2.05-.74-3.84,1.13-4.87,4.25-2.34,8.68-4.32,12.7-4.64Z"/><path class="cls-21" d="m319.29,164.5c8.7.31,12.8,3.29,14.11,11.37,1.89,11.72,3.22,23.54,3.47,35.43.19,8.97-4.01,11.5-12.9,13.29-1.09.22-2.22.25-3.33.3-2.49.13-4.3-.47-4.61-3.47-.74-7.26-1.74-14.52-2.78-21.7-1.22-8.44-2.2-16.92-3.47-25.35-1.3-8.59-.27-9.78,8.46-9.88.5,0,1,0,1.04,0Z"/><path class="cls-21" d="m100.58,268.75c-.09,5.08-1.63,10.19-8.7,11.77-4.79,1.07-10.5-1.49-12.94-6.66-2.11-4.47-3.69-9.18-5.41-13.83-2.62-7.07-5.15-14.17-7.72-21.26-1.6-4.43.82-12,4.46-13.92,5.88-3.12,12.08-1.82,15.91,2.84,3.95,4.81,4.6,10.92,6.89,16.36,2.5,5.93,4.19,12.2,6.34,18.29.76,2.15.98,4.35,1.17,6.41Z"/><path class="cls-21" d="m307.28,213.03c-.28,2.69.15,4.4-.61,6.13-2.4,5.46-7.32,9.42-11.28,8.84-5.73-.84-10.64-6.8-11.42-13.61-1.17-10.28-3.12-20.44-4.89-30.62-.53-3.05-.71-6.17-1.08-9.25-.29-2.36.07-4.19,2.93-4.64,2.94-.46,3.59,1.24,4.04,3.59,2.32,12.05,3.88,24.21,5.56,36.36.29,2.09.73,4.14,1.34,6.19.8,2.71,3.15,3.17,4.97,2.93,1.89-.25,3.33-2.15,3.04-4.49-.66-5.32-1.34-10.63-2.09-15.94-1.24-8.76-2.5-17.52-3.86-26.26-.39-2.49.27-4.46,2.73-4.9,2.37-.42,4.47.59,4.86,3.39,1.98,14.41,3.93,28.82,5.76,42.29Z"/><path class="cls-21" d="m359.29,213.94c1.6-7.76,1.22-16.01,2.39-24.15,1-6.99,1.16-14.1,1.76-21.14.18-2.09.39-4.22.95-6.22.55-1.95,2.01-3.05,4.24-2.89,2.26.17,3.61,1.17,4.18,3.49,2.16,8.78,4.4,17.55,6.7,26.3,2.03,7.7,4.1,15.38,6.32,23.02.64,2.2.87,4.15-.78,5.9-1.08,1.15-2.44,1.03-3.81.5-2.27-.87-3.06-2.59-3.29-4.93-.3-3.06-.38-6.51-4.45-7.23-3.88-.69-6.19,1.33-6.63,5.64-.06.61.14,1.23.15,1.85.09,3.89-1.54,6.28-4.41,6.14-4.18-.2-2.79-3.59-3.32-6.27Z"/><path class="cls-21" d="m34.08,270.34c-.02,4.36-1.19,8.05-5.54,10.47-4.49,2.5-4.45,4.19-2.03,8.69,2.08,3.87,3.6,8.04,5.29,12.11.65,1.56.22,2.85-1.33,3.81-1.68,1.05-3.06.62-4.44-.49-1.13-.9-1.55-2.23-2.1-3.48-6.74-15.2-13.47-30.4-20.25-45.58-.65-1.44-.75-2.92.43-3.76,4.81-3.39,9.8-6.5,16.14-5.11,3.18.7,5.93,2.43,7.37,5.22,2.44,4.75,4.33,9.78,6.46,14.69.48,1.11.15,2.21,0,3.43Z"/><path class="cls-21" d="m463.58,156.14c8.99.48,10.52,2.59,12.11,11.42.36,2.01.24,4.5-2.81,4.74-2.68.21-4.18-.96-4.3-3.85-.11-2.72-1.76-4.76-4.39-4.53-2.34.21-3.91,2.02-4.4,4.79-.87,4.9,1.82,8.34,4.35,11.8,1.38,1.88,2.82,3.89,4.51,5.4,7.08,6.34,7.1,14.4,5.97,22.72-.64,4.73-3.99,7.17-9.58,7.73-7.99.81-14.92-6.51-13.4-14.34.35-1.81,1.43-3.47,3.73-3.62,2.29-.14,3.02,1.18,3.29,3.17.13.97.72,1.89.83,2.86.32,2.69,1.39,4.59,4.45,4.26,2.36-.26,4.37-3.45,4.15-6.26-.45-5.72-3.66-9.83-7.56-13.72-6.93-6.9-10.46-14.93-7.47-24.89,1.54-5.15,5.01-7.75,10.51-7.68Z"/><path class="cls-21" d="m192.85,248.51c-5.03-.08-11.84-6.99-11.32-11.75.17-1.59.58-3.48,2.8-3.95,2.15-.45,3.24.47,3.92,2.41.32.92,1.14,1.65,1.51,2.56,1.05,2.53,2.73,4.15,5.4,2.6,2.45-1.42,3.41-3.9,2.39-6.73-1.82-5.04-5.38-8.58-10.03-11.08-7.07-3.8-11.92-9.27-14.2-17.15-2.74-9.46,5.05-18.18,14.76-16.18,3.85.8,8.75,7.47,8.32,11.32-.15,1.37-.73,2.37-2.18,2.66-1.46.29-2.91.74-4.03-.87-.52-.75-.64-1.6-1-2.36-1-2.09-2.94-3.55-5.08-2.84-2.27.76-3.44,2.82-3.22,5.59.46,5.67,4.52,8.5,8.5,11.45,4.81,3.57,10.45,6.09,13.02,12.26,1.37,3.28,2.3,6.58,2.76,10.01,1.01,7.59-3.8,12.18-12.33,12.04Z"/><path class="cls-21" d="m236.37,177.52c2.57-.17,3.91.73,4.37,2.73.43,1.86.09,3.53-1.82,4.42-1.92.89-3.92,1.54-6.07,1.72-3.66.31-5.36,2.65-4.63,6.24.52,2.56.99,5.14,1.61,7.67.87,3.56,2.88,4.62,6.39,3.5,1.39-.44,2.6-1.31,4.27-.82,2.2.66,3.6,1.97,3.49,4.2-.1,2.01-.89,3.61-3.4,4.22-7.97,1.96-7.95,2.08-6.32,10.21.27,1.34.52,2.69.9,4.01,1.1,3.81,2.53,4.61,6.27,3.53,2.06-.6,4.13-.92,6.27-.55,2.27.39,2.91,2.15,3.23,4.05.32,1.9-.68,2.99-2.48,3.58-4.51,1.49-9.13,2.46-13.77,3.39-2.53.51-4.14-.65-4.65-3.12-1.56-7.54-2.97-15.12-4.6-22.65-1.76-8.13-3.7-16.22-5.56-24.33-.17-.73-.38-1.45-.45-2.19-.55-6.12-.38-6.33,5.75-7.55,3.91-.78,7.81-1.57,11.19-2.26Z"/><path class="cls-21" d="m117.46,210.51c-.21-1.66.71-2.58,2.15-3.03,4.75-1.49,9.49-3.01,14.27-4.39,2-.58,3.81-.1,4.55,2.1.7,2.08.44,3.95-1.82,5.05-1.68.82-3.36,1.54-5.25,1.85-3.64.6-5.23,3.21-4.22,6.67.63,2.15,1.27,4.3,1.96,6.43,1.63,5.04,3.47,5.89,8.31,3.38,2.14-1.11,3.95-.58,5.51.57,1.66,1.24,1.62,3.15.96,5.11-.6,1.78-2.12,1.94-3.5,2.38-6.64,2.15-6.83,2.51-4.8,9.3.25.83.51,1.67.77,2.5,2.13,6.69,2.48,6.78,9.12,5.01,2.8-.75,6.02-1.83,7.77,1.96.97,2.1.73,4.03-1.65,4.93-4.42,1.66-8.89,3.22-13.38,4.68-2.87.93-4.44-.55-5.26-3.22-1.61-5.22-3.29-10.43-4.95-15.64-3.13-9.81-6.25-19.63-9.45-29.42-.67-2.04-.79-4.14-1.1-6.22Z"/><path class="cls-19" d="m432.1,202.43c-.37-8.17-.03-16.34-.43-24.52-.14-2.91-.32-5.88-.33-8.82,0-2.44-.9-3.61-3.47-3.76-2.78-.16-5.24-1.09-5.03-4.64.19-3.16,1.99-4.44,6.1-4.25,4.08.19,8.16.27,12.24-.15.96-.1,1.97.2,2.95.31,2.4.27,3.49,1.74,3.55,4.03.06,2.27-1.33,3.23-3.38,3.77-5.34,1.39-5.5,1.59-5.43,7.13.15,12.7.38,25.4.55,38.1.02,1.61.03,3.25-.23,4.84-.3,1.79-1.74,2.33-3.38,2.19-1.62-.14-2.89-.83-3.01-2.69-.25-3.84-.47-7.68-.7-11.52Z"/><path class="cls-19" d="m260.62,212.16c.05-4.99-1.48-8.96-2.23-13.04-.7-3.74-.94-7.55-2.02-11.28-.92-3.16-1.87-4.65-5.46-4.38-4.03.3-5.88-3.33-3.93-6.85.95-1.73,2.64-1.86,4.17-1.97,4.31-.33,8.51-1.1,12.67-2.22.93-.25,1.98-.01,2.97-.05,2.31-.09,3.41,1.29,3.86,3.28.5,2.18-.59,3.44-2.56,4.32-5.03,2.25-5.22,2.79-4.25,8.23,2.31,12.98,4.6,25.96,6.86,38.95.19,1.09.28,2.23.21,3.33-.11,1.65-1.29,2.3-2.79,2.46-1.5.16-3.02-.23-3.37-1.71-1.54-6.58-2.88-13.2-4.13-19.07Z"/><path class="cls-19" d="m150.07,207.5c-3.26.52-5.56.03-6.08-2.96-.51-2.94.57-5.05,3.88-5.66,4.48-.82,8.85-2.09,13.2-3.49,2.4-.77,5.38-1.27,6.64,2.13.87,2.34.09,4.17-2.33,5.09-3.79,1.43-4.47,3.91-3.37,7.7,3.61,12.43,6.95,24.93,10.38,37.41.36,1.32.69,2.65.92,4,.32,1.94-.62,3.14-2.48,3.52-1.77.35-3.38-.1-3.82-2.04-1.03-4.6-2.8-8.98-4.11-13.48-1.83-6.3-3.15-12.77-5.46-18.94-1.21-3.23-1.52-6.69-2.9-9.92-1.1-2.56-2.04-4.27-4.46-3.35Z"/><path class="cls-19" d="m112.44,272.07c-.44-.04-1.31-.09-2.17-.19-2.11-.23-4.19-1.04-4.2-3.33-.01-2.5,1.46-4.46,4.23-4.92,5.37-.9,6.68-2.89,5.06-8.08-3.63-11.6-7.32-23.17-11.52-34.58-.59-1.61-.8-3.37-1.12-5.08-.44-2.41,1.09-3.47,3.05-3.88,1.96-.41,3.36.65,4.09,2.45.51,1.26,1.12,2.56,1.2,3.88.38,5.95,3.26,11.18,5.15,16.59,2.57,7.35,4.51,14.87,6.89,22.26,2.38,7.37-2.87,14.76-10.66,14.87Z"/><path class="cls-19" d="m347.97,171.14c1.37,8.97,1.12,18.09,2.48,27.07.9,5.99,1.22,12.07,1.91,18.09.33,2.91-.41,5.14-3.55,5.44-3.22.31-3.97-2.34-4.06-4.71-.24-6.61-1.14-13.16-1.79-19.73-1-10.15-1.9-20.31-3.25-30.41-.42-3.15,1.24-4.48,3.3-4.82,2.3-.38,4.24.99,4.36,3.88.07,1.73.39,3.46.6,5.19Z"/><path class="cls-54" d="m478.39,246.23c2.39-.9,4.89-.33,7.33-.49,1.33-.09,2.74.21,3.87-.82,1.37-.21,2.67-.05,4.54,1.22-5.7.32-10.71.45-15.74.09Z"/><path class="cls-4" d="m462.72,135.47c.49-.45.98-.89,1.47-1.34,1.84-.2,3.57.2,5.21,1.34-2.23,0-4.45,0-6.68,0Z"/><path class="cls-44" d="m3.17,227.78c-.41-.06-.83-.11-1.24-.17,1.54-1.14,3.1-2.25,4.94-2.89.51.24,1.02.49,1.53.73-1.74.78-3.49,1.55-5.23,2.33Z"/><path class="cls-57" d="m30.07,334.76c.54.25,1.08.51,1.63.76-1.04.91-2.3,1.28-3.61,1.54-.56.27-1.04.17-1.45-.3,1-.92,2.13-1.61,3.43-2Z"/><path class="cls-23" d="m400.48,189.56c-.75-1.55-.94-3.19-.96-5.04,1.52.11,1.56,1.12,1.76,2-.93.84-.42,2.06-.8,3.04Z"/><path class="cls-17" d="m26.64,336.76c.48.1.96.2,1.45.3-.98.73-2.02,1.27-3.32,1.23.11-1.19,1.04-1.29,1.87-1.52Z"/><path class="cls-2" d="m429.98,130.19c-5.05-.25-9.99-.45-14.93-.76-17.94-1.15-35.9-1.17-53.86-.67-2.26.06-4.41.29-5.45-2.49-.39-1.04-1.57-1.63-2.82-1.37-1.3.27-1.88,1.18-1.78,2.46.2,2.43-1.75,1.7-2.83,1.76-11.95.69-23.9,1.44-35.83,2.56-33.93,3.19-67.49,8.69-100.74,16.16-35.31,7.94-69.94,18.18-103.94,30.58-.8.29-1.54.86-2.7.48.05-1.7.5-4.17-2.22-3.98-2.61.18-3.04,2.51-2.45,4.54.78,2.68-1.45,2.21-2.51,2.62-19.99,7.78-39.71,16.17-58.98,25.59-1.78.87-3.56,1.72-5.45,2.63,2.76-71.6,58.16-167.55,163.82-191.16,109.48-24.47,200.15,40.93,232.66,111.05Z"/><path class="cls-2" d="m242.64,426.03c-75.4-3.08-133.68-35.81-173.7-100.32-1.78-2.86-1.28-3.84,1.85-4.7,4.44-1.22,8.79-2.82,13.07-4.52,2.32-.92,3.44-.52,4.68,1.73,12.15,21.95,29.18,39.34,50.15,52.96.83.54,1.66,1.17,2.58,1.49,1.82.63,3.54.34,4.59-1.42,1.12-1.88.7-3.67-1.07-4.94-2.33-1.67-4.82-3.11-7.15-4.77-17.01-12.08-31.03-26.91-41.59-44.97-1.52-2.6-1.73-3.65,1.66-4.77,61.04-20.17,123.08-36.33,186.39-47.59,41.29-7.34,82.84-12.43,124.66-15.4,1.49-.11,3.01-.05,4.48-.26,2.42-.35,2.91.47,2.54,2.86-3.1,20.14-10.12,38.76-21.24,55.84-1.56,2.4-3.23,4.74-4.93,7.05-1.6,2.17-2.28,4.39.25,6.17,2.53,1.78,4.41.3,5.97-1.81,8.73-11.82,15.58-24.62,20.5-38.47,3.39-9.55,5.82-19.33,7.13-29.37.31-2.39,1.24-3.09,3.53-3.12,4.36-.05,8.74-.21,13.07-.66,3.1-.32,3.5.9,3.12,3.57-3.75,26.74-11.89,52.03-25.87,75.16-33.83,56-83.39,88.54-148.06,98.16-8.78,1.31-17.62,1.62-26.61,2.11Z"/><path class="cls-2" d="m242.9,434.14c-71.39-2.73-129.88-30.27-171.79-89.63-3.67-5.2-6.9-10.68-9.79-16.35-.53-1.03-2.53-2.32-.13-3.64,2.09-1.15,3.16-.46,4.33,1.56,14.39,24.98,33.14,46.16,56.51,63.02,44.79,32.33,94.64,45.12,149.5,37.71,80.23-10.84,146.78-68.75,168.76-146.76,2.77-9.85,4.86-19.84,6.11-30.01.15-1.21-.32-2.9,1.72-3.23,2.43-.39,3.6.08,3.3,3.04-1.99,19.34-6.07,38.2-13.84,56.05-28.87,66.3-79.73,106.09-149.32,123.01-14.84,3.61-30,4.9-45.35,5.23Z"/><path class="cls-62" d="m55.33,254.38c-.51,3.05-1.77,5.45-4.82,6.11-3.06.66-3.97-1.65-4.82-4-.96-2.66-2.02-5.31-3.25-7.86-.98-2.03-.65-3.58,1.09-4.87,1.95-1.44,4.28-2.14,6.12-.34,3.07,3,4.44,7.05,5.67,10.96Z"/><path class="cls-62" d="m319.22,190.33c-.61-4.12-1.01-8.32-1.92-12.4-.47-2.1-.63-3.8,1.52-4.67,2.19-.89,4.43-.89,5.93,1.45.94,1.47,1.64,2.99,1.84,4.8,1.1,9.87,2.31,19.72,3.49,29.57.15,1.28-.11,2.45-.5,3.65-.75,2.28-2.89,2.91-4.68,3.2-1.82.29-2.69-1.74-2.94-3.27-.89-5.47-1.72-10.95-2.2-16.47-.17-1.94-1.27-3.81-.54-5.87Z"/><path class="cls-2" d="m78.44,231.06c2.21.63,3.48,2.71,4.15,4.92,3,9.93,7.23,19.4,10.58,29.2.88,2.57-.07,5.23-1.96,6.62-2.07,1.52-4.24-.2-5.85-1.86-2.3-2.38-3.34-5.57-4.13-8.54-1.06-3.99-2.66-7.69-4.33-11.39-1.67-3.69-2.29-7.71-4.01-11.43-1.49-3.22,1.92-7.58,5.55-7.51Z"/><path class="cls-60" d="m295.49,224.7c-.2.11-.5.35-.59.29-.28-.19-.48-.49-.7-.75.22-.1.44-.28.65-.27.4.02.7.24.64.72Z"/><path class="cls-9" d="m369.59,181.32c2.3,4.09,2.95,8.53,4.15,12.81.41,1.47.52,2.67-.87,3.61-.74.5-1.46,1-2.38.41-1.32-.84-2.35-1.78-2.17-3.58.43-4.4,1.59-8.74,1.28-13.25Z"/><path class="cls-16" d="m366.06,206.9c-.43-.06-.73-.27-.62-.71.04-.15.39-.3.6-.29.38,0,.76.17.59.66-.06.17-.38.24-.57.34Z"/><path class="cls-62" d="m27.15,268.41c-.58,2.74-1.47,5.08-4.33,5.63-2.98.57-3.49-1.67-4.31-3.92-1.23-3.35-2.97-6.51-4.51-9.75-1.26-2.66-.04-4.56,2.31-5.31,2.05-.66,4.37-.64,5.58,2.05,1.32,2.94,2.87,5.77,4.28,8.67.42.88.68,1.83.97,2.63Z"/><path class="cls-53" d="m177.14,200.98c-.18.12-.35.24-.53.36-.1-.17-.32-.38-.27-.5.07-.17.32-.26.49-.38.1.17.2.34.31.52Z"/><path class="cls-47" d="m227.86,202.06c-.11.21-.18.57-.33.61-.52.14-.59-.28-.5-.64.04-.19.29-.33.44-.49.13.17.26.34.39.52Z"/><path class="cls-63" d="m127.86,228.29c-.15.17-.36.4-.56.64-.17-.23-.41-.43-.48-.69-.04-.14.17-.45.33-.53.39-.17.63.04.71.58Z"/><path class="cls-71" d="m433.07,161.01c-.16-.17-.44-.34-.42-.48.02-.19.23-.45.42-.51.49-.15.65.17.52.57-.06.18-.33.28-.51.42Z"/><path class="cls-55" d="m255.67,178.93c-.6-.13-.66-.47-.4-.79.21-.26.57-.55.87-.55.46,0,.55.46.33.78-.19.27-.57.4-.8.56Z"/><path class="cls-31" d="m347.32,201.12c-.02.63-.32.83-.66.68-.27-.12-.56-.44-.62-.72-.05-.21.24-.5.39-.75.33.29.66.58.9.79Z"/><path class="cls-14" d="m248.89,18.78c67.03,2.64,124.54,32.63,165.66,92.85.49.72.97,1.46,1.39,2.22.4.73.37,1.49-.34,2-.83.6-1.66.45-2.29-.37-.46-.59-.87-1.22-1.29-1.84-32.62-48.59-77.76-78.46-135.31-88.57C169.7,6.28,65.75,78.41,45.16,185.1c-.31,1.59-.59,3.19-.87,4.78-.19,1.08-.6,2.01-1.88,1.85-1.36-.17-1.4-1.31-1.21-2.31.77-4.16,1.49-8.34,2.46-12.46C62.62,96.15,128.77,34.7,210.72,21.65c10.87-1.73,21.79-2.49,38.17-2.87Z"/><path class="cls-41" d="m225.75,134.81c-1.8.41-2.41-.53-2.74-2.15-1.51-7.44-3.04-14.88-4.69-22.3-.39-1.74.02-2.57,1.77-2.85,1.6-.26,3.16-.71,4.76-.94,3.02-.43,5.28.72,5.9,3.79,1.27,6.22,2.37,12.48,3.43,18.74.39,2.28-.74,3.89-2.97,4.52-1.79.51-3.65.8-5.47,1.19Z"/><path class="cls-5" d="m213.03,137.56c-2.34.05-3.73-1.08-4.46-2.99-.41-1.09-1.24-2.51.36-3.26,1.13-.54,2.61-1.3,3.43.68.3.72.86,1.27,1.76.81.86-.44.68-1.22.58-1.97-.37-2.79-1.37-4.73-4.6-5.41-4.08-.85-7.59-8.3-6.19-12.27.79-2.24,5.17-4.1,8.07-3.37,2.83.71,3.31,3.08,3.7,5.48.23,1.41-.78,1.63-1.77,1.9-1,.27-2,.53-2.5-.77-.38-1-.41-2.56-2.02-1.99-1.79.63-.61,2.1-.51,3.22.18,2.12,1.3,3.22,3.43,3.8,4.76,1.3,8.31,7.84,6.93,12.48-.95,3.2-3.92,3.02-6.21,3.67Z"/><path class="cls-5" d="m252.4,126.11c1.82-.37,2.77-.08,2.94,1.65.18,1.85-.71,2.47-2.35,2.52-.12,0-.25.02-.37.03q-6.27.91-7.19-5.38c-.87-5.9-1.67-11.82-2.65-17.7-.42-2.52-.09-4.11,2.95-4.09,1.48.01,2.95-.37,4.43-.55,1.33-.16,2.1.32,2.24,1.78.13,1.38-.35,2.21-1.74,2.28-2.66.13-3.22,1.51-2.85,3.94.34,2.16.53,4.02,3.49,3.38,1.27-.28,1.74.55,1.87,1.71.15,1.28-.13,2.24-1.57,2.45-4.16.6-1.84,3.56-1.92,5.53-.08,1.95.89,3.09,2.7,2.44Z"/><path class="cls-5" d="m202.94,125.97c.14,1.24-.54,1.81-1.46,1.94-2.72.4-2.2,2.05-1.66,3.86.65,2.15,1.11,4.35,1.77,6.49.45,1.47.21,2.28-1.43,2.72-1.5.4-2.27.2-2.72-1.41-2.09-7.56-4.26-15.1-6.44-22.64-.43-1.47-.13-2.37,1.46-2.75,1.82-.43,3.62-.95,5.4-1.48,1.24-.37,2.19-.33,2.61,1.15.39,1.38.34,2.5-1.34,2.87-1.84.4-3.52.85-2.52,3.38.78,1.97.32,5.12,4.24,3.72,1.8-.65,1.81,1.13,2.08,2.16Z"/><path class="cls-11" d="m345.91,88.37c-.36.34-.73.68-1.08,1.03-1.12,1.1-1.73,3.99-3.7,2.45-1.53-1.2.7-2.77,1.59-3.96,2.92-3.89,5.93-7.7,8.92-11.54.59-.76,1.12-1.92,2.33-1.27,1.34.71.8,1.84.36,2.93-.96,2.39-1.86,4.8-3.01,7.79,3.19-1.3,4.96-3.45,7.23-4.84.83-.5,1.73-1.38,2.67-.47,1.01.97.03,1.85-.54,2.59-3.4,4.45-6.83,8.88-10.28,13.3-.59.75-1.31,1.84-2.42,1.03-1.23-.9-.08-1.77.41-2.53.97-1.51,2.02-2.96,2.94-4.29-1.65-1.93-3.47,4.18-4.61-.64q.47-1.49-.81-1.57Z"/><path class="cls-11" d="m365.35,102.56c-1.4,1.39-2.78,2.82-4.23,4.16-.62.57-1.43,1.22-2.25.34-.59-.64-.32-1.43.22-2,4.2-4.37,8.42-8.72,12.66-13.06.54-.55,1.27-.91,2-.43.88.59.75,1.48.35,2.32-.91,1.89-1.86,3.76-2.79,5.64-.29.84-.06,1.17.83.84,1.34-1.3,2.66-2.6,4.01-3.88.66-.63,1.46-1.14,2.28-.37.69.65.25,1.47-.25,1.98-4.22,4.37-8.48,8.71-12.74,13.04-.56.57-1.31.81-2,.27-.69-.54-.59-1.35-.25-2.04.97-2,2-3.97,3-5.95.39-.96-.05-1.09-.85-.85Z"/><path class="cls-11" d="m82.32,147.65c-2.09-1.08-4.19-2.13-6.26-3.24-.67-.36-1.3-.92-.9-1.77.38-.8,1.23-.88,1.92-.54,5.53,2.75,11.04,5.56,16.55,8.35.79.4,1.04,1.06.71,1.84-.35.83-1.12.87-1.88.75-2.32-.37-4.63-.76-6.94-1.14-.82-.25-1.11,0-.8.84,1.97,1.03,3.96,2.02,5.9,3.1.73.41,1.62,1,1.05,2.02-.52.92-1.38.76-2.26.32-5.19-2.61-10.39-5.18-15.58-7.8-.86-.44-1.9-.96-1.42-2.21.39-1.01,1.4-.88,2.25-.76,2.08.28,4.16.62,6.23.94.77.39,1.51.69,1.43-.69Z"/><path class="cls-10" d="m169.61,76c-2.36-5.19-4.78-10.36-7.02-15.6-.55-1.27-2.35-2.82-.21-4.19,2.14-1.37,4.43-2.42,6.88-.52,1.69,1.31,2.71,3.3,2.67,5.15-.1,4.19,2.36,6.84,4.73,9.68.59.7,1.81,1.48.81,2.48-1.14,1.14-1.96-.14-2.78-.82-1.8-1.46-2.66-3.86-5.12-5.16-.67,2.82,1.35,4.51,2.11,6.53.98,2.6.03,2.92-2.16,2.37l.09.09Z"/><path class="cls-14" d="m82.95,133.13c2.64.07,4.61,1.71,6.75,2.92,2.26,1.28,4.51,2.61,6.65,4.09,1.57,1.09,2.69,2.47,2.16,4.71-.89,3.78-2.24,4.5-5.6,2.6-4.1-2.32-8.18-4.68-12.21-7.11-1.27-.76-3.49-1.18-2.63-3.37.82-2.08,2.1-4.03,4.88-3.84Z"/><path class="cls-14" d="m113.16,122.53c-.27,1.8-1.04,3.42-2.58,4.35-1.74,1.05-2.67-.8-3.75-1.6-3.79-2.8-7.48-5.73-11.16-8.66-1.09-.87-2.92-1.62-1.96-3.47.92-1.77,2.28-3.34,4.58-3.28,1.24.03,2.47.31,3.49,1.11,3.12,2.46,6.27,4.87,9.31,7.42,1.23,1.03,2.36,2.27,2.07,4.13Z"/><path class="cls-14" d="m158.75,81.05c-.33,2.23-1.88,3.6-3.88,4.48-2.11.93-2.5-1.11-3.22-2.22-2.65-4.05-5.24-8.15-7.71-12.31-.72-1.21-2.61-2.62-.57-4.14,1.92-1.43,4.04-2.61,6.45-.79,2.37,1.79,3.52,4.47,5.01,6.88,1.55,2.52,3.5,4.87,3.93,8.09Z"/><path class="cls-10" d="m267.38,45.13c-.48,3.53-.96,7.34-1.54,11.14-.34,2.26-1.42,3.91-3.92,4.31-3.4.55-4.57-.43-4.24-3.89.45-4.69.94-9.37,1.58-14.04.23-1.64-.35-4.23,2.53-4.12,2.6.09,4.93,1,5.41,4.09.11.73.1,1.48.17,2.52Z"/><path class="cls-44" d="m242.33,129.54c.42,1.97-.6,2.27-1.8,2.52-1.3.27-2.16.08-2.41-1.45-1.28-7.86-2.58-15.72-3.94-23.57-.29-1.67.46-2.15,1.92-2.45,1.61-.33,2.34.2,2.58,1.74,1.23,7.87,2.47,15.74,3.64,23.21Z"/><path class="cls-10" d="m231.44,48.48c0-2.23-.05-4.47.02-6.7.04-1.49-.79-3.55,1.63-3.88,2.09-.29,4.33-.26,5.57,1.96.53.95.91,2.08.99,3.15.26,3.71.46,7.43.48,11.14,0,1.44-.04,3.09-1.2,4.19-1.54,1.47-3.56,1.96-5.54,1.41-1.96-.54-1.16-2.5-1.29-3.86-.24-2.46-.26-4.95-.37-7.42-.09,0-.18,0-.28,0Z"/><path class="cls-10" d="m124.99,81.48c2.01-.1,3.26.71,4.26,1.86,2.61,2.99,5.27,5.95,7.7,9.08,1.62,2.08,2.56,4.57-.09,6.54-2.47,1.84-4.67.77-6.48-1.37-2.57-3.03-5.17-6.02-7.7-9.08-1.28-1.55-1.66-3.39-.74-5.21.65-1.28,1.87-1.97,3.04-1.81Z"/><path class="cls-10" d="m83.82,167.16c-4.47-1.67-9.61-3.51-14.14-6.58-1.41-.96-2.12-2.87-1.06-4.68,1.04-1.78,2.77-2.73,4.74-2.08,4.71,1.56,9.31,3.48,13.56,6.05,1.61.98,2.63,2.64,1.74,4.8-.77,1.89-2.22,2.56-4.84,2.49Z"/><path class="cls-10" d="m306.19,68.75c1.65-4.4,3.53-9.52,6.54-14.08.92-1.4,2.84-2.11,4.68-1.12,1.86,1,2.76,2.75,2.13,4.69-1.53,4.72-3.45,9.31-6.03,13.56-.99,1.63-2.63,2.68-4.77,1.82-1.83-.74-2.67-2.13-2.56-4.87Z"/><path class="cls-14" d="m169.52,75.91c-.9,2.2-2.08,2.7-3.71.63-.69-.88-1.36-1.94-2.74-1.19-1.31.72-.99,1.81-.63,2.94.34,1.08.77,2.39-.79,2.76-1.33.32-1.53-1.05-1.84-1.92-1.83-5.16-3.63-10.34-5.34-15.54-.36-1.1-1.07-2.57.43-3.33,1.32-.66,1.89.68,2.62,1.5,4.12,4.65,7.39,10.03,12.08,14.22,0,0-.08-.08-.08-.08Z"/><path class="cls-67" d="m322.45,70.73c-3.36-1.04-2.99,2.27-4.3,3.56-.85.84-.83,3.24-2.69,2.2-1.67-.93-.23-2.46.33-3.58,2.18-4.33,4.44-8.62,6.73-12.89.6-1.11.72-3,2.57-2.68,1.85.33,3.58,1.18,4.44,3.06,1.75,3.83-2.99,10.63-7.09,10.32Z"/><path class="cls-10" d="m339.68,67.3c.1,4.5-4.36,8.74-8.75,8.36-2.71-.24-2.41,2.44-3.72,3.54-.92.78-1.03,3.19-2.81,2.08-1.58-.98-.12-2.46.52-3.56,2.45-4.18,4.94-8.33,7.47-12.47.78-1.27,1.12-3.29,3.47-2.31,2.07.87,3.66,2.1,3.82,4.36Z"/><path class="cls-10" d="m203.59,44.56c-.13-1.67.06-2.9,1.48-3.02,1.78-.15,3.72-1.63,5.32-.22,1.22,1.08.14,2.11-1.09,2.35-2.12.4-3.02,1.38-2.57,3.61.39,1.93.91,3.38,3.36,2.83.74-.16,1.54.2,1.73,1.07.22.98-.18,1.8-1.22,1.95-2.49.37-2.4,1.87-2.07,3.84.4,2.35,1.7,2.72,3.71,2.35.92-.17,1.77.11,2,1.2.24,1.11-.5,1.48-1.36,1.88-4.23,1.96-5.84,1.22-6.66-3.23-.93-5.02-1.8-10.05-2.62-14.62Z"/><path class="cls-67" d="m242.67,49.04c0-2.24-.01-4.47,0-6.71.03-4.78.73-5.34,5.56-4.69,1.06.14,2.08.27,2.05,1.6-.02,1.12-.97,1.42-1.86,1.35-2.02-.17-2.98.58-3.04,2.7-.06,2.04-.11,3.81,2.7,3.77.78-.01,1.4.5,1.38,1.43-.02,1.04-.6,1.7-1.61,1.66-2.56-.11-2.66,1.55-2.74,3.43-.08,2.09.84,2.89,2.87,2.9.98,0,2.07.41,2.01,1.73-.06,1.34-1.21,1.38-2.19,1.54-4.61.77-5.37.08-5.3-4.73.03-1.99,0-3.97,0-5.96.06,0,.11,0,.17,0Z"/><path class="cls-70" d="m282.94,53.13c1.06-2.77,2.09-5.56,3.2-8.32.39-.97,1.11-1.81,2.29-1.27,1.09.49.66,1.46.33,2.25-2.3,5.49-4.62,10.96-6.94,16.44-.35.83-.74,1.66-1.84,1.49-1.36-.21-1.31-1.3-1.24-2.3.4-5.81.81-11.62,1.25-17.42.07-.96.08-2.18,1.54-2.03,1.35.14,1.36,1.23,1.28,2.26-.19,2.47-.41,4.93-.61,7.4-.26.75-.7,1.58.73,1.5Z"/><path class="cls-67" d="m337.96,89.79c-2.06-.78-3.92-1.68-5.19-3.19-1.15-1.36.29-2.53,1.01-3.61,2.75-4.15,5.54-8.27,8.35-12.38.68-.99,1.39-2.57,2.75-2.06,1.81.69,3.63,1.7,4.74,3.45.18.29.02,1-.23,1.33-.54.7-1.36.63-2.01.17-1.65-1.14-3.03-1.52-4.36.55-1.13,1.77-1.91,3.22.48,4.58.67.38.83,1.24.3,1.98-.6.83-1.39,1.07-2.25.44-2.06-1.52-3.02-.18-4.13,1.37-1.2,1.68-1.09,2.86.68,3.98.87.55,1.47,1.44.89,2.54-.2.37-.69.59-1.01.84Z"/><path class="cls-10" d="m296.65,48.78c-1.98-.6-2.67.57-3.12,2.19-.44,1.58-1.2,3.19,1.26,3.81.92.23,1.65.8,1.45,1.83-.24,1.21-1.17,1.53-2.28,1.21-2.24-.65-2.79.86-3.3,2.49-.55,1.78-.39,3.1,1.75,3.7,1.03.28,2.26.92,1.6,2.39-.63,1.42-1.84.82-2.92.59-4.77-1.01-4.91-1.26-3.48-5.89,1.39-4.5,2.73-9.01,4.16-13.49.36-1.12.54-2.76,2.15-2.61,1.93.19,3.94.53,5.44,1.97.24.23.24,1.07.02,1.37-.72.94-1.76.63-2.73.43Z"/><path class="cls-67" d="m93.15,129.63c3.08-.71,6.45-.76,9.46,1.65,2.11,1.69,2.53,3.53.93,5.79-1.7,2.4-3.78,1.88-5.94.88-.75-.35-1.17-.98-.95-1.8.26-1.02,1.08-.78,1.81-.66,1.01.18,2.35,1.09,2.69-.68.31-1.6-1.06-1.97-2.28-2.41-1.38-.5-2.68-.15-4.03.04-3.6.51-6.97.16-9.41-2.99-1.5-1.94-.97-3.69.55-5.34,1.63-1.78,3.4-1,5.12-.26.56.24,1.06.81.77,1.48-.17.39-.67.86-1.05.89-1.15.09-3.12-1.36-2.96,1.1.12,1.79,2.01,2.29,3.74,2.3.37,0,.74,0,1.54,0Z"/><path class="cls-10" d="m104.6,99.94c.73.45,1.25.62,1.5.97.5.71.22,1.5-.31,2.05-1.32,1.39-1.74,2.65,0,4.08,1.5,1.23,2.83,2.7,4.61.35.48-.63,1.33-.71,2.02-.18.83.64.98,1.54.26,2.27-1.84,1.86-.61,3,.78,4.27,1.46,1.32,2.7,1.58,4.06-.14.64-.8,1.69-1.32,2.63-.52,1.26,1.06.19,2.01-.4,2.9-2.65,3.96-3.23,4.02-6.79.9-3.56-3.12-7.16-6.19-10.68-9.34-.87-.78-2.35-1.66-1.52-3.03,1.01-1.65,2.49-3,3.84-4.57Z"/><path class="cls-67" d="m130.96,102.95c-.22,1.78-1.34,2.89-2.82,3.69-1.58.85-2.86.01-4.13-.8-.88-.57-1.74-1.25-1.21-2.39.69-1.49,1.67-.44,2.45-.02.83.44,1.62.85,2.25-.15.7-1.1-.04-1.84-.82-2.52-2.06-1.8-4.71-1.4-7.11-1.79-3.02-.5-4.97-2.19-6.21-4.75-1.05-2.17-.02-3.77,1.86-5.04,1.89-1.28,3.29-.18,4.72.83.53.37.9.92.64,1.6-.33.88-1.02.97-1.8.6-.89-.42-1.98-1.14-2.51.2-.57,1.43.58,2.38,1.67,2.94,1.91.99,4.07.97,6.17,1.24,3.34.42,7,3.88,6.87,6.37Z"/><path class="cls-10" d="m356.04,104.26c-1.96-1-3.68-2.15-4.71-3.84-.92-1.51.76-2.45,1.6-3.42,3.24-3.79,6.52-7.54,9.85-11.24.78-.87,1.67-2.34,3.04-1.52,1.67,1,3.42,2.13,4.14,4.12.12.32-.21,1.02-.54,1.26-.68.49-1.48.25-2.05-.29-1.35-1.28-2.61-1.89-4.06-.08-1.18,1.47-2.81,2.75-.44,4.6.76.59.74,1.57-.02,2.31-.63.62-1.46.62-2.01.04-1.84-1.89-2.99-.62-4.3.71-1.66,1.68-1.21,2.97.38,4.37.65.57.95,1.54.27,2.36-.27.33-.8.45-1.15.63Z"/><path class="cls-67" d="m198.01,63.11c1.06-.24,2.13-.53,2.46.88.42,1.77-1.18,1.52-2.08,1.95-2.9,1.36-4.61,1.01-5.4-2.65-1.07-4.97-2.82-9.8-4.21-14.71-.27-.96-1.1-2.34.65-2.74,1.74-.4,3.48-1.96,5.24-.83,1.04.67,1.01,1.96-.71,2.34-1.51.34-2.69,1.04-1.65,2.8.81,1.38-.29,4.67,3.27,3.48.93-.31,1.36.18,1.67.97.47,1.21-.31,1.43-1.2,1.77-2.98,1.17-.74,3.12-.56,4.69.15,1.35.52,2.89,2.52,2.05Z"/><path class="cls-10" d="m272.19,62.34c-4.49-.19-4.88-.64-4.18-4.91.81-4.91,1.61-9.81,2.5-14.7.18-.96-.03-2.59,1.64-2.41,1.8.2,4.04-.25,5.22,1.36.89,1.21-.23,2.16-1.62,1.86-2.42-.52-2.68,1.07-2.94,2.71-.24,1.53-1.01,3.31,1.55,3.71.85.13,1.32.63,1.17,1.56-.16.94-.8,1.16-1.63,1.07-3.47-.4-2.22,2.51-2.81,4.07-.65,1.71-.12,2.88,1.89,3.08,1.04.1,1.59.57,1.28,1.73-.33,1.25-1.22.97-2.08.87Z"/><path class="cls-67" d="m68.01,165.7c-1.01,1.88-.58,3.03,1.49,3.69,1.74.56,3.34,1.37,4.21-1.14.25-.71.77-1.34,1.68-1.13.66.15,1.29.75,1.11,1.3-1.38,4.38,2.4,4.33,4.67,5.58,1.06.58,3.31.35,2.45,2.38-.65,1.53-2.19.4-3.28,0-4.89-1.84-9.75-3.73-14.63-5.58-1.22-.46-2.44-.91-2.04-2.57.44-1.8.81-3.97,2.53-4.72,1.66-.73,1.9.87,1.79,2.2Z"/><path class="cls-52" d="m183.9,47.36c.53-.09,1.11.08,1.5.64.51.73.42,1.52-.26,1.98-1.89,1.26-1.07,2.77-.54,4.29,1.41,3.98,2.84,7.96,4.23,11.95.31.9.93,2.05-.4,2.56-1.36.52-1.65-.8-1.97-1.67-1.48-3.95-2.88-7.93-4.33-11.89-.5-1.38-.78-2.97-2.82-2.91-1.03.03-1.61-.59-1.69-1.6-.08-1.09.71-1.49,1.57-1.79,1.53-.52,3.06-1.02,4.72-1.56Z"/><path class="cls-56" d="m386.99,105.07c-.27,1.35-.9,2.38-2.03,1.71-2.31-1.37-3.45.28-4.79,1.49-3.05,2.75-6.05,5.56-9.11,8.31-.61.55-1.37,1.41-2.25.65-1.11-.96-.22-1.81.5-2.48,3.07-2.9,6.16-5.77,9.27-8.63,1.2-1.1,2.58-2.03,1.7-4.04-.42-.96.11-1.67,1.02-2.09.86-.4,1.43.12,1.93.68,1.3,1.49,2.57,3.01,3.76,4.41Z"/><path class="cls-67" d="m221.9,58.55c-.04,1.02.32,2.13-.9,2.31-1.45.22-1.46-1.04-1.6-1.99-.59-4.06-1.13-8.12-1.74-12.17-.25-1.67-.19-3.51-2.56-3.98-1.31-.26-1.2-1.49-.68-2.41.52-.93,6.78-1.57,7.47-.81.88.96.62,1.89-.47,2.42-1.86.89-1.39,2.45-1.22,3.88.54,4.32,1.15,8.63,1.7,12.76Z"/><path class="cls-70" d="m301.52,70.57c-3.66.11-5.56-2.29-4.36-5.67,1.65-4.67,3.39-9.32,5.13-13.96.41-1.11.75-2.84,2.34-2.18,1.73.71.37,2.18.02,3.2-1.16,3.41-2.5,6.75-3.72,10.13-.8,2.2-2.07,4.55,1.57,5.57.81.23.99,1.06.77,1.86-.24.87-.94,1.07-1.74,1.06Z"/><path class="cls-67" d="m147.43,90.06c-.9,2.12-2.89,2.85-4.46,3.98-1.33.95-1.94-.5-2.58-1.33-3.32-4.33-6.62-8.67-9.9-13.02-.65-.86-1.73-1.99-.59-2.91,1.21-.97,1.95.46,2.6,1.28,2.6,3.32,5.19,6.65,7.71,10.03,1.2,1.62,2.31,2.49,4.23.9,1.47-1.23,2.44-.49,2.99,1.07Z"/><path class="cls-52" d="m173.44,51.67c1.17.04,1.45.9,1.78,1.71,2.14,5.16,4.28,10.32,6.41,15.49.43,1.05.95,2.29-.49,2.87-1.28.52-1.66-.71-2.04-1.61-2.17-5.29-4.33-10.6-6.49-15.89-.45-1.11-.81-2.19.82-2.56Z"/><path class="cls-56" d="m151.32,87.39c-.2.26-.4.77-.77.96-1.02.52-1.66-.23-2.15-.94-2.2-3.16-4.35-6.35-6.53-9.53-1.19-1.74-2.42-3.46-3.59-5.22-.43-.64-.68-1.38.04-2,.7-.6,1.47-.45,1.95.23,3.63,5.17,7.22,10.37,10.81,15.56.13.19.13.47.25.93Z"/><path class="cls-51" d="m325.68,99.91c1.75,1.03,4.25,1.55,4.48,4.26.13,1.48-1.09,2.47-2.43,2.12-2.14-.57-4.42-1.5-4.7-4.13-.15-1.38,1.04-2.15,2.65-2.25Z"/><path class="cls-72" d="m244.55,79.24c-1.8-.05-3.82-.1-3.73-2.54.09-2.36,2.08-2.46,3.9-2.38,1.77.08,3.82.16,3.73,2.6-.09,2.42-2.1,2.37-3.9,2.32Z"/><path class="cls-73" d="m163.03,97.48c1.71.4,2.83,1.2,2.48,2.63-.59,2.48-2.77,3.46-4.99,3.79-1.36.21-2.44-1.05-2.16-2.43.53-2.58,3.04-2.96,4.66-3.99Z"/><path class="cls-8" d="m128.85,133.68c-.88,1.84-1.69,4.06-4.25,4.39-1.42.19-2.57-.94-2.23-2.31.54-2.15,1.64-4.27,4.17-4.64,1.44-.21,2.19.89,2.31,2.55Z"/><path class="cls-22" d="m315.14,93.46c1.69.9,4.32,1.07,4.54,3.91.11,1.48-1.09,2.5-2.4,2.15-2.08-.55-4.53-1.14-4.81-3.89-.15-1.47.98-2.15,2.67-2.17Z"/><path class="cls-35" d="m132.74,128.54c-1.58-.2-2.72-.89-2.43-2.38.46-2.32,1.94-4.1,4.3-4.55,1.34-.25,2.57.95,2.3,2.3-.46,2.28-2.08,3.83-4.17,4.63Z"/><path class="cls-51" d="m143.33,112.77c1.64.22,2.75,1.07,2.41,2.46-.57,2.3-2.28,3.89-4.65,4.24-1.42.21-2.48-1.02-2.18-2.38.53-2.34,2.35-3.64,4.42-4.33Z"/><path class="cls-12" d="m256.76,75c1.58.36,4.12-.16,4.11,2.8,0,1.91-1.5,2.48-3.16,2.2-1.83-.3-4.4.16-4.4-2.79,0-1.9,1.53-2.33,3.45-2.21Z"/><path class="cls-51" d="m218.88,81.09c-1.73.1-3.15-.49-2.93-2.42.32-2.81,2.9-2.25,4.71-2.58,1.72-.31,3.16.58,2.93,2.42-.34,2.72-2.82,2.27-4.71,2.58Z"/><path class="cls-51" d="m115.23,154.68c-1.04,1.72-1.11,4.49-3.98,4.64-1.4.07-2.36-1.19-2-2.55.56-2.07.96-4.61,3.85-4.74,1.46-.06,2.11,1.07,2.13,2.66Z"/><path class="cls-52" d="m337.48,114.01c-1.89-.91-4.03-1.78-4.34-4.32-.18-1.47.98-2.51,2.31-2.19,2.18.52,4.17,1.71,4.52,4.22.21,1.5-.9,2.15-2.49,2.29Z"/><path class="cls-35" d="m344.96,115.55c1.89,1.15,4.02,2.16,4.19,4.72.1,1.44-1.12,2.49-2.43,2.12-2.21-.62-4.02-2.12-4.31-4.55-.17-1.43,1.13-2.03,2.55-2.29Z"/><path class="cls-73" d="m270.17,81.79c-1.69-.43-4.19.07-4.46-2.7-.18-1.86,1.19-2.75,2.9-2.39,1.79.37,4.34-.04,4.62,2.72.2,1.94-1.22,2.48-3.07,2.38Z"/><path class="cls-32" d="m282.21,84.68c-1.56-.68-4.34-.19-4.33-3.22,0-1.67,1.36-2.38,2.88-1.99,1.89.47,4.57.18,4.57,3.22,0,1.73-1.31,2.2-3.12,2Z"/><path class="cls-35" d="m194.37,87.39c-1.63-.2-2.86-.92-2.56-2.6.49-2.69,3.07-2.59,4.99-3.01,1.59-.34,2.69.85,2.43,2.46-.44,2.75-3.14,2.3-4.86,3.14Z"/><path class="cls-65" d="m173.76,91.36c1.69.13,2.72.94,2.52,2.35-.39,2.71-2.81,3.22-4.93,3.65-1.41.28-2.45-.81-2.26-2.24.37-2.74,2.93-2.92,4.67-3.76Z"/><path class="cls-52" d="m109.74,165.76c-.83,1.71-.58,4.44-3.47,4.84-1.45.2-2.5-.86-2.25-2.26.37-2.1.56-4.64,3.36-5.09,1.44-.23,2.2.84,2.36,2.51Z"/><path class="cls-51" d="m206.49,83.79c-1.71-.09-2.96-.82-2.74-2.46.39-2.85,2.97-2.57,4.95-2.86,1.57-.23,2.72.6,2.55,2.35-.31,3.05-3.18,2.09-4.75,2.97Z"/><path class="cls-56" d="m294,88.53c-1.56-.74-4.29-.48-4.17-3.46.07-1.71,1.46-2.3,2.94-1.87,1.89.55,4.49.6,4.42,3.49-.04,1.71-1.42,2.1-3.18,1.84Z"/><path class="cls-32" d="m308.7,91.17c-.15,1.67-.95,2.75-2.38,2.43-2.09-.47-4.64-.78-4.97-3.59-.16-1.37.96-2.56,2.33-2.24,2.07.48,4.44.9,5.02,3.4Z"/><path class="cls-35" d="m187.7,88.58c-.93,2.51-3.2,2.99-5.33,3.28-1.38.19-2.39-1.03-2.09-2.43.58-2.67,3.02-3,5.16-3.28,1.5-.2,2.02,1.09,2.26,2.43Z"/><path class="cls-70" d="m155.35,107.19c-.56,2.28-2.46,3.47-4.59,4.05-1.29.35-2.53-.65-2.38-2.11.27-2.55,2.34-3.64,4.48-4.22,1.4-.38,2.25.66,2.48,2.29Z"/><path class="cls-56" d="m117.88,148.44c-1.98-.22-2.88-1.2-2.48-2.54.61-2.06,1.27-4.42,4.05-4.55,1.49-.07,2.34,1.04,2.01,2.44-.52,2.16-1.54,4.08-3.57,4.65Z"/><path class="cls-65" d="m231.99,79.52c-1.89.1-3.67.02-3.59-2.29.09-2.48,2.17-2.32,3.9-2.42,1.66-.09,3.57-.18,3.61,2.12.05,2.79-2.26,2.43-3.92,2.58Z"/><path class="cls-59" d="m189.96,44.22c-1.18-.41-.67-1.4-.69-2.18-.05-1.24.69-1.94,1.82-1.77,1.07.16.61,1.17.48,1.8-.18.92-.23,2.05-1.62,2.15Z"/><path class="cls-64" d="m276.64,36.83c-.73.9-1.13,2.27-2.62,2.27-.7,0-1.16-.45-.72-1.22.52-.92.73-2.23,2.22-2.09.56.05,1.29.06,1.13,1.04Z"/><path class="cls-42" d="m345.91,88.37c.43-1.01.98-1.91,2.06-2.47.51,1.68-.43,2.84-1.24,4.04-.27-.52-.54-1.04-.81-1.57Z"/><path class="cls-27" d="m82.32,147.65c.71.14,1.84.72,1.47,1.1-.86.89-1.98.2-2.91-.41.48-.23.96-.46,1.43-.69Z"/><path class="cls-45" d="m372.15,100.37c-.39.87-.93,1.59-1.98,1.87-.38-1.26.42-1.97,1.15-2.7.28.28.55.56.83.84Z"/><path class="cls-69" d="m365.35,102.56c.32-.86.96-1.36,1.93-1.73.14,1.17-.32,1.94-1.08,2.58-.28-.28-.57-.56-.85-.85Z"/><path class="cls-1" d="m282.94,53.13c.02.82-.45,1.29-1.05,1.84-.62-1.35-.11-2.34.32-3.34.24.5.49,1,.73,1.5Z"/><path class="cls-58" d="m84.7,152.73c-.77-.06-1.8-.57-1.44-1.13.5-.8,1.53-.23,2.24.29-.27.28-.54.56-.8.84Z"/><path class="cls-5" d="m262.95,324.02c-.38-2.21-.77-4.41-1.12-6.62-.17-1.07.03-2.12,1.15-2.47,1.4-.43,2.16.63,2.39,1.75,1.56,7.68,3.04,15.38,4.52,23.08.19.97-.22,1.74-1.18,2.07-1.15.4-1.96-.21-2.5-1.12-1.02-1.71-1.94-3.47-2.93-5.2-.9-1.58-1.84-3.13-3.2-5.45-.44,4.24.95,7.23,1.43,10.35.19,1.25.69,2.68-.92,3.14-1.91.55-2.2-1.03-2.52-2.41-1.59-6.91-3.22-13.82-4.77-20.74-.29-1.3-.7-2.93,1.01-3.56,1.6-.59,2.48.64,3.21,1.89,1.51,2.57,3.05,5.13,4.58,7.7,1.97-.21.96-1.47.85-2.41Z"/><path class="cls-5" d="m244.8,336.99c.57,2.55,1.17,5.09,1.68,7.65.2.99.19,2.14-1.04,2.48-1.39.38-2.05-.57-2.37-1.77-1.9-7.22-3.82-14.44-5.65-21.69-.3-1.18-.44-2.65,1.14-3.14,1.43-.44,2.32.55,3.02,1.66,2.1,3.35,4.19,6.7,6.88,9.82-.78-3.45-1.53-6.92-2.37-10.36-.32-1.31-.54-2.73.92-3.19,1.77-.56,2.37.95,2.69,2.34,1.63,7.03,3.23,14.07,4.8,21.12.27,1.22.6,2.63-1.03,3.15-1.5.47-2.24-.69-2.91-1.78-1.63-2.64-3.25-5.29-4.87-7.94-1.74-.24-1.14.81-.91,1.65Z"/><path class="cls-5" d="m221.53,337.27c-2.23,4.76,1.95,7.64,3.57,11.35.53,1.21,2.65,2.49.74,3.77-1.86,1.24-2.82-.73-3.73-2.03-1.07-1.53-2.08-3.1-3.1-4.66-.65-1-1.18-2.7-2.6-2.03-1.47.7-.28,2.28-.04,3.36.42,1.93,1.21,3.78,1.83,5.67.35,1.09.16,2.06-1.02,2.42-1.14.34-1.95-.28-2.29-1.36-2.42-7.6-4.83-15.2-7.22-22.8-.24-.77-.05-1.6.69-1.96,2.59-1.3,5.28-2.41,8.23-1.52,2.68.81,3.87,2.97,4.35,5.57.25,1.34.4,2.71.61,4.22Z"/><path class="cls-44" d="m217.86,307.83c.46,1.93.96,3.85,1.38,5.78.2.94-.08,1.84-1.07,2.1-1.02.27-1.64-.41-1.92-1.33-1.84-6.07-3.66-12.14-5.47-18.22-.32-1.07-.07-2.05,1.05-2.46,1.11-.41,1.92.25,2.54,1.09,1.73,2.37,3.44,4.76,5.52,7.64.51-3.22-.9-5.41-1.33-7.76-.23-1.25-.76-2.71.9-3.1,1.56-.37,2,1.07,2.33,2.32,1.47,5.53,2.96,11.05,4.44,16.57.28,1.06.84,2.27-.51,2.97-1.51.78-2.28-.38-3.01-1.4-1.38-1.91-2.72-3.85-4.08-5.78-1.5-.08-1.06.79-.77,1.58Z"/><path class="cls-44" d="m231.47,334.35c.47-.15.94-.35,1.43-.43,1.2-.19,2.35-.03,2.71,1.32.35,1.31-.37,2.24-1.64,2.47-3.4.63-3.15,2.7-2.48,5.3.76,2.93,2.38,3.39,5,2.53,1.2-.39,2.62-.27,3.05,1.31.46,1.68-.94,2.08-2.08,2.57-6.64,2.85-7.17,2.57-9.11-4.41-1.43-5.15-2.94-10.27-4.4-15.41-1.4-4.92-1.25-5.17,3.53-6.5.96-.27,1.92-.53,2.88-.8,1.28-.36,2.62-.54,3.09,1.06.47,1.63-.92,2.08-2.07,2.57-3.92,1.68-4.5,3.29-2.54,6.98.75,1.41,1.07,1.59,2.64,1.44Z"/><path class="cls-44" d="m290.34,310.08c2.97-.34,4.26,1.54,5.13,3.92.35.96.59,2.01-.59,2.6-1.05.53-1.92.23-2.48-.85-.67-1.29-1.54-2.57-3.13-1.49-1.67,1.13-1.26,2.91-.48,4.36,1.14,2.13,3.14,3.55,5.05,4.91,3.07,2.17,4.09,5.22,4.23,8.7.15,3.58-1.42,5.23-5.04,5.55-3.36.29-5.53-1.35-6.14-4.6-.22-1.19-.22-2.36,1.08-2.83,1.22-.44,1.73.53,2.18,1.48.65,1.38,1.37,3.02,3.27,1.81,1.58-1,1.06-2.57.45-4.02-.82-1.95-2.46-3.08-4.06-4.27-2.9-2.14-5.12-4.69-5.42-8.51-.34-4.3,1.73-6.68,5.97-6.76Z"/><path class="cls-5" d="m279.82,335.92c1.54.01,3.6-.57,3.78,1.77.16,2.04-1.91,1.9-3.26,2.29-.95.28-1.95.39-2.91.63-2.6.65-3.86-.25-4.31-3.01-1.08-6.61-2.31-13.21-3.7-19.77-.71-3.36.3-4.97,3.77-5.09,1.23-.04,2.45-.41,3.68-.57,1.13-.14,2.42-.24,2.74,1.2.37,1.63-.9,2.33-2.17,2.42-4.2.27-4.4,2.6-3.51,5.93.52,1.95,1.36,2.81,3.39,2.37,1.39-.3,2.93-.46,3.31,1.36.38,1.78-.93,2.33-2.45,2.54-2.86.39-2.78,2.37-2.32,4.47.45,2.1.73,4.46,3.96,3.45Z"/><path class="cls-44" d="m318.45,315.32c-.15,4.43-2.07,8.26-3.34,12.27-.71,2.26-.79,3.66,2.22,3.33,1.35-.14,2.51.23,2.52,1.95,0,1.67-1.19,1.95-2.47,2.21-7.34,1.48-8.7.07-6.57-7.04,1-3.33,2.19-6.6,3.36-9.87.43-1.21.63-2.39.44-3.65-.16-1.08.04-2.45-1.36-2.76-1.6-.36-1.67,1.03-1.98,2.09-.32,1.1-.75,2.28-2.22,1.96-1.42-.31-1.4-1.62-1.4-2.71,0-2.82.7-5.18,4.04-5.71,2.97-.47,5.72,1.28,6.42,4.33.27,1.2.24,2.47.33,3.61Z"/><path class="cls-44" d="m269.82,288.82c-2.08,4,.3,7.89,2.34,11.85.44.86,1.07,1.92-.33,2.47-1.1.44-1.88-.21-2.4-1.2-1.06-1.96-2.13-3.92-3.22-5.86-.3-.54-.74-1.11-1.44-.91-.75.22-.69.95-.6,1.56.31,1.96.68,3.9.96,5.86.13.9.05,1.84-1.07,2.05-1,.18-1.7-.39-1.9-1.36-1.27-6.33-2.52-12.66-3.75-19-.22-1.13.36-1.81,1.4-2.32,5.34-2.6,9.89.18,10.01,6.86Z"/><path class="cls-44" d="m212.28,312.92c-.29,3.32-1.64,5.29-4.18,5.82-2.43.51-4.58-.73-5.42-3.03-1.79-4.89-3.3-9.89-4.82-14.88-.34-1.12-.82-2.72.86-3.17,1.75-.47,1.9,1.28,2.25,2.36,1.31,4.02,2.47,8.09,3.78,12.11.47,1.45.77,3.66,3.04,2.84,2.03-.73.89-2.54.5-3.88-1.17-4.07-2.48-8.09-3.64-12.16-.34-1.2-1.27-2.85.81-3.39,1.67-.43,2.03,1.05,2.38,2.25,1.55,5.24,3.08,10.5,4.44,15.15Z"/><path class="cls-11" d="m359.45,357.1c1.49,1.66,3.01,3.29,4.47,4.98.65.75,1.36,1.69.35,2.59-.87.78-1.62.03-2.2-.62-4.01-4.4-8-8.81-11.98-13.22-.59-.65-1.22-1.47-.56-2.3.76-.94,1.8-.55,2.71-.05,1.62.9,3.23,1.82,4.84,2.74.9.3,1.16-.04.9-.9-1.11-1.33-2.24-2.65-3.34-3.99-.6-.72-1-1.62-.18-2.31.85-.71,1.67,0,2.24.62,4.08,4.51,8.12,9.04,12.16,13.59.5.57.85,1.29.29,2.02-.68.88-1.52.65-2.31.16-2.21-1.36-4.42-2.74-6.62-4.11-.78-.24-1.08,0-.75.8Z"/><path class="cls-11" d="m203.69,390.04c.51-1.67,1.03-3.33,1.52-5,.24-.8.74-1.41,1.56-1.3.89.12,1.2.99,1.01,1.72-1.59,6.15-3.24,12.28-4.91,18.41-.22.81-.9,1.26-1.73,1-.78-.25-1.1-.96-1.1-1.77,0-2.86,0-5.72,0-9.41-2.19,2.57-2,5.12-2.84,7.27-.42,1.08-.43,2.86-2.19,2.26-1.44-.49-.67-1.87-.4-2.92,1.35-5.18,2.66-10.37,4.05-15.54.3-1.11.38-2.85,2.05-2.62,1.58.21,1.37,1.81,1.41,3.04.04,1.12.11,2.24.17,3.36.59.39-.18,2.04,1.4,1.5Z"/><path class="cls-48" d="m285.43,296.95c.19,2.94-1.36,4.34-4.09,4.8-2.89.49-4.85-.53-5.8-3.36-.35-1.03-.45-2.02.7-2.56.98-.46,1.68.1,2.1.97.64,1.31,1.41,2.72,3.03,1.45,1.54-1.2.8-2.92-.21-3.97-1.71-1.77-3.85-3.13-5.63-4.84-2.37-2.29-3.01-5.21-1.79-8.22.92-2.27,3.2-2.53,5.39-2.52,2.06,0,3.13,1.29,3.81,3.02.34.86.44,1.8-.41,2.37-.86.58-1.67.22-2.21-.64-.7-1.1-1.54-2.32-2.89-1.1-1.33,1.2-1,2.84.12,4.01,1.27,1.34,2.73,2.56,4.26,3.6,2.52,1.71,3.39,4.16,3.63,6.99Z"/><path class="cls-48" d="m313.71,274.14c1.01.06,2.64-.51,2.86,1.26.21,1.77-1.47,1.81-2.63,1.93-2.27.24-3.42,1.14-3.05,3.61.32,2.12.9,3.63,3.54,3.06,1.02-.22,2.09.15,2.23,1.41.16,1.48-.92,1.96-2.13,2-2.49.08-2.71,1.57-2.53,3.57.2,2.19.84,3.55,3.44,3.17,1.14-.17,2.78-.36,2.93,1.43.15,1.83-1.55,1.62-2.68,1.86-5.75,1.24-6.11,1-6.76-4.71-.45-3.96-.81-7.92-1.26-11.88-.71-6.21-.54-6.42,6.05-6.73Z"/><path class="cls-48" d="m255.69,303.11c1.25.08,2.88-.48,3.2,1.18.33,1.7-1.37,1.79-2.5,2.16-5.81,1.89-5.98,1.77-7.31-4.27-.96-4.38-1.79-8.79-2.99-13.1-.9-3.22.12-4.72,3.29-5.1.74-.09,1.47-.27,2.21-.4,1.19-.22,2.76-.93,3.21.71.53,1.91-1.35,2.13-2.6,2.37-2.21.42-2.88,1.5-2.39,3.7.47,2.09,1.06,3.6,3.67,2.91,1.15-.3,2.36-.19,2.55,1.34.16,1.26-.75,1.72-1.83,1.91-2.23.39-2.75,1.69-2.26,3.81.49,2.13,1.31,3.53,3.74,2.8Z"/><path class="cls-14" d="m344.55,378.01c-.29,2.26-1.84,3.66-3.82,4.55-2.02.9-2.51-1.01-3.29-2.16-2.64-3.91-5.29-7.82-7.79-11.83-.93-1.49-3.28-3.06-.67-5.02,2.31-1.74,4.79-2.28,7.04.07,2.51,2.62,4.12,5.89,6.14,8.88,1.13,1.67,2.16,3.34,2.39,5.51Z"/><path class="cls-48" d="m239.01,291.85c.26-1.99-1.53-5.38,1.68-5.46,2.71-.06,1.5,3.4,1.64,5.24.4,4.95.4,9.93.51,14.89.02,1.19.32,2.72-1.27,3.14-1.58.41-2.08-.97-2.6-2.11-2.44-5.29-4.93-10.57-7.3-15.89-.49-1.09-1.72-2.66.38-3.41,1.77-.63,2.36.93,2.91,2.17,1.11,2.49,2.15,5.01,3.22,7.52,2.34-1.75.69-4.05.83-6.1Z"/><path class="cls-14" d="m153.86,385.76c-4.21.11-5.63-2.24-3.58-5.97,2.28-4.14,4.55-8.28,6.91-12.37.74-1.29,1.16-3.51,3.37-2.59,2.2.91,4.22,2.24,3.95,5.22-.2,2.21-1.41,3.97-2.45,5.79-1.61,2.8-3.29,5.56-5.04,8.27-.69,1.07-1.76,1.77-3.16,1.65Z"/><path class="cls-14" d="m333.99,383.86c-.08,1.72-.62,3.31-2.3,3.96-1.76.68-3.7.34-4.71-1.27-2.97-4.73-5.73-9.6-8.52-14.44-.38-.65-.5-1.55.24-2.04,1.01-.66,1.61.13,2.07.91,1.89,3.22,3.76,6.45,5.63,9.69.5.86.94,1.76,1.46,2.6.6.98,1.36,2.09,2.63,1.25,1.02-.68.5-1.78-.01-2.68-2.09-3.68-4.2-7.36-6.27-11.06-.42-.75-.97-1.55-1.03-2.36-.1-1.27.67-1.85,1.92-1.23,1.13.55,8.92,15.26,8.9,16.68Z"/><path class="cls-14" d="m240.07,408.44c.18,1,.25,2.21-.99,2.4-1.5.22-1.78-1.01-1.84-2.2-.07-1.3-.22-2.64-1.87-2.71-1.41-.06-1.7,1.14-2.01,2.26-.3,1.06-.69,2.42-2.19,1.86-1.21-.45-.73-1.73-.52-2.63,1.32-5.67,2.68-11.33,4.1-16.98.23-.92.58-2,1.9-1.92,1.11.07,1.36.85,1.46,1.8.64,6.04,1.31,12.08,1.97,18.12Z"/><path class="cls-11" d="m360.67,366.79c.23.86.04,1.28-.46,1.52-.74.36-1.5.24-2.12-.19-1.06-.74-1.87-2.34-3.46-1.21-1.64,1.16-.34,2.39.15,3.59.33.82.56,1.78-.41,2.3-.99.53-1.65-.19-2.08-.99-2.98-5.43-5.94-10.86-8.89-16.31-.44-.82-.58-1.65.29-2.32.74-.57,1.4-.28,2,.24,4.77,4.14,9.55,8.28,14.3,12.45.36.31.58.77.69.92Z"/><path class="cls-67" d="m290.72,405.05c-2.53.13-3.37-1.74-4.22-3.58-.36-.79-.1-1.5.59-1.95.87-.58,1.36.11,1.8.72.68.95,1.15,2.68,2.7,1.28,1.14-1.02.33-2.31-.33-3.4-1.15-1.91-3.24-2.68-4.92-3.93-2.44-1.82-3.31-4.21-3.34-7.1-.02-2.32,1.27-3.36,3.35-3.76,2.21-.43,3.55.6,4.43,2.53.39.87.65,1.7-.29,2.31-.82.53-1.4,0-1.82-.68-.49-.8-1.17-1.58-2.08-.95-1.09.77-.83,2.09-.33,3.07.94,1.84,2.72,2.9,4.43,3.9,2.61,1.52,3.76,3.93,4.24,6.71.51,2.9-1.23,4.8-4.2,4.85Z"/><path class="cls-67" d="m171.51,391.5c.1-.65-.13-2.54,1.63-2.6,1.89-.06,1.15,1.72,1.16,2.84,0,.87.36,1.51,1.26,1.49.97-.02,1.55-.68,1.82-1.6.59-2.04-.08-3.93-.76-5.8-1.23-3.39-1.07-6.6,1.36-9.45,1.44-1.69,3.14-1.68,5.02-.65,2.03,1.11,2.25,2.8,1.73,4.78-.19.72-.48,1.48-1.42,1.47-.92-.02-1.23-.61-1.22-1.48,0-.95.25-2.27-1.24-2.17-1.28.09-1.76,1.3-1.94,2.43-.33,2.04.4,3.95,1.1,5.79,1.07,2.83.42,5.37-.91,7.85-1.01,1.86-2.51,2.67-4.66,1.88-1.93-.71-3.26-1.81-2.91-4.76Z"/><path class="cls-10" d="m378.72,336.38c-.31.48-.72,1.07-1.1,1.69-1.16,1.88.43,2.67,1.49,3.65,1.08,1,2.17,1.74,3.5.26.84-.94,1.97-2.05,3.17-.98,1.54,1.37-.15,2.45-.88,3.45-2.65,3.58-2.89,3.57-6.27.57-3.73-3.3-7.51-6.56-11.21-9.89-.86-.78-2.28-1.64-1.32-3.06,1.09-1.62,2.16-3.39,4.13-4.14.31-.12.95.25,1.24.57.62.69.26,1.53-.21,2.04-1.37,1.51-1.93,2.79.01,4.36,1.57,1.27,2.76,2.43,4.62.26,1.08-1.25,2.23-.54,2.84,1.22Z"/><path class="cls-10" d="m168.05,382.96c-2.12-1.34-2.93.22-3.82,1.87-1.04,1.92-.76,3.2,1.37,4.1.9.38,1.62,1.31,1.06,2.45-.61,1.22-1.6.74-2.58.43-4.97-1.57-5.23-2.16-3.01-6.69,2.07-4.23,4.06-8.51,6.15-12.73.57-1.16,1.02-2.96,2.77-2.42,1.84.56,3.84,1.15,5.11,2.81.21.28.11,1.07-.14,1.38-.65.78-1.62.68-2.39.23-1.77-1.02-3.02-.79-3.85,1.18-.71,1.69-2.02,3.41.81,4.52.82.32,1.41,1.1.84,2.12-.48.87-1.22,1.2-2.31.76Z"/><path class="cls-67" d="m383.18,330c-3.43.21-6.36-.7-8.53-3.54-1.47-1.94-1.12-3.61.44-5.31,1.57-1.73,3.25-1.5,5.02-.5.77.44,1.56.95,1.07,2.03-.4.89-1.17.78-1.89.47-.89-.38-1.77-.5-2.21.52-.52,1.2.51,1.89,1.26,2.41,1.86,1.27,4.06,1.12,6.14.84,3.01-.41,5.31.82,7.39,2.72,2.22,2.03,1.91,4.14-.02,6.15-2.03,2.1-4.08,1.11-6.03-.17-.63-.41-1.08-1.14-.56-1.92.37-.56,1.02-.63,1.67-.43,1.09.33,2.57,1.57,3.06-.34.48-1.87-1.32-2.35-2.74-2.85-1.36-.48-2.71-.13-4.05-.06Z"/><path class="cls-10" d="m271.92,388.84c-.06-1.34.19-2.41,1.67-2.51,1.8-.12,3.77-1.74,5.31-.27,1.29,1.23.05,2.27-1.36,2.49-2.03.31-2.85,1.25-2.26,3.32.49,1.74.36,4.01,3.35,3.1.93-.28,1.74.19,1.98,1.19.25,1.05-.39,1.78-1.31,1.91-2.54.35-2.4,1.94-2.07,3.83.38,2.16,1.48,2.93,3.64,2.46.97-.21,2.08-.11,2.28,1.25.2,1.34-.85,1.59-1.79,1.96-4.69,1.85-5.51,1.4-6.46-3.52-.99-5.11-2-10.22-2.98-15.21Z"/><path class="cls-14" d="m306.09,386.32c.75-.15,1.84-.49,2.29.81.42,1.19-.31,1.85-1.35,2.27-2.35.95-1.27,2.52-.75,4.03.57,1.66,1.45,2.54,3.34,1.83,1.2-.45,2.69-.77,3.14.83.46,1.66-1.26,1.89-2.3,2.41-4.05,2.03-4.31,1.92-5.95-2.12-1.83-4.5-3.72-8.97-5.47-13.49-.45-1.18-1.6-2.73-.1-3.73,1.62-1.07,3.45-2.04,5.53-1.94.34.02.87.57.94.95.25,1.27-.77,1.76-1.68,2.11-1.76.68-2.34,1.7-1.41,3.46.77,1.46.96,3.63,3.76,2.58Z"/><path class="cls-67" d="m266.45,392.89c.17-1.9-1.44-5.11,1.5-5.18,2.3-.05.91,3.09.9,4.71-.03,4.97-.4,9.94-.68,14.9-.06,1.06.16,2.49-1.46,2.54-1.22.04-1.45-1.08-1.74-2.07-1.6-5.61-3.27-11.2-4.86-16.82-.25-.89-.75-2.1.64-2.52,1.51-.45,1.86.73,2.16,1.88.88,3.35,1.78,6.69,2.67,10.03,1.57-2.34-.04-5.05.86-7.48Z"/><path class="cls-48" d="m301.97,295.76c-.04,1.53.4,2.96-1.2,3.13-1.53.16-1.65-1.29-1.8-2.36-.6-4.18-1.17-8.36-1.66-12.55-.24-2.02-.23-4.05-3-4.33-.77-.08-1.34-.75-1.29-1.59.06-.96.63-1.61,1.64-1.73,2.22-.25,4.44-.52,6.67-.69.9-.07,1.78.18,1.99,1.26.16.86-.3,1.45-1.08,1.71-2.25.75-2.03,2.51-1.82,4.29.54,4.44,1.08,8.88,1.56,12.87Z"/><path class="cls-73" d="m246.04,401.14c0-1.98.08-3.97-.03-5.95-.07-1.3.07-2.8-1.74-3.31-1.01-.28-1.22-1.16-.97-2.12.28-1.08,1.16-1.16,2.07-1.15,1,0,1.99.01,2.99.04,1.21.04,2.68-.34,3.19,1.22.51,1.55-.96,1.75-1.88,2.28-1.24.7-.98,1.92-.98,3-.03,4.36.01,8.73-.04,13.09-.01,1.02.35,2.61-1.29,2.6-1.65,0-1.22-1.65-1.27-2.63-.12-2.35-.04-4.71-.04-7.07Z"/><path class="cls-52" d="m321.71,392.03c.05.99-.35,1.49-1,1.6-.9.15-1.31-.6-1.64-1.25-1.8-3.53-3.54-7.1-5.36-10.63-.96-1.85-1.16-4.45-4.43-4-1.02.14-1.49-1.18-1.1-2.28.34-.97,6.09-3.49,6.9-3.05,1.13.61,1.33,1.62.41,2.42-1.74,1.53-.67,2.92,0,4.33,1.72,3.58,3.49,7.14,5.23,10.72.38.78.72,1.57.98,2.14Z"/><path class="cls-70" d="m364.69,337.95c-1.25,1.89.3,2.88,1.43,4,3.01,2.97,6.05,5.92,9.03,8.93.71.72,2.11,1.55.93,2.74-1.19,1.2-2.01-.25-2.75-.93-2.73-2.53-5.36-5.17-8.06-7.73-1.53-1.44-2.68-3.94-5.5-2.2-.09.05-.25,0-.37-.03-.96-.26-1.48-.88-1.42-1.89.06-.95,4.71-5.35,5.53-5.19,1.24.25,1.55,1.08,1.18,2.3Z"/><path class="cls-67" d="m216.28,405.35c.57-3.6,1.15-7.66,1.88-11.69.33-1.85,1.14-3.67-1.24-4.77-.2-.09-.37-.35-.44-.57-.28-.92-.13-1.72.8-2.2,1.08-.56,6.98.85,7.3,1.77.42,1.21-.14,1.94-1.34,2.11-2.02.28-2.04,1.84-2.29,3.32-.72,4.29-1.45,8.57-2.19,12.86-.17.96-.2,2.25-1.57,2.06-1.44-.2-.87-1.51-.9-2.89Z"/><path class="cls-66" d="m232.78,309.96c.11.94-.06,1.81-1.05,2.13-1.24.41-1.89-.38-2.17-1.43-1.63-6.13-3.22-12.26-4.8-18.4-.28-1.1.03-2.02,1.22-2.33,1.06-.28,1.66.38,1.9,1.31,1.65,6.23,3.27,12.48,4.9,18.72Z"/><path class="cls-17" d="m292.39,298.32c.05.66-.06,1.68-1.35,1.89-1.59.25-1.82-.96-1.99-2.11-.83-5.8-1.66-11.6-2.46-17.4-.16-1.19-.66-2.67,1.21-2.95,1.83-.28,1.88,1.17,2.05,2.42.82,5.92,1.65,11.83,2.53,18.15Z"/><path class="cls-32" d="m213.41,386.84c-1.34,6.19-2.68,12.38-4.05,18.57-.18.81-.81,1.3-1.66,1.15-1.2-.21-1.16-1.2-.98-2.05,1.27-5.97,2.57-11.93,3.89-17.88.2-.9.66-1.74,1.75-1.53.82.16,1.18.86,1.05,1.73Z"/><path class="cls-35" d="m196.37,382.46c-1.89,5.93-3.8,11.97-5.76,17.99-.24.74-.88,1.26-1.74,1.07-.93-.2-1.14-1.01-.91-1.75,1.91-6.04,3.87-12.07,5.83-18.09.25-.76.74-1.34,1.65-1.11.94.23.94,1.03.93,1.9Z"/><path class="cls-32" d="m258.21,407.05c0,.74.04,1.48-.01,2.22-.06.83-.55,1.41-1.37,1.49-.94.09-1.34-.69-1.38-1.41-.36-6.3-.66-12.6-.95-18.91-.04-.93.27-1.81,1.45-1.67,1.14.14,1.15,1.18,1.2,2.01.33,5.42.62,10.84.92,16.26.05,0,.1,0,.15,0Z"/><path class="cls-56" d="m338.13,357.81c1.14.07,1.56.71,2,1.31,3.38,4.6,6.76,9.2,10.12,13.81.64.89,1.56,1.95.19,2.86-1.11.73-1.83-.27-2.41-1.07-3.45-4.72-6.88-9.45-10.3-14.19-.43-.6-.96-1.25-.51-2.02.22-.37.73-.56.93-.7Z"/><path class="cls-65" d="m229.88,391.54c-.57,5.37-1.07,10.45-1.66,15.51-.14,1.17-.15,2.86-1.96,2.5-1.53-.3-.95-1.82-.85-2.84.52-5.08,1.03-10.16,1.75-15.22.18-1.27-.3-3.72,1.82-3.43,2.12.28.75,2.43.9,3.47Z"/><path class="cls-61" d="m239.01,291.85c.49,2.83.92,5.66.48,8.69-1.26-.67-1.27-1.64-1.31-2.6,1.19-1.91.24-4.11.83-6.1Z"/><path class="cls-34" d="m203.69,390.04c.05,1.24-.25,2.37-1.4,3.87v-5.37c.47.5.93,1,1.4,1.5Z"/><path class="cls-6" d="m262.95,324.02c.44,1.63.88,3.25,1.46,5.42-1.62-.87-2.1-1.84-2.31-3.01l.85-2.41Z"/><path class="cls-40" d="m266.45,392.89c-.07,2.52.98,5.16-.86,7.48.65-2.45-.27-5.08.86-7.48Z"/><path class="cls-39" d="m217.86,307.83c-.39-1.1-.78-2.21-1.26-3.59,1.46.26,1.68,1.2,2.03,2.01l-.77,1.58Z"/><path class="cls-25" d="m244.8,336.99c-.6-.98-1.24-2.22-.35-3.04.53-.49,1.06.66,1.25,1.38-.3.55-.6,1.1-.91,1.65Z"/><path class="cls-30" d="m357.98,350.31c.78.41,1.81,1.24,1.27,1.83-.86.93-1.54-.32-2.16-.93.3-.3.6-.6.9-.9Z"/><path class="cls-7" d="m359.45,357.1c-.66-.35-1.52-.96-.93-1.59.57-.63,1.26.19,1.69.79-.25.27-.5.53-.75.8Z"/><path class="cls-33" d="m229.65,128c.14,1.06-.35,1.66-1.32,1.94-1.26.37-1.5-.56-1.67-1.41-1.07-5.23-2.11-10.47-3.17-15.71-.2-1,.01-1.72,1.17-1.88,1.06-.14,1.75.39,1.94,1.32,1.06,5.24,2.05,10.49,3.06,15.73Z"/><path class="cls-18" d="m169.83,61.85c-.23,1.14-.79,2.31-1.88,1.91-1.94-.71-2.18-2.83-2.73-4.54-.25-.78.59-1.49,1.36-1.38,2.31.31,2.47,2.46,3.25,4.01Z"/><path class="cls-68" d="m84.08,136.05c3.59,1.87,7.53,3.89,11.05,6.63.53.41.45,1.14.11,1.71-.51.86-1.28.64-1.94.27-3.55-2.01-7.08-4.06-10.61-6.09-.57-.33-.99-.78-.82-1.49.22-.91.98-.99,2.2-1.02Z"/><path class="cls-49" d="m110.15,121.76c-.19,1.66-1.19,1.85-2.32,1.02-3.29-2.44-6.49-4.99-9.73-7.5-.53-.41-.89-.91-.6-1.59.35-.82,1.14-1.12,1.84-.75,3.98,2.1,7.29,5.1,10.59,8.11.15.14.15.46.22.71Z"/><path class="cls-49" d="m155.75,79.57c.05,1.24-.26,1.76-.86,2.04-.68.32-1.27-.08-1.59-.58-2.29-3.54-4.53-7.12-6.78-10.68-.37-.59-.36-1.16.19-1.66.54-.48,1.22-.56,1.69-.09,3.29,3.29,5.04,7.59,7.35,10.97Z"/><path class="cls-68" d="m264.54,45.8c-.35,2.98-.72,6.06-1.07,9.14-.14,1.19-.5,2.44-1.85,2.37-1.62-.09-1.2-1.58-1.11-2.59.26-3.08.53-6.17.98-9.23.18-1.2-.36-3.32,1.51-3.29,2.2.03,1.41,2.13,1.55,3.61Z"/><path class="cls-9" d="m234.35,48.36c-.11-1.85-.23-3.69-.32-5.54-.04-.79.17-1.51,1.11-1.62.89-.11,1.43.46,1.58,1.23.88,4.26.73,8.58.55,12.88-.03.84-.95,1.22-1.69,1.07-.78-.16-1.11-.93-1.12-1.73-.02-2.1,0-4.2,0-6.29-.04,0-.08,0-.12,0Z"/><path class="cls-26" d="m135.4,95.35c-.13.26-.25.83-.59,1.06-.68.46-1.55.31-2.05-.26-2.71-3.04-5.37-6.11-7.98-9.23-.49-.59-.38-1.42.23-2.03.65-.66,1.49-.59,1.99-.03,2.78,3.14,5.48,6.35,8.19,9.55.14.17.12.47.22.95Z"/><path class="cls-37" d="m73.74,156.53c3.43,1.55,7.28,3.26,11.09,5.07.69.33,1,1.26.55,1.94-.27.4-1.12.75-1.59.63-4.11-1.03-7.89-2.9-11.58-4.94-.58-.32-.86-1.2-.5-2.01.31-.68.89-.79,2.02-.7Z"/><path class="cls-20" d="m316.8,58.89c-1.55,3.3-3.24,7.29-5.31,11.08-.59,1.08-2.51.75-2.25-.79.74-4.42,2.75-8.42,5.16-12.18.3-.46,1.03-.71,1.69-.38.64.32.8.9.7,2.27Z"/><path class="cls-3" d="m158.5,68.78c2.31.49,3.02,1.52,3.33,2.87.05.21-.42.79-.57.77-1.92-.31-1.42-2.12-2.76-3.64Z"/><path class="cls-15" d="m327.26,62.82c-1.22,1.56-.78,4.29-3.48,4.76-.76.13-1.75-.4-1.26-1.25,1.01-1.73.82-4.33,3.27-5.01.82-.23,1.18.65,1.47,1.51Z"/><path class="cls-36" d="m333.46,72.94c-1.02-.18-1.95-.55-1.43-1.4,1.04-1.71,1.15-4.24,3.57-4.84.77-.19,1.51.71,1.2,1.45-.77,1.86-1.11,4.12-3.33,4.79Z"/><path class="cls-20" d="m215.29,339.28c-2.56-1.1-2.16-3.95-2.87-6.09-.43-1.3.86-2.16,2-2.03,2.85.31,3.09,2.85,3.53,4.93.35,1.66-.56,2.82-2.66,3.19Z"/><path class="cls-33" d="m266.85,288.63c-.04,1.67-.9,2.91-2.45,2.6-2.44-.5-1.58-3.01-2.07-4.62-.4-1.3.71-2.15,1.99-1.95,2.24.36,2.14,2.39,2.54,3.97Z"/><path class="cls-26" d="m333.08,365.21c.47.24.89.33,1.11.59,2.87,3.3,5.08,7.04,7.23,10.82.4.7.02,1.5-.69,1.93-.86.53-1.46-.14-1.85-.72-2.31-3.39-4.58-6.8-6.82-10.24-.85-1.3-.26-2.02,1.02-2.38Z"/><path class="cls-49" d="m153.91,382.63c-1.33-.19-1.48-1.16-1.07-1.94,2.01-3.83,4.14-7.59,6.25-11.37.31-.56.83-.97,1.53-.66.59.26.96.72,1.02,1.42.09,1.04-5.76,11.75-6.76,12.26-.32.16-.7.2-.98.28Z"/><path class="cls-46" d="m235.96,397.92c.79,1.88,1.08,3.12.3,4.36-.09.14-.83.11-.93-.05-.82-1.32-.22-2.53.63-4.31Z"/><path class="cls-24" d="m350.47,360.81c.68,1.07,2.48,1.39,2.17,3.11-.04.22-.6.56-.82.5-1.38-.38-1.5-1.81-2.18-2.78-.21-.77.12-.99.83-.82Z"/><path class="cls-43" d="m350.47,360.81l-.83.82c-.39-.52-1.3-1.06-.5-1.7.43-.34,1.03.33,1.33.87Z"/></svg>